{"glyphs":{"0":{"ha":867,"x_min":0,"x_max":0,"o":"m 374 -7 l 492 -7 b 778 279 694 -7 778 104 l 778 693 b 492 979 778 868 694 979 l 374 979 b 89 693 172 979 89 868 l 89 279 b 374 -7 89 104 172 -7 z m 385 153 b 268 279 311 153 268 182 l 268 693 b 385 819 268 789 311 819 l 482 819 b 599 693 556 819 599 789 l 599 279 b 482 153 599 182 556 153 z "},"1":{"ha":471,"x_min":0,"x_max":0,"o":"m 360 972 l 72 972 b 49 949 56 972 49 965 l 49 838 b 72 814 49 821 56 814 l 203 814 l 203 22 b 225 0 203 7 211 0 l 360 0 b 382 22 375 0 382 7 l 382 950 b 360 972 382 965 375 972 z "},"2":{"ha":835,"x_min":0,"x_max":0,"o":"m 90 0 l 733 0 b 756 24 749 0 756 7 l 756 135 b 733 158 756 151 749 158 l 253 158 l 253 201 b 382 332 253 265 289 296 l 554 397 b 765 711 733 465 765 513 b 489 979 765 860 696 979 l 379 979 b 82 719 174 979 82 894 l 82 692 b 104 669 82 678 90 669 l 239 669 b 261 692 254 669 261 678 b 381 819 261 789 304 819 l 479 819 b 586 711 550 819 586 781 b 478 547 586 629 586 590 l 272 468 b 69 149 100 400 69 308 l 69 21 b 90 0 69 7 76 0 z "},"3":{"ha":818,"x_min":0,"x_max":0,"o":"m 583 492 l 583 506 b 735 711 682 529 735 572 b 454 979 735 860 661 979 l 376 979 b 79 719 171 979 79 894 l 79 692 b 101 669 79 678 86 669 l 236 669 b 258 692 250 669 258 678 b 378 819 258 789 301 819 l 444 819 b 556 711 515 819 556 781 b 426 578 556 638 546 578 l 357 578 b 333 554 340 578 333 571 l 333 443 b 357 419 333 426 340 419 l 426 419 b 571 263 546 419 571 364 b 460 153 571 193 532 153 l 367 153 b 247 281 290 153 247 183 b 225 303 247 294 239 303 l 90 303 b 68 281 75 303 68 294 l 68 253 b 365 -7 68 78 160 -7 l 469 -7 b 750 263 676 -7 750 115 b 583 492 750 433 682 469 z "},"4":{"ha":779,"x_min":0,"x_max":0,"o":"m 694 382 l 632 382 l 632 536 b 610 558 632 551 624 558 l 475 558 b 453 536 460 558 453 551 l 453 382 l 243 382 l 547 943 b 533 972 557 960 553 972 l 388 972 b 356 951 376 972 364 968 l 47 383 b 47 346 39 367 40 363 l 94 243 b 119 224 101 229 107 224 l 453 224 l 453 22 b 475 0 453 7 460 0 l 610 0 b 632 22 624 0 632 7 l 632 224 l 694 224 b 717 246 710 224 717 231 l 717 358 b 694 382 717 374 710 382 z "},"5":{"ha":821,"x_min":0,"x_max":0,"o":"m 367 -7 l 471 -7 b 753 279 678 -7 753 104 l 753 356 b 488 643 753 503 707 643 l 436 643 b 268 579 358 643 292 613 l 258 579 l 283 814 l 671 814 b 694 838 688 814 694 821 l 694 949 b 671 972 694 965 688 972 l 149 972 b 128 951 135 972 129 965 l 81 442 b 101 417 79 425 86 417 l 257 417 b 371 483 274 449 300 483 l 456 483 b 575 357 528 483 575 454 l 575 279 b 461 153 575 182 532 153 l 368 153 b 249 281 292 153 249 183 b 226 303 249 294 240 303 l 92 303 b 69 281 76 303 69 294 l 69 253 b 367 -7 69 78 161 -7 z "},"6":{"ha":844,"x_min":0,"x_max":0,"o":"m 375 -7 l 490 -7 b 776 279 692 -7 776 104 l 776 340 b 511 628 776 488 729 628 l 439 628 b 279 565 371 628 303 597 l 267 565 l 268 711 b 374 819 268 781 303 819 l 454 819 b 576 746 532 819 576 815 b 597 724 576 731 583 724 l 733 724 b 754 746 747 724 754 731 l 754 764 b 457 979 754 911 665 979 l 367 979 b 89 711 160 979 89 858 l 89 279 b 375 -7 89 104 174 -7 z m 388 153 b 268 279 314 153 268 182 l 268 342 b 388 468 268 439 314 468 l 478 468 b 597 342 551 468 597 439 l 597 279 b 478 153 597 182 551 153 z "},"7":{"ha":760,"x_min":0,"x_max":0,"o":"m 121 0 l 250 0 b 281 24 264 0 278 11 b 683 756 343 307 478 528 b 711 814 703 778 711 793 l 711 950 b 689 972 711 965 703 972 l 86 972 b 63 949 69 972 63 965 l 63 838 b 86 814 63 821 69 814 l 524 814 l 524 803 b 100 31 303 561 163 308 b 121 0 97 18 104 0 z "},"8":{"ha":865,"x_min":0,"x_max":0,"o":"m 661 532 b 743 719 717 564 743 622 b 475 979 743 889 663 979 l 390 979 b 122 719 203 979 122 889 b 204 532 122 622 149 564 b 89 315 125 497 89 426 l 89 268 b 375 -7 89 104 174 -7 l 490 -7 b 776 268 692 -7 776 104 l 776 315 b 661 532 776 426 740 497 z m 403 826 l 463 826 b 574 719 557 826 574 781 b 463 611 574 657 556 611 l 403 611 b 292 719 308 611 292 657 b 403 826 292 781 308 826 z m 597 268 b 478 153 597 182 551 153 l 388 153 b 268 268 314 153 268 182 l 268 315 b 388 439 268 411 314 439 l 478 439 b 597 315 551 439 597 411 z "},"9":{"ha":844,"x_min":0,"x_max":0,"o":"m 469 979 l 354 979 b 68 693 153 979 68 868 l 68 632 b 333 344 68 485 115 344 l 406 344 b 565 407 474 344 542 375 l 578 407 l 576 261 b 471 153 576 192 542 153 l 390 153 b 268 226 313 153 268 157 b 247 249 268 242 261 249 l 111 249 b 90 226 97 249 90 242 l 90 208 b 388 -7 90 61 179 -7 l 478 -7 b 756 261 685 -7 756 114 l 756 693 b 469 979 756 868 671 979 z m 457 819 b 576 693 531 819 576 790 l 576 631 b 457 504 576 533 531 504 l 367 504 b 247 631 293 504 247 533 l 247 693 b 367 819 247 790 293 819 z "},"A":{"ha":869,"x_min":0,"x_max":0,"o":"m 821 28 l 579 950 b 553 972 575 964 565 972 l 318 972 b 292 950 306 972 296 964 l 49 28 b 67 0 44 13 53 0 l 208 0 b 235 28 222 0 231 13 l 268 157 l 601 157 l 635 28 b 663 0 639 13 649 0 l 803 0 b 821 28 817 0 825 13 z m 310 315 l 425 764 l 446 764 l 561 315 z "},"Á":{"ha":869,"x_min":0,"x_max":0,"o":"m 385 1040 l 500 1040 b 535 1065 514 1040 525 1051 l 657 1225 b 643 1250 669 1240 658 1250 l 468 1250 b 439 1225 454 1250 447 1242 l 371 1065 b 385 1040 363 1049 369 1040 z m 821 28 l 579 950 b 553 972 575 964 565 972 l 318 972 b 292 950 306 972 296 964 l 49 28 b 67 0 44 13 53 0 l 208 0 b 235 28 222 0 231 13 l 268 157 l 601 157 l 635 28 b 663 0 639 13 649 0 l 803 0 b 821 28 817 0 825 13 z m 310 315 l 425 764 l 446 764 l 561 315 z "},"Ă":{"ha":869,"x_min":0,"x_max":0,"o":"m 390 1028 l 478 1028 b 672 1228 611 1028 672 1093 b 650 1250 672 1243 664 1250 l 547 1250 b 525 1228 533 1250 528 1243 b 451 1150 521 1188 508 1150 l 415 1150 b 342 1228 358 1150 347 1188 b 321 1250 340 1243 335 1250 l 217 1250 b 196 1228 203 1250 196 1243 b 390 1028 196 1093 257 1028 z m 821 28 l 579 950 b 553 972 575 964 565 972 l 318 972 b 292 950 306 972 296 964 l 49 28 b 67 0 44 13 53 0 l 208 0 b 235 28 222 0 231 13 l 268 157 l 601 157 l 635 28 b 663 0 639 13 649 0 l 803 0 b 821 28 817 0 825 13 z m 310 315 l 425 764 l 446 764 l 561 315 z "},"Ǎ":{"ha":869,"x_min":0,"x_max":0,"o":"m 324 1060 b 361 1040 333 1046 346 1040 l 507 1040 b 546 1060 522 1040 535 1047 l 689 1222 b 676 1250 700 1236 690 1250 l 547 1250 b 503 1222 526 1250 517 1239 l 442 1151 l 428 1151 l 367 1222 b 322 1250 353 1239 343 1250 l 192 1250 b 181 1222 178 1250 169 1236 z m 821 28 l 579 950 b 553 972 575 964 565 972 l 318 972 b 292 950 306 972 296 964 l 49 28 b 67 0 44 13 53 0 l 208 0 b 235 28 222 0 231 13 l 268 157 l 601 157 l 635 28 b 663 0 639 13 649 0 l 803 0 b 821 28 817 0 825 13 z m 310 315 l 425 764 l 446 764 l 561 315 z "},"Â":{"ha":869,"x_min":0,"x_max":0,"o":"m 194 1040 l 325 1040 b 369 1067 346 1040 356 1051 l 431 1139 l 444 1139 l 506 1067 b 550 1040 519 1051 529 1040 l 679 1040 b 692 1067 693 1040 703 1054 l 549 1231 b 510 1250 538 1242 525 1250 l 364 1250 b 326 1231 349 1250 336 1244 l 183 1067 b 194 1040 172 1054 181 1040 z m 821 28 l 579 950 b 553 972 575 964 565 972 l 318 972 b 292 950 306 972 296 964 l 49 28 b 67 0 44 13 53 0 l 208 0 b 235 28 222 0 231 13 l 268 157 l 601 157 l 635 28 b 663 0 639 13 649 0 l 803 0 b 821 28 817 0 825 13 z m 310 315 l 425 764 l 446 764 l 561 315 z "},"Ä":{"ha":869,"x_min":0,"x_max":0,"o":"m 161 1067 l 303 1067 b 324 1088 317 1067 324 1074 l 324 1229 b 303 1250 324 1243 317 1250 l 161 1250 b 140 1229 147 1250 140 1243 l 140 1088 b 161 1067 140 1074 147 1067 z m 567 1067 l 708 1067 b 729 1088 722 1067 729 1074 l 729 1229 b 708 1250 729 1243 722 1250 l 567 1250 b 546 1229 553 1250 546 1243 l 546 1088 b 567 1067 546 1074 553 1067 z m 821 28 l 579 950 b 553 972 575 964 565 972 l 318 972 b 292 950 306 972 296 964 l 49 28 b 67 0 44 13 53 0 l 208 0 b 235 28 222 0 231 13 l 268 157 l 601 157 l 635 28 b 663 0 639 13 649 0 l 803 0 b 821 28 817 0 825 13 z m 310 315 l 425 764 l 446 764 l 561 315 z "},"À":{"ha":869,"x_min":0,"x_max":0,"o":"m 344 1065 b 378 1040 353 1051 364 1040 l 493 1040 b 507 1065 510 1040 515 1049 l 439 1225 b 410 1250 431 1242 424 1250 l 235 1250 b 221 1225 219 1250 208 1240 z m 821 28 l 579 950 b 553 972 575 964 565 972 l 318 972 b 292 950 306 972 296 964 l 49 28 b 67 0 44 13 53 0 l 208 0 b 235 28 222 0 231 13 l 268 157 l 601 157 l 635 28 b 663 0 639 13 649 0 l 803 0 b 821 28 817 0 825 13 z m 310 315 l 425 764 l 446 764 l 561 315 z "},"Ā":{"ha":869,"x_min":0,"x_max":0,"o":"m 210 1089 l 660 1089 b 681 1110 672 1089 681 1096 l 681 1229 b 660 1250 681 1243 672 1250 l 210 1250 b 189 1229 196 1250 189 1243 l 189 1110 b 210 1089 189 1096 196 1089 z m 821 28 l 579 950 b 553 972 575 964 565 972 l 318 972 b 292 950 306 972 296 964 l 49 28 b 67 0 44 13 53 0 l 208 0 b 235 28 222 0 231 13 l 268 157 l 601 157 l 635 28 b 663 0 639 13 649 0 l 803 0 b 821 28 817 0 825 13 z m 310 315 l 425 764 l 446 764 l 561 315 z "},"Ą":{"ha":858,"x_min":0,"x_max":0,"o":"m 618 -143 l 729 -132 b 838 -50 796 -124 856 -117 l 821 13 b 821 28 822 17 822 22 l 579 950 b 553 972 575 964 565 972 l 318 972 b 292 950 306 972 296 964 l 49 28 b 67 0 44 13 53 0 l 208 0 b 235 28 222 0 231 13 l 268 157 l 601 157 l 635 28 l 635 26 l 631 26 l 639 -3 b 588 -37 647 -33 618 -33 l 540 -43 b 442 -161 464 -51 442 -69 b 585 -287 442 -268 472 -287 l 782 -287 b 796 -274 792 -287 796 -282 l 796 -187 b 782 -171 796 -178 790 -171 l 617 -171 b 601 -158 606 -171 601 -167 b 618 -143 601 -149 604 -144 z m 310 315 l 425 764 l 446 764 l 561 315 z "},"Å":{"ha":869,"x_min":0,"x_max":0,"o":"m 425 1025 l 443 1025 b 560 1140 511 1025 560 1075 l 560 1156 b 443 1272 560 1221 511 1272 l 425 1272 b 308 1156 357 1272 308 1221 l 308 1140 b 425 1025 308 1075 357 1025 z m 403 1154 b 428 1179 403 1167 414 1179 l 440 1179 b 467 1154 456 1179 467 1167 l 467 1144 b 440 1118 467 1131 456 1118 l 428 1118 b 403 1144 414 1118 403 1131 z m 821 28 l 579 950 b 553 972 575 964 565 972 l 318 972 b 292 950 306 972 296 964 l 49 28 b 67 0 44 13 53 0 l 208 0 b 235 28 222 0 231 13 l 268 157 l 601 157 l 635 28 b 663 0 639 13 649 0 l 803 0 b 821 28 817 0 825 13 z m 310 315 l 425 764 l 446 764 l 561 315 z "},"Ã":{"ha":869,"x_min":0,"x_max":0,"o":"m 231 1081 b 257 1075 235 1072 243 1067 b 342 1101 289 1094 307 1101 b 526 1046 410 1101 429 1046 b 667 1094 574 1046 617 1056 b 681 1126 678 1103 686 1111 l 642 1222 b 615 1231 638 1231 629 1238 b 531 1201 581 1211 565 1201 b 346 1257 461 1201 442 1257 b 204 1210 299 1257 256 1247 b 192 1176 193 1200 186 1192 z m 821 28 l 579 950 b 553 972 575 964 565 972 l 318 972 b 292 950 306 972 296 964 l 49 28 b 67 0 44 13 53 0 l 208 0 b 235 28 222 0 231 13 l 268 157 l 601 157 l 635 28 b 663 0 639 13 649 0 l 803 0 b 821 28 817 0 825 13 z m 310 315 l 425 764 l 446 764 l 561 315 z "},"Æ":{"ha":1269,"x_min":0,"x_max":0,"o":"m 1201 164 l 803 164 l 803 407 l 1161 407 b 1182 428 1175 407 1182 414 l 1182 544 b 1161 567 1182 558 1175 567 l 803 567 l 803 808 l 1193 808 b 1214 829 1207 808 1214 815 l 1214 951 b 1193 972 1214 965 1207 972 l 592 972 b 564 951 578 972 572 965 l 46 24 b 58 0 38 8 44 0 l 208 0 b 236 21 222 0 228 7 l 311 157 l 619 157 l 619 21 b 640 0 619 7 626 0 l 1201 0 b 1222 21 1215 0 1222 7 l 1222 143 b 1201 164 1222 157 1215 164 z m 397 315 l 619 721 l 619 315 z "},"B":{"ha":846,"x_min":0,"x_max":0,"o":"m 639 507 l 639 519 b 746 718 721 561 746 617 b 485 972 746 894 669 972 l 110 972 b 89 951 96 972 89 965 l 89 21 b 110 0 89 7 96 0 l 488 0 b 778 257 686 0 778 69 l 778 314 b 639 507 778 407 729 474 z m 563 707 l 563 674 b 457 572 563 589 521 572 l 272 572 l 272 808 l 457 808 b 563 707 524 808 563 793 z m 594 267 b 474 164 594 186 553 164 l 272 164 l 272 426 l 474 426 b 594 318 553 426 594 400 z "},"C":{"ha":882,"x_min":0,"x_max":0,"o":"m 374 -7 l 521 -7 b 807 276 728 -7 807 99 l 807 285 b 785 307 807 297 799 307 l 646 307 b 624 285 632 307 624 299 b 504 157 624 183 574 157 l 389 157 b 272 283 315 157 272 186 l 272 689 b 389 815 272 783 315 815 l 504 815 b 624 683 574 815 624 788 b 646 661 624 669 632 661 l 785 661 b 807 683 799 661 807 671 l 807 692 b 521 979 807 872 728 979 l 374 979 b 89 693 171 979 89 868 l 89 279 b 374 -7 89 104 171 -7 z "},"Ć":{"ha":882,"x_min":0,"x_max":0,"o":"m 447 1225 l 379 1065 b 393 1040 371 1049 378 1040 l 508 1040 b 543 1065 522 1040 533 1051 l 665 1225 b 651 1250 678 1240 667 1250 l 476 1250 b 447 1225 463 1250 456 1242 z m 374 -7 l 521 -7 b 807 276 728 -7 807 99 l 807 285 b 785 307 807 297 799 307 l 646 307 b 624 285 632 307 624 299 b 504 157 624 183 574 157 l 389 157 b 272 283 315 157 272 186 l 272 689 b 389 815 272 783 315 815 l 504 815 b 624 683 574 815 624 788 b 646 661 624 669 632 661 l 785 661 b 807 683 799 661 807 671 l 807 692 b 521 979 807 872 728 979 l 374 979 b 89 693 171 979 89 868 l 89 279 b 374 -7 89 104 171 -7 z "},"Č":{"ha":882,"x_min":0,"x_max":0,"o":"m 371 1040 l 517 1040 b 556 1060 532 1040 544 1047 l 699 1222 b 686 1250 710 1236 700 1250 l 557 1250 b 513 1222 536 1250 526 1239 l 451 1151 l 438 1151 l 376 1222 b 332 1250 363 1239 353 1250 l 201 1250 b 190 1222 188 1250 179 1236 l 333 1060 b 371 1040 343 1046 356 1040 z m 374 -7 l 521 -7 b 807 276 728 -7 807 99 l 807 285 b 785 307 807 297 799 307 l 646 307 b 624 285 632 307 624 299 b 504 157 624 183 574 157 l 389 157 b 272 283 315 157 272 186 l 272 689 b 389 815 272 783 315 815 l 504 815 b 624 683 574 815 624 788 b 646 661 624 669 632 661 l 785 661 b 807 683 799 661 807 671 l 807 692 b 521 979 807 872 728 979 l 374 979 b 89 693 171 979 89 868 l 89 279 b 374 -7 89 104 171 -7 z "},"Ç":{"ha":882,"x_min":0,"x_max":0,"o":"m 389 815 l 504 815 b 624 683 574 815 624 788 b 646 661 624 669 632 661 l 785 661 b 807 683 799 661 807 671 l 807 692 b 521 979 807 872 728 979 l 374 979 b 89 693 171 979 89 868 l 89 279 b 374 -7 89 104 171 -7 l 408 -7 b 353 -82 369 -42 353 -56 b 408 -131 353 -115 378 -128 b 551 -165 529 -142 551 -144 b 511 -185 551 -181 535 -185 l 483 -185 b 447 -168 464 -185 453 -176 b 432 -154 446 -160 440 -154 l 325 -154 b 311 -172 314 -154 311 -161 b 433 -286 311 -240 342 -286 l 550 -286 b 688 -162 640 -286 688 -240 b 564 -42 688 -78 660 -51 b 560 -6 535 -39 507 -33 b 807 276 738 7 807 110 l 807 285 b 785 307 807 297 799 307 l 646 307 b 624 285 632 307 624 299 b 504 157 624 183 574 157 l 389 157 b 272 283 315 157 272 186 l 272 689 b 389 815 272 783 315 815 z "},"Ĉ":{"ha":882,"x_min":0,"x_max":0,"o":"m 372 1250 b 335 1231 357 1250 344 1244 l 192 1067 b 203 1040 181 1054 189 1040 l 333 1040 b 378 1067 354 1040 364 1051 l 439 1139 l 453 1139 l 514 1067 b 558 1040 528 1051 538 1040 l 688 1040 b 700 1067 701 1040 711 1054 l 557 1231 b 518 1250 546 1242 533 1250 z m 374 -7 l 521 -7 b 807 276 728 -7 807 99 l 807 285 b 785 307 807 297 799 307 l 646 307 b 624 285 632 307 624 299 b 504 157 624 183 574 157 l 389 157 b 272 283 315 157 272 186 l 272 689 b 389 815 272 783 315 815 l 504 815 b 624 683 574 815 624 788 b 646 661 624 669 632 661 l 785 661 b 807 683 799 661 807 671 l 807 692 b 521 979 807 872 728 979 l 374 979 b 89 693 171 979 89 868 l 89 279 b 374 -7 89 104 171 -7 z "},"Ċ":{"ha":882,"x_min":0,"x_max":0,"o":"m 372 1067 l 514 1067 b 535 1088 528 1067 535 1074 l 535 1229 b 514 1250 535 1243 528 1250 l 372 1250 b 351 1229 358 1250 351 1243 l 351 1088 b 372 1067 351 1074 358 1067 z m 374 -7 l 521 -7 b 807 276 728 -7 807 99 l 807 285 b 785 307 807 297 799 307 l 646 307 b 624 285 632 307 624 299 b 504 157 624 183 574 157 l 389 157 b 272 283 315 157 272 186 l 272 689 b 389 815 272 783 315 815 l 504 815 b 624 683 574 815 624 788 b 646 661 624 669 632 661 l 785 661 b 807 683 799 661 807 671 l 807 692 b 521 979 807 872 728 979 l 374 979 b 89 693 171 979 89 868 l 89 279 b 374 -7 89 104 171 -7 z "},"D":{"ha":881,"x_min":0,"x_max":0,"o":"m 507 972 l 110 972 b 89 951 96 972 89 965 l 89 21 b 110 0 89 7 96 0 l 507 0 b 792 286 710 0 792 111 l 792 686 b 507 972 792 861 710 972 z m 608 290 b 492 164 608 193 565 164 l 272 164 l 272 808 l 492 808 b 608 682 565 808 608 776 z "},"Ð":{"ha":910,"x_min":0,"x_max":0,"o":"m 536 972 l 139 972 b 118 951 125 972 118 965 l 118 567 l 39 567 b 15 543 22 567 15 560 l 15 432 b 39 408 15 415 22 408 l 118 408 l 118 21 b 139 0 118 7 125 0 l 536 0 b 821 286 738 0 821 111 l 821 686 b 536 972 821 861 738 972 z m 638 290 b 521 164 638 193 594 164 l 301 164 l 301 408 l 419 408 b 443 432 436 408 443 415 l 443 543 b 419 567 443 560 436 567 l 301 567 l 301 808 l 521 808 b 638 682 594 808 638 776 z "},"Ď":{"ha":881,"x_min":0,"x_max":0,"o":"m 315 1060 b 353 1040 325 1046 338 1040 l 499 1040 b 538 1060 514 1040 526 1047 l 681 1222 b 668 1250 692 1236 682 1250 l 539 1250 b 494 1222 518 1250 508 1239 l 433 1151 l 419 1151 l 358 1222 b 314 1250 344 1239 335 1250 l 183 1250 b 172 1222 169 1250 161 1236 z m 507 972 l 110 972 b 89 951 96 972 89 965 l 89 21 b 110 0 89 7 96 0 l 507 0 b 792 286 710 0 792 111 l 792 686 b 507 972 792 861 710 972 z m 608 290 b 492 164 608 193 565 164 l 272 164 l 272 808 l 492 808 b 608 682 565 808 608 776 z "},"Đ":{"ha":910,"x_min":0,"x_max":0,"o":"m 536 972 l 139 972 b 118 951 125 972 118 965 l 118 567 l 39 567 b 15 543 22 567 15 560 l 15 432 b 39 408 15 415 22 408 l 118 408 l 118 21 b 139 0 118 7 125 0 l 536 0 b 821 286 738 0 821 111 l 821 686 b 536 972 821 861 738 972 z m 638 290 b 521 164 638 193 594 164 l 301 164 l 301 408 l 419 408 b 443 432 436 408 443 415 l 443 543 b 419 567 443 560 436 567 l 301 567 l 301 808 l 521 808 b 638 682 594 808 638 776 z "},"E":{"ha":739,"x_min":0,"x_max":0,"o":"m 110 0 l 671 0 b 692 21 685 0 692 7 l 692 143 b 671 164 692 157 685 164 l 272 164 l 272 407 l 631 407 b 651 428 644 407 651 414 l 651 544 b 631 567 651 558 644 567 l 272 567 l 272 808 l 663 808 b 683 829 676 808 683 815 l 683 951 b 663 972 683 965 676 972 l 110 972 b 89 951 96 972 89 965 l 89 21 b 110 0 89 7 96 0 z "},"É":{"ha":739,"x_min":0,"x_max":0,"o":"m 388 1225 l 319 1065 b 333 1040 311 1049 318 1040 l 449 1040 b 483 1065 463 1040 474 1051 l 606 1225 b 592 1250 618 1240 607 1250 l 417 1250 b 388 1225 403 1250 396 1242 z m 110 0 l 671 0 b 692 21 685 0 692 7 l 692 143 b 671 164 692 157 685 164 l 272 164 l 272 407 l 631 407 b 651 428 644 407 651 414 l 651 544 b 631 567 651 558 644 567 l 272 567 l 272 808 l 663 808 b 683 829 676 808 683 815 l 683 951 b 663 972 683 965 676 972 l 110 972 b 89 951 96 972 89 965 l 89 21 b 110 0 89 7 96 0 z "},"Ě":{"ha":739,"x_min":0,"x_max":0,"o":"m 311 1040 l 457 1040 b 496 1060 472 1040 485 1047 l 639 1222 b 626 1250 650 1236 640 1250 l 497 1250 b 453 1222 476 1250 467 1239 l 392 1151 l 378 1151 l 317 1222 b 272 1250 303 1239 293 1250 l 142 1250 b 131 1222 128 1250 119 1236 l 274 1060 b 311 1040 283 1046 296 1040 z m 110 0 l 671 0 b 692 21 685 0 692 7 l 692 143 b 671 164 692 157 685 164 l 272 164 l 272 407 l 631 407 b 651 428 644 407 651 414 l 651 544 b 631 567 651 558 644 567 l 272 567 l 272 808 l 663 808 b 683 829 676 808 683 815 l 683 951 b 663 972 683 965 676 972 l 110 972 b 89 951 96 972 89 965 l 89 21 b 110 0 89 7 96 0 z "},"Ȩ":{"ha":739,"x_min":0,"x_max":0,"o":"m 671 164 l 272 164 l 272 407 l 631 407 b 651 428 644 407 651 414 l 651 544 b 631 567 651 558 644 567 l 272 567 l 272 808 l 663 808 b 683 829 676 808 683 815 l 683 951 b 663 972 683 965 676 972 l 110 972 b 89 951 96 972 89 965 l 89 21 b 110 0 89 7 96 0 l 338 0 b 275 -82 294 -40 275 -54 b 331 -131 275 -115 300 -128 b 474 -165 451 -142 474 -144 b 433 -185 474 -181 457 -185 l 406 -185 b 369 -168 386 -185 375 -176 b 354 -154 368 -160 363 -154 l 247 -154 b 233 -172 236 -154 233 -161 b 356 -286 233 -240 264 -286 l 472 -286 b 610 -162 563 -286 610 -240 b 486 -42 610 -78 582 -51 b 493 0 456 -39 425 -33 l 671 0 b 692 21 685 0 692 7 l 692 143 b 671 164 692 157 685 164 z "},"Ê":{"ha":739,"x_min":0,"x_max":0,"o":"m 313 1250 b 275 1231 297 1250 285 1244 l 132 1067 b 143 1040 121 1054 129 1040 l 274 1040 b 318 1067 294 1040 304 1051 l 379 1139 l 393 1139 l 454 1067 b 499 1040 468 1051 478 1040 l 628 1040 b 640 1067 642 1040 651 1054 l 497 1231 b 458 1250 486 1242 474 1250 z m 110 0 l 671 0 b 692 21 685 0 692 7 l 692 143 b 671 164 692 157 685 164 l 272 164 l 272 407 l 631 407 b 651 428 644 407 651 414 l 651 544 b 631 567 651 558 644 567 l 272 567 l 272 808 l 663 808 b 683 829 676 808 683 815 l 683 951 b 663 972 683 965 676 972 l 110 972 b 89 951 96 972 89 965 l 89 21 b 110 0 89 7 96 0 z "},"Ë":{"ha":739,"x_min":0,"x_max":0,"o":"m 111 1067 l 253 1067 b 274 1088 267 1067 274 1074 l 274 1229 b 253 1250 274 1243 267 1250 l 111 1250 b 90 1229 97 1250 90 1243 l 90 1088 b 111 1067 90 1074 97 1067 z m 517 1067 l 658 1067 b 679 1088 672 1067 679 1074 l 679 1229 b 658 1250 679 1243 672 1250 l 517 1250 b 496 1229 503 1250 496 1243 l 496 1088 b 517 1067 496 1074 503 1067 z m 110 0 l 671 0 b 692 21 685 0 692 7 l 692 143 b 671 164 692 157 685 164 l 272 164 l 272 407 l 631 407 b 651 428 644 407 651 414 l 651 544 b 631 567 651 558 644 567 l 272 567 l 272 808 l 663 808 b 683 829 676 808 683 815 l 683 951 b 663 972 683 965 676 972 l 110 972 b 89 951 96 972 89 965 l 89 21 b 110 0 89 7 96 0 z "},"Ė":{"ha":739,"x_min":0,"x_max":0,"o":"m 313 1067 l 454 1067 b 475 1088 468 1067 475 1074 l 475 1229 b 454 1250 475 1243 468 1250 l 313 1250 b 292 1229 299 1250 292 1243 l 292 1088 b 313 1067 292 1074 299 1067 z m 110 0 l 671 0 b 692 21 685 0 692 7 l 692 143 b 671 164 692 157 685 164 l 272 164 l 272 407 l 631 407 b 651 428 644 407 651 414 l 651 544 b 631 567 651 558 644 567 l 272 567 l 272 808 l 663 808 b 683 829 676 808 683 815 l 683 951 b 663 972 683 965 676 972 l 110 972 b 89 951 96 972 89 965 l 89 21 b 110 0 89 7 96 0 z "},"È":{"ha":739,"x_min":0,"x_max":0,"o":"m 389 1225 b 360 1250 381 1242 374 1250 l 185 1250 b 171 1225 169 1250 158 1240 l 294 1065 b 328 1040 303 1051 314 1040 l 443 1040 b 457 1065 460 1040 465 1049 z m 110 0 l 671 0 b 692 21 685 0 692 7 l 692 143 b 671 164 692 157 685 164 l 272 164 l 272 407 l 631 407 b 651 428 644 407 651 414 l 651 544 b 631 567 651 558 644 567 l 272 567 l 272 808 l 663 808 b 683 829 676 808 683 815 l 683 951 b 663 972 683 965 676 972 l 110 972 b 89 951 96 972 89 965 l 89 21 b 110 0 89 7 96 0 z "},"Ē":{"ha":739,"x_min":0,"x_max":0,"o":"m 160 1089 l 610 1089 b 631 1110 622 1089 631 1096 l 631 1229 b 610 1250 631 1243 622 1250 l 160 1250 b 139 1229 146 1250 139 1243 l 139 1110 b 160 1089 139 1096 146 1089 z m 110 0 l 671 0 b 692 21 685 0 692 7 l 692 143 b 671 164 692 157 685 164 l 272 164 l 272 407 l 631 407 b 651 428 644 407 651 414 l 651 544 b 631 567 651 558 644 567 l 272 567 l 272 808 l 663 808 b 683 829 676 808 683 815 l 683 951 b 663 972 683 965 676 972 l 110 972 b 89 951 96 972 89 965 l 89 21 b 110 0 89 7 96 0 z "},"Ę":{"ha":739,"x_min":0,"x_max":0,"o":"m 671 164 l 272 164 l 272 407 l 631 407 b 651 428 644 407 651 414 l 651 544 b 631 567 651 558 644 567 l 272 567 l 272 808 l 663 808 b 683 829 676 808 683 815 l 683 951 b 663 972 683 965 676 972 l 110 972 b 89 951 96 972 89 965 l 89 21 b 110 0 89 7 96 0 l 514 0 l 514 -3 b 465 -37 514 -36 496 -35 l 414 -43 b 315 -161 338 -51 315 -69 b 458 -287 315 -268 347 -287 l 657 -287 b 671 -274 667 -287 671 -282 l 671 -187 b 657 -171 671 -178 665 -171 l 492 -171 b 475 -158 479 -171 475 -167 b 492 -143 475 -149 478 -144 l 592 -132 b 692 -50 658 -122 692 -118 l 692 143 b 671 164 692 157 685 164 z "},"F":{"ha":731,"x_min":0,"x_max":0,"o":"m 663 972 l 110 972 b 89 951 96 972 89 965 l 89 21 b 110 0 89 7 96 0 l 251 0 b 272 21 265 0 272 7 l 272 407 l 633 407 b 654 428 647 407 654 414 l 654 544 b 633 567 654 558 647 567 l 272 567 l 272 808 l 663 808 b 683 829 676 808 683 815 l 683 951 b 663 972 683 965 676 972 z "},"G":{"ha":896,"x_min":0,"x_max":0,"o":"m 374 -7 l 522 -7 b 807 279 725 -7 807 104 l 807 538 b 778 567 807 557 797 567 l 447 567 b 426 544 433 567 426 558 l 426 428 b 447 407 426 414 433 407 l 624 407 l 624 283 b 507 157 624 186 581 157 l 389 157 b 272 283 315 157 272 186 l 272 689 b 389 815 272 783 315 815 l 504 815 b 624 683 574 815 624 788 b 646 661 624 669 632 661 l 785 661 b 807 683 799 661 807 671 l 807 692 b 521 979 807 872 728 979 l 374 979 b 89 693 171 979 89 868 l 89 279 b 374 -7 89 104 171 -7 z "},"Ğ":{"ha":896,"x_min":0,"x_max":0,"o":"m 421 1028 l 508 1028 b 703 1228 642 1028 703 1093 b 681 1250 703 1243 694 1250 l 578 1250 b 556 1228 564 1250 558 1243 b 482 1150 551 1188 539 1150 l 446 1150 b 372 1228 389 1150 378 1188 b 351 1250 371 1243 365 1250 l 247 1250 b 226 1228 233 1250 226 1243 b 421 1028 226 1093 288 1028 z m 374 -7 l 522 -7 b 807 279 725 -7 807 104 l 807 538 b 778 567 807 557 797 567 l 447 567 b 426 544 433 567 426 558 l 426 428 b 447 407 426 414 433 407 l 624 407 l 624 283 b 507 157 624 186 581 157 l 389 157 b 272 283 315 157 272 186 l 272 689 b 389 815 272 783 315 815 l 504 815 b 624 683 574 815 624 788 b 646 661 624 669 632 661 l 785 661 b 807 683 799 661 807 671 l 807 692 b 521 979 807 872 728 979 l 374 979 b 89 693 171 979 89 868 l 89 279 b 374 -7 89 104 171 -7 z "},"Ǧ":{"ha":896,"x_min":0,"x_max":0,"o":"m 392 1040 l 538 1040 b 576 1060 553 1040 565 1047 l 719 1222 b 707 1250 731 1236 721 1250 l 578 1250 b 533 1222 557 1250 547 1239 l 472 1151 l 458 1151 l 397 1222 b 353 1250 383 1239 374 1250 l 222 1250 b 211 1222 208 1250 200 1236 l 354 1060 b 392 1040 364 1046 376 1040 z m 374 -7 l 522 -7 b 807 279 725 -7 807 104 l 807 538 b 778 567 807 557 797 567 l 447 567 b 426 544 433 567 426 558 l 426 428 b 447 407 426 414 433 407 l 624 407 l 624 283 b 507 157 624 186 581 157 l 389 157 b 272 283 315 157 272 186 l 272 689 b 389 815 272 783 315 815 l 504 815 b 624 683 574 815 624 788 b 646 661 624 669 632 661 l 785 661 b 807 683 799 661 807 671 l 807 692 b 521 979 807 872 728 979 l 374 979 b 89 693 171 979 89 868 l 89 279 b 374 -7 89 104 171 -7 z "},"Ĝ":{"ha":896,"x_min":0,"x_max":0,"o":"m 393 1250 b 356 1231 378 1250 365 1244 l 213 1067 b 224 1040 201 1054 210 1040 l 354 1040 b 399 1067 375 1040 385 1051 l 460 1139 l 474 1139 l 535 1067 b 579 1040 549 1051 558 1040 l 708 1040 b 721 1067 722 1040 732 1054 l 578 1231 b 539 1250 567 1242 554 1250 z m 374 -7 l 522 -7 b 807 279 725 -7 807 104 l 807 538 b 778 567 807 557 797 567 l 447 567 b 426 544 433 567 426 558 l 426 428 b 447 407 426 414 433 407 l 624 407 l 624 283 b 507 157 624 186 581 157 l 389 157 b 272 283 315 157 272 186 l 272 689 b 389 815 272 783 315 815 l 504 815 b 624 683 574 815 624 788 b 646 661 624 669 632 661 l 785 661 b 807 683 799 661 807 671 l 807 692 b 521 979 807 872 728 979 l 374 979 b 89 693 171 979 89 868 l 89 279 b 374 -7 89 104 171 -7 z "},"Ģ":{"ha":896,"x_min":0,"x_max":0,"o":"m 374 -7 l 522 -7 b 807 279 725 -7 807 104 l 807 538 b 778 567 807 557 797 567 l 447 567 b 426 544 433 567 426 558 l 426 428 b 447 407 426 414 433 407 l 624 407 l 624 283 b 507 157 624 186 581 157 l 389 157 b 272 283 315 157 272 186 l 272 689 b 389 815 272 783 315 815 l 504 815 b 624 683 574 815 624 788 b 646 661 624 669 632 661 l 785 661 b 807 683 799 661 807 671 l 807 692 b 521 979 807 872 728 979 l 374 979 b 89 693 171 979 89 868 l 89 279 b 374 -7 89 104 171 -7 z m 521 -83 l 406 -83 b 385 -104 392 -83 385 -90 l 385 -347 l 322 -347 b 301 -368 308 -347 301 -354 l 301 -475 b 322 -497 301 -489 308 -497 l 490 -497 b 542 -444 524 -497 542 -479 l 542 -104 b 521 -83 542 -90 535 -83 z "},"Ġ":{"ha":896,"x_min":0,"x_max":0,"o":"m 393 1067 l 535 1067 b 556 1088 549 1067 556 1074 l 556 1229 b 535 1250 556 1243 549 1250 l 393 1250 b 372 1229 379 1250 372 1243 l 372 1088 b 393 1067 372 1074 379 1067 z m 374 -7 l 522 -7 b 807 279 725 -7 807 104 l 807 538 b 778 567 807 557 797 567 l 447 567 b 426 544 433 567 426 558 l 426 428 b 447 407 426 414 433 407 l 624 407 l 624 283 b 507 157 624 186 581 157 l 389 157 b 272 283 315 157 272 186 l 272 689 b 389 815 272 783 315 815 l 504 815 b 624 683 574 815 624 788 b 646 661 624 669 632 661 l 785 661 b 807 683 799 661 807 671 l 807 692 b 521 979 807 872 728 979 l 374 979 b 89 693 171 979 89 868 l 89 279 b 374 -7 89 104 171 -7 z "},"H":{"ha":881,"x_min":0,"x_max":0,"o":"m 771 972 l 628 972 b 607 951 614 972 607 965 l 607 567 l 274 567 l 274 951 b 253 972 274 965 267 972 l 110 972 b 89 951 96 972 89 965 l 89 21 b 110 0 89 7 96 0 l 253 0 b 274 21 267 0 274 7 l 274 407 l 607 407 l 607 21 b 628 0 607 7 614 0 l 771 0 b 792 21 785 0 792 7 l 792 951 b 771 972 792 965 785 972 z "},"Ħ":{"ha":881,"x_min":0,"x_max":0,"o":"m 771 972 l 628 972 b 607 951 614 972 607 965 l 607 813 l 274 813 l 274 951 b 253 972 274 965 267 972 l 110 972 b 89 951 96 972 89 965 l 89 21 b 110 0 89 7 96 0 l 253 0 b 274 21 267 0 274 7 l 274 407 l 607 407 l 607 21 b 628 0 607 7 614 0 l 771 0 b 792 21 785 0 792 7 l 792 951 b 771 972 792 965 785 972 z m 274 567 l 274 653 l 607 653 l 607 567 z "},"Ĥ":{"ha":881,"x_min":0,"x_max":0,"o":"m 199 1040 l 329 1040 b 374 1067 350 1040 360 1051 l 435 1139 l 449 1139 l 510 1067 b 554 1040 524 1051 533 1040 l 683 1040 b 696 1067 697 1040 707 1054 l 553 1231 b 514 1250 542 1242 529 1250 l 368 1250 b 331 1231 353 1250 340 1244 l 188 1067 b 199 1040 176 1054 185 1040 z m 771 972 l 628 972 b 607 951 614 972 607 965 l 607 567 l 274 567 l 274 951 b 253 972 274 965 267 972 l 110 972 b 89 951 96 972 89 965 l 89 21 b 110 0 89 7 96 0 l 253 0 b 274 21 267 0 274 7 l 274 407 l 607 407 l 607 21 b 628 0 607 7 614 0 l 771 0 b 792 21 785 0 792 7 l 792 951 b 771 972 792 965 785 972 z "},"I":{"ha":361,"x_min":0,"x_max":0,"o":"m 110 0 l 251 0 b 272 21 265 0 272 7 l 272 951 b 251 972 272 965 265 972 l 110 972 b 89 951 96 972 89 965 l 89 21 b 110 0 89 7 96 0 z "},"Ĳ":{"ha":894,"x_min":0,"x_max":0,"o":"m 110 0 l 251 0 b 272 21 265 0 272 7 l 272 951 b 251 972 272 965 265 972 l 110 972 b 89 951 96 972 89 965 l 89 21 b 110 0 89 7 96 0 z m 436 -7 l 521 -7 b 806 279 724 -7 806 104 l 806 951 b 785 972 806 965 799 972 l 643 972 b 622 951 629 972 622 965 l 622 283 b 506 157 622 186 579 157 l 436 157 b 415 136 422 157 415 150 l 415 14 b 436 -7 415 0 422 -7 z "},"Í":{"ha":361,"x_min":0,"x_max":0,"o":"m 183 1225 l 115 1065 b 129 1040 107 1049 114 1040 l 244 1040 b 279 1065 258 1040 269 1051 l 401 1225 b 388 1250 414 1240 403 1250 l 213 1250 b 183 1225 199 1250 192 1242 z m 110 0 l 251 0 b 272 21 265 0 272 7 l 272 951 b 251 972 272 965 265 972 l 110 972 b 89 951 96 972 89 965 l 89 21 b 110 0 89 7 96 0 z "},"Ǐ":{"ha":361,"x_min":0,"x_max":0,"o":"m 107 1040 l 253 1040 b 292 1060 268 1040 281 1047 l 435 1222 b 422 1250 446 1236 436 1250 l 293 1250 b 249 1222 272 1250 263 1239 l 188 1151 l 174 1151 l 113 1222 b 68 1250 99 1239 89 1250 l -62 1250 b -74 1222 -76 1250 -85 1236 l 69 1060 b 107 1040 79 1046 92 1040 z m 110 0 l 251 0 b 272 21 265 0 272 7 l 272 951 b 251 972 272 965 265 972 l 110 972 b 89 951 96 972 89 965 l 89 21 b 110 0 89 7 96 0 z "},"Î":{"ha":361,"x_min":0,"x_max":0,"o":"m 108 1250 b 71 1231 93 1250 81 1244 l -72 1067 b -61 1040 -83 1054 -75 1040 l 69 1040 b 114 1067 90 1040 100 1051 l 175 1139 l 189 1139 l 250 1067 b 294 1040 264 1051 274 1040 l 424 1040 b 436 1067 438 1040 447 1054 l 293 1231 b 254 1250 282 1242 269 1250 z m 110 0 l 251 0 b 272 21 265 0 272 7 l 272 951 b 251 972 272 965 265 972 l 110 972 b 89 951 96 972 89 965 l 89 21 b 110 0 89 7 96 0 z "},"Ï":{"ha":361,"x_min":0,"x_max":0,"o":"m -93 1067 l 49 1067 b 69 1088 63 1067 69 1074 l 69 1229 b 49 1250 69 1243 63 1250 l -93 1250 b -114 1229 -107 1250 -114 1243 l -114 1088 b -93 1067 -114 1074 -107 1067 z m 313 1067 l 454 1067 b 475 1088 468 1067 475 1074 l 475 1229 b 454 1250 475 1243 468 1250 l 313 1250 b 292 1229 299 1250 292 1243 l 292 1088 b 313 1067 292 1074 299 1067 z m 110 0 l 251 0 b 272 21 265 0 272 7 l 272 951 b 251 972 272 965 265 972 l 110 972 b 89 951 96 972 89 965 l 89 21 b 110 0 89 7 96 0 z "},"İ":{"ha":361,"x_min":0,"x_max":0,"o":"m 108 1067 l 250 1067 b 271 1088 264 1067 271 1074 l 271 1229 b 250 1250 271 1243 264 1250 l 108 1250 b 88 1229 94 1250 88 1243 l 88 1088 b 108 1067 88 1074 94 1067 z m 110 0 l 251 0 b 272 21 265 0 272 7 l 272 951 b 251 972 272 965 265 972 l 110 972 b 89 951 96 972 89 965 l 89 21 b 110 0 89 7 96 0 z "},"Ì":{"ha":361,"x_min":0,"x_max":0,"o":"m 185 1225 b 156 1250 176 1242 169 1250 l -19 1250 b -33 1225 -35 1250 -46 1240 l 90 1065 b 124 1040 99 1051 110 1040 l 239 1040 b 253 1065 256 1040 261 1049 z m 110 0 l 251 0 b 272 21 265 0 272 7 l 272 951 b 251 972 272 965 265 972 l 110 972 b 89 951 96 972 89 965 l 89 21 b 110 0 89 7 96 0 z "},"Ī":{"ha":361,"x_min":0,"x_max":0,"o":"m -44 1089 l 406 1089 b 426 1110 418 1089 426 1096 l 426 1229 b 406 1250 426 1243 418 1250 l -44 1250 b -65 1229 -58 1250 -65 1243 l -65 1110 b -44 1089 -65 1096 -58 1089 z m 110 0 l 251 0 b 272 21 265 0 272 7 l 272 951 b 251 972 272 965 265 972 l 110 972 b 89 951 96 972 89 965 l 89 21 b 110 0 89 7 96 0 z "},"Į":{"ha":354,"x_min":0,"x_max":0,"o":"m 256 972 l 115 972 b 93 951 101 972 93 965 l 93 -3 b 46 -37 93 -36 76 -33 l -3 -43 b -101 -161 -79 -51 -101 -69 b 42 -287 -101 -268 -69 -287 l 240 -287 b 254 -274 250 -287 254 -282 l 254 -187 b 240 -171 254 -178 249 -171 l 75 -171 b 58 -158 63 -171 58 -167 b 75 -143 58 -149 61 -144 l 175 -132 b 276 -50 243 -122 276 -118 l 276 951 b 256 972 276 965 269 972 z "},"J":{"ha":533,"x_min":0,"x_max":0,"o":"m 75 -7 l 160 -7 b 444 279 363 -7 444 104 l 444 951 b 424 972 444 965 438 972 l 282 972 b 261 951 268 972 261 965 l 261 283 b 144 157 261 186 218 157 l 75 157 b 54 136 61 157 54 150 l 54 14 b 75 -7 54 0 61 -7 z "},"Ĵ":{"ha":533,"x_min":0,"x_max":0,"o":"m 281 1250 b 243 1231 265 1250 253 1244 l 100 1067 b 111 1040 89 1054 97 1040 l 242 1040 b 286 1067 263 1040 272 1051 l 347 1139 l 361 1139 l 422 1067 b 467 1040 436 1051 446 1040 l 596 1040 b 608 1067 610 1040 619 1054 l 465 1231 b 426 1250 454 1242 442 1250 z m 75 -7 l 160 -7 b 444 279 363 -7 444 104 l 444 951 b 424 972 444 965 438 972 l 282 972 b 261 951 268 972 261 965 l 261 283 b 144 157 261 186 218 157 l 75 157 b 54 136 61 157 54 150 l 54 14 b 75 -7 54 0 61 -7 z "},"K":{"ha":869,"x_min":0,"x_max":0,"o":"m 817 35 l 474 540 l 796 936 b 788 972 811 954 804 972 l 629 972 b 590 950 611 972 601 964 l 272 550 l 272 951 b 251 972 272 965 265 972 l 110 972 b 89 951 96 972 89 965 l 89 21 b 110 0 89 7 96 0 l 251 0 b 272 21 265 0 272 7 l 272 293 l 356 396 l 610 19 b 647 0 621 3 636 0 l 808 0 b 817 35 826 0 824 24 z "},"Ķ":{"ha":869,"x_min":0,"x_max":0,"o":"m 817 35 l 474 540 l 796 936 b 788 972 811 954 804 972 l 629 972 b 590 950 611 972 601 964 l 272 550 l 272 951 b 251 972 272 965 265 972 l 110 972 b 89 951 96 972 89 965 l 89 21 b 110 0 89 7 96 0 l 251 0 b 272 21 265 0 272 7 l 272 293 l 356 396 l 610 19 b 647 0 621 3 636 0 l 808 0 b 817 35 826 0 824 24 z m 482 -83 l 367 -83 b 346 -104 353 -83 346 -90 l 346 -347 l 283 -347 b 263 -368 269 -347 263 -354 l 263 -475 b 283 -497 263 -489 269 -497 l 451 -497 b 503 -444 485 -497 503 -479 l 503 -104 b 482 -83 503 -90 496 -83 z "},"L":{"ha":711,"x_min":0,"x_max":0,"o":"m 110 0 l 636 0 b 657 21 650 0 657 7 l 657 143 b 636 164 657 157 650 164 l 272 164 l 272 951 b 251 972 272 965 265 972 l 110 972 b 89 951 96 972 89 965 l 89 21 b 110 0 89 7 96 0 z "},"Ĺ":{"ha":711,"x_min":0,"x_max":0,"o":"m 183 1225 l 115 1065 b 129 1040 107 1049 114 1040 l 244 1040 b 279 1065 258 1040 269 1051 l 401 1225 b 388 1250 414 1240 403 1250 l 213 1250 b 183 1225 199 1250 192 1242 z m 110 0 l 636 0 b 657 21 650 0 657 7 l 657 143 b 636 164 657 157 650 164 l 272 164 l 272 951 b 251 972 272 965 265 972 l 110 972 b 89 951 96 972 89 965 l 89 21 b 110 0 89 7 96 0 z "},"Ľ":{"ha":711,"x_min":0,"x_max":0,"o":"m 110 0 l 636 0 b 657 21 650 0 657 7 l 657 143 b 636 164 657 157 650 164 l 272 164 l 272 951 b 251 972 272 965 265 972 l 110 972 b 89 951 96 972 89 965 l 89 21 b 110 0 89 7 96 0 z m 585 972 l 469 972 b 449 951 456 972 449 965 l 449 708 l 386 708 b 365 688 372 708 365 701 l 365 581 b 386 558 365 567 372 558 l 554 558 b 606 611 588 558 606 576 l 606 951 b 585 972 606 965 599 972 z "},"Ļ":{"ha":711,"x_min":0,"x_max":0,"o":"m 110 0 l 636 0 b 657 21 650 0 657 7 l 657 143 b 636 164 657 157 650 164 l 272 164 l 272 951 b 251 972 272 965 265 972 l 110 972 b 89 951 96 972 89 965 l 89 21 b 110 0 89 7 96 0 z m 428 -83 l 313 -83 b 292 -104 299 -83 292 -90 l 292 -347 l 229 -347 b 208 -368 215 -347 208 -354 l 208 -475 b 229 -497 208 -489 215 -497 l 397 -497 b 449 -444 431 -497 449 -479 l 449 -104 b 428 -83 449 -90 442 -83 z "},"Ŀ":{"ha":711,"x_min":0,"x_max":0,"o":"m 110 0 l 636 0 b 657 21 650 0 657 7 l 657 143 b 636 164 657 157 650 164 l 272 164 l 272 951 b 251 972 272 965 265 972 l 110 972 b 89 951 96 972 89 965 l 89 21 b 110 0 89 7 96 0 z m 454 426 l 594 426 b 615 447 608 426 615 433 l 615 589 b 594 610 615 603 608 610 l 454 610 b 432 589 440 610 432 603 l 432 447 b 454 426 432 433 440 426 z "},"Ł":{"ha":768,"x_min":0,"x_max":0,"o":"m 693 164 l 329 164 l 329 353 l 576 628 b 564 653 589 642 581 653 l 404 653 b 372 629 393 653 389 647 l 329 582 l 329 951 b 308 972 329 965 322 972 l 167 972 b 146 951 153 972 146 965 l 146 378 l 13 231 b 26 206 0 217 10 206 l 146 206 l 146 21 b 167 0 146 7 153 0 l 693 0 b 714 21 707 0 714 7 l 714 143 b 693 164 714 157 707 164 z "},"M":{"ha":1093,"x_min":0,"x_max":0,"o":"m 110 0 l 251 0 b 272 21 265 0 272 7 l 272 733 l 285 733 l 428 21 b 454 0 431 7 442 0 l 638 0 b 664 21 650 0 663 7 l 807 733 l 821 733 l 821 21 b 842 0 821 7 828 0 l 982 0 b 1004 21 996 0 1004 7 l 1004 951 b 982 972 1004 965 996 972 l 729 972 b 701 951 715 972 703 965 l 551 222 l 542 222 l 392 951 b 364 972 389 965 378 972 l 110 972 b 89 951 96 972 89 965 l 89 21 b 110 0 89 7 96 0 z "},"Ḿ":{"ha":1093,"x_min":0,"x_max":0,"o":"m 549 1228 l 481 1068 b 494 1043 472 1051 479 1043 l 610 1043 b 644 1068 624 1043 635 1054 l 767 1228 b 753 1253 779 1243 768 1253 l 578 1253 b 549 1228 564 1253 557 1244 z m 110 0 l 251 0 b 272 21 265 0 272 7 l 272 733 l 285 733 l 428 21 b 454 0 431 7 442 0 l 638 0 b 664 21 650 0 663 7 l 807 733 l 821 733 l 821 21 b 842 0 821 7 828 0 l 982 0 b 1004 21 996 0 1004 7 l 1004 951 b 982 972 1004 965 996 972 l 729 972 b 701 951 715 972 703 965 l 551 222 l 542 222 l 392 951 b 364 972 389 965 378 972 l 110 972 b 89 951 96 972 89 965 l 89 21 b 110 0 89 7 96 0 z "},"N":{"ha":917,"x_min":0,"x_max":0,"o":"m 110 0 l 251 0 b 272 21 265 0 272 7 l 272 733 l 285 733 l 543 15 b 568 0 547 4 557 0 l 807 0 b 828 21 821 0 828 7 l 828 951 b 807 972 828 965 821 972 l 665 972 b 644 951 651 972 644 965 l 644 239 l 632 239 l 374 957 b 349 972 369 968 360 972 l 110 972 b 89 951 96 972 89 965 l 89 21 b 110 0 89 7 96 0 z "},"Ń":{"ha":917,"x_min":0,"x_max":0,"o":"m 461 1225 l 393 1065 b 407 1040 385 1049 392 1040 l 522 1040 b 557 1065 536 1040 547 1051 l 679 1225 b 665 1250 692 1240 681 1250 l 490 1250 b 461 1225 476 1250 469 1242 z m 110 0 l 251 0 b 272 21 265 0 272 7 l 272 733 l 285 733 l 543 15 b 568 0 547 4 557 0 l 807 0 b 828 21 821 0 828 7 l 828 951 b 807 972 828 965 821 972 l 665 972 b 644 951 651 972 644 965 l 644 239 l 632 239 l 374 957 b 349 972 369 968 360 972 l 110 972 b 89 951 96 972 89 965 l 89 21 b 110 0 89 7 96 0 z "},"Ň":{"ha":917,"x_min":0,"x_max":0,"o":"m 385 1040 l 531 1040 b 569 1060 546 1040 558 1047 l 713 1222 b 700 1250 724 1236 714 1250 l 571 1250 b 526 1222 550 1250 540 1239 l 465 1151 l 451 1151 l 390 1222 b 346 1250 376 1239 367 1250 l 215 1250 b 204 1222 201 1250 193 1236 l 347 1060 b 385 1040 357 1046 369 1040 z m 110 0 l 251 0 b 272 21 265 0 272 7 l 272 733 l 285 733 l 543 15 b 568 0 547 4 557 0 l 807 0 b 828 21 821 0 828 7 l 828 951 b 807 972 828 965 821 972 l 665 972 b 644 951 651 972 644 965 l 644 239 l 632 239 l 374 957 b 349 972 369 968 360 972 l 110 972 b 89 951 96 972 89 965 l 89 21 b 110 0 89 7 96 0 z "},"Ņ":{"ha":917,"x_min":0,"x_max":0,"o":"m 110 0 l 251 0 b 272 21 265 0 272 7 l 272 733 l 285 733 l 543 15 b 568 0 547 4 557 0 l 807 0 b 828 21 821 0 828 7 l 828 951 b 807 972 828 965 821 972 l 665 972 b 644 951 651 972 644 965 l 644 239 l 632 239 l 374 957 b 349 972 369 968 360 972 l 110 972 b 89 951 96 972 89 965 l 89 21 b 110 0 89 7 96 0 z m 514 -83 l 399 -83 b 378 -104 385 -83 378 -90 l 378 -347 l 315 -347 b 294 -368 301 -347 294 -354 l 294 -475 b 315 -497 294 -489 301 -497 l 483 -497 b 535 -444 517 -497 535 -479 l 535 -104 b 514 -83 535 -90 528 -83 z "},"Ŋ":{"ha":917,"x_min":0,"x_max":0,"o":"m 807 972 l 665 972 b 644 951 651 972 644 965 l 644 239 l 632 239 l 374 957 b 349 972 369 968 360 972 l 110 972 b 89 951 96 972 89 965 l 89 21 b 110 0 89 7 96 0 l 251 0 b 272 21 265 0 272 7 l 272 733 l 285 733 l 543 15 b 568 0 547 4 557 0 l 644 0 b 528 -121 643 -93 600 -121 l 458 -121 b 438 -142 444 -121 438 -128 l 438 -264 b 458 -285 438 -278 444 -285 l 543 -285 b 828 1 746 -285 828 -174 l 828 951 b 807 972 828 965 821 972 z "},"Ñ":{"ha":917,"x_min":0,"x_max":0,"o":"m 550 1046 b 690 1094 597 1046 640 1056 b 704 1126 701 1103 710 1111 l 665 1222 b 639 1231 661 1231 653 1238 b 554 1201 604 1211 589 1201 b 369 1257 485 1201 465 1257 b 228 1210 322 1257 279 1247 b 215 1176 217 1200 210 1192 l 254 1081 b 281 1075 258 1072 267 1067 b 365 1101 313 1094 331 1101 b 550 1046 433 1101 453 1046 z m 110 0 l 251 0 b 272 21 265 0 272 7 l 272 733 l 285 733 l 543 15 b 568 0 547 4 557 0 l 807 0 b 828 21 821 0 828 7 l 828 951 b 807 972 828 965 821 972 l 665 972 b 644 951 651 972 644 965 l 644 239 l 632 239 l 374 957 b 349 972 369 968 360 972 l 110 972 b 89 951 96 972 89 965 l 89 21 b 110 0 89 7 96 0 z "},"O":{"ha":901,"x_min":0,"x_max":0,"o":"m 374 -7 l 528 -7 b 813 279 731 -7 813 104 l 813 693 b 528 979 813 868 731 979 l 374 979 b 89 693 172 979 89 868 l 89 279 b 374 -7 89 104 172 -7 z m 389 157 b 272 283 315 157 272 186 l 272 689 b 389 815 272 783 315 815 l 513 815 b 629 689 586 815 629 783 l 629 283 b 513 157 629 186 586 157 z "},"Ó":{"ha":901,"x_min":0,"x_max":0,"o":"m 454 1225 l 386 1065 b 400 1040 378 1049 385 1040 l 515 1040 b 550 1065 529 1040 540 1051 l 672 1225 b 658 1250 685 1240 674 1250 l 483 1250 b 454 1225 469 1250 463 1242 z m 374 -7 l 528 -7 b 813 279 731 -7 813 104 l 813 693 b 528 979 813 868 731 979 l 374 979 b 89 693 172 979 89 868 l 89 279 b 374 -7 89 104 172 -7 z m 389 157 b 272 283 315 157 272 186 l 272 689 b 389 815 272 783 315 815 l 513 815 b 629 689 586 815 629 783 l 629 283 b 513 157 629 186 586 157 z "},"Ǒ":{"ha":901,"x_min":0,"x_max":0,"o":"m 378 1040 l 524 1040 b 563 1060 539 1040 551 1047 l 706 1222 b 693 1250 717 1236 707 1250 l 564 1250 b 519 1222 543 1250 533 1239 l 458 1151 l 444 1151 l 383 1222 b 339 1250 369 1239 360 1250 l 208 1250 b 197 1222 194 1250 186 1236 l 340 1060 b 378 1040 350 1046 363 1040 z m 374 -7 l 528 -7 b 813 279 731 -7 813 104 l 813 693 b 528 979 813 868 731 979 l 374 979 b 89 693 172 979 89 868 l 89 279 b 374 -7 89 104 172 -7 z m 389 157 b 272 283 315 157 272 186 l 272 689 b 389 815 272 783 315 815 l 513 815 b 629 689 586 815 629 783 l 629 283 b 513 157 629 186 586 157 z "},"Ô":{"ha":901,"x_min":0,"x_max":0,"o":"m 379 1250 b 342 1231 364 1250 351 1244 l 199 1067 b 210 1040 188 1054 196 1040 l 340 1040 b 385 1067 361 1040 371 1051 l 446 1139 l 460 1139 l 521 1067 b 565 1040 535 1051 544 1040 l 694 1040 b 707 1067 708 1040 718 1054 l 564 1231 b 525 1250 553 1242 540 1250 z m 374 -7 l 528 -7 b 813 279 731 -7 813 104 l 813 693 b 528 979 813 868 731 979 l 374 979 b 89 693 172 979 89 868 l 89 279 b 374 -7 89 104 172 -7 z m 389 157 b 272 283 315 157 272 186 l 272 689 b 389 815 272 783 315 815 l 513 815 b 629 689 586 815 629 783 l 629 283 b 513 157 629 186 586 157 z "},"Ö":{"ha":901,"x_min":0,"x_max":0,"o":"m 178 1067 l 319 1067 b 340 1088 333 1067 340 1074 l 340 1229 b 319 1250 340 1243 333 1250 l 178 1250 b 157 1229 164 1250 157 1243 l 157 1088 b 178 1067 157 1074 164 1067 z m 583 1067 l 725 1067 b 746 1088 739 1067 746 1074 l 746 1229 b 725 1250 746 1243 739 1250 l 583 1250 b 563 1229 569 1250 563 1243 l 563 1088 b 583 1067 563 1074 569 1067 z m 374 -7 l 528 -7 b 813 279 731 -7 813 104 l 813 693 b 528 979 813 868 731 979 l 374 979 b 89 693 172 979 89 868 l 89 279 b 374 -7 89 104 172 -7 z m 389 157 b 272 283 315 157 272 186 l 272 689 b 389 815 272 783 315 815 l 513 815 b 629 689 586 815 629 783 l 629 283 b 513 157 629 186 586 157 z "},"Ò":{"ha":901,"x_min":0,"x_max":0,"o":"m 456 1225 b 426 1250 447 1242 440 1250 l 251 1250 b 238 1225 236 1250 225 1240 l 361 1065 b 394 1040 369 1051 381 1040 l 510 1040 b 524 1065 526 1040 532 1049 z m 374 -7 l 528 -7 b 813 279 731 -7 813 104 l 813 693 b 528 979 813 868 731 979 l 374 979 b 89 693 172 979 89 868 l 89 279 b 374 -7 89 104 172 -7 z m 389 157 b 272 283 315 157 272 186 l 272 689 b 389 815 272 783 315 815 l 513 815 b 629 689 586 815 629 783 l 629 283 b 513 157 629 186 586 157 z "},"Ő":{"ha":901,"x_min":0,"x_max":0,"o":"m 308 1225 l 240 1065 b 254 1040 232 1049 239 1040 l 369 1040 b 404 1065 383 1040 394 1051 l 526 1225 b 513 1250 539 1240 528 1250 l 338 1250 b 308 1225 324 1250 317 1242 z m 585 1225 l 517 1065 b 531 1040 508 1049 514 1040 l 646 1040 b 679 1065 660 1040 671 1051 l 803 1225 b 789 1250 815 1240 804 1250 l 614 1250 b 585 1225 600 1250 593 1242 z m 374 -7 l 528 -7 b 813 279 731 -7 813 104 l 813 693 b 528 979 813 868 731 979 l 374 979 b 89 693 172 979 89 868 l 89 279 b 374 -7 89 104 172 -7 z m 389 157 b 272 283 315 157 272 186 l 272 689 b 389 815 272 783 315 815 l 513 815 b 629 689 586 815 629 783 l 629 283 b 513 157 629 186 586 157 z "},"Ō":{"ha":901,"x_min":0,"x_max":0,"o":"m 226 1089 l 676 1089 b 697 1110 689 1089 697 1096 l 697 1229 b 676 1250 697 1243 689 1250 l 226 1250 b 206 1229 213 1250 206 1243 l 206 1110 b 226 1089 206 1096 213 1089 z m 374 -7 l 528 -7 b 813 279 731 -7 813 104 l 813 693 b 528 979 813 868 731 979 l 374 979 b 89 693 172 979 89 868 l 89 279 b 374 -7 89 104 172 -7 z m 389 157 b 272 283 315 157 272 186 l 272 689 b 389 815 272 783 315 815 l 513 815 b 629 689 586 815 629 783 l 629 283 b 513 157 629 186 586 157 z "},"Ø":{"ha":901,"x_min":0,"x_max":0,"o":"m 725 922 l 757 997 b 743 1019 763 1011 757 1019 l 604 1019 b 576 999 590 1019 582 1013 l 568 978 b 528 979 554 979 542 979 l 374 979 b 89 693 172 979 89 868 l 89 279 b 178 50 89 179 117 100 l 146 -25 b 160 -47 140 -39 146 -47 l 299 -47 b 326 -26 313 -47 321 -40 l 335 -6 b 374 -7 347 -7 360 -7 l 528 -7 b 813 279 731 -7 813 104 l 813 693 b 725 922 813 793 786 872 z m 272 283 l 272 689 b 389 815 272 783 315 815 l 499 815 l 272 276 z m 629 283 b 513 157 629 186 586 157 l 404 157 l 629 693 l 629 689 z "},"Õ":{"ha":901,"x_min":0,"x_max":0,"o":"m 543 1046 b 683 1094 590 1046 633 1056 b 697 1126 694 1103 703 1111 l 658 1222 b 632 1231 654 1231 646 1238 b 547 1201 597 1211 582 1201 b 363 1257 478 1201 458 1257 b 221 1210 315 1257 272 1247 b 208 1176 210 1200 203 1192 l 247 1081 b 274 1075 251 1072 260 1067 b 358 1101 306 1094 324 1101 b 543 1046 426 1101 446 1046 z m 374 -7 l 528 -7 b 813 279 731 -7 813 104 l 813 693 b 528 979 813 868 731 979 l 374 979 b 89 693 172 979 89 868 l 89 279 b 374 -7 89 104 172 -7 z m 389 157 b 272 283 315 157 272 186 l 272 689 b 389 815 272 783 315 815 l 513 815 b 629 689 586 815 629 783 l 629 283 b 513 157 629 186 586 157 z "},"Œ":{"ha":1279,"x_min":0,"x_max":0,"o":"m 1211 164 l 813 164 l 813 407 l 1171 407 b 1192 428 1185 407 1192 414 l 1192 544 b 1171 567 1192 558 1185 567 l 813 567 l 813 808 l 1203 808 b 1224 829 1217 808 1224 815 l 1224 951 b 1203 972 1224 965 1217 972 l 650 972 b 633 967 643 972 638 971 b 528 979 603 975 568 979 l 374 979 b 89 693 172 979 89 868 l 89 279 b 374 -7 89 104 172 -7 l 528 -7 b 633 6 568 -7 603 -3 b 650 0 638 1 643 0 l 1211 0 b 1232 21 1225 0 1232 7 l 1232 143 b 1211 164 1232 157 1225 164 z m 513 157 l 389 157 b 272 283 315 157 272 186 l 272 689 b 389 815 272 783 315 815 l 513 815 b 629 689 586 815 629 783 l 629 283 b 513 157 629 186 586 157 z "},"P":{"ha":856,"x_min":0,"x_max":0,"o":"m 494 972 l 110 972 b 89 951 96 972 89 965 l 89 21 b 110 0 89 7 96 0 l 251 0 b 272 21 265 0 272 7 l 272 249 l 494 249 b 781 535 696 249 781 361 l 781 685 b 494 972 781 860 696 972 z m 597 540 b 479 413 597 443 553 413 l 272 413 l 272 808 l 479 808 b 597 681 553 808 597 775 z "},"Þ":{"ha":869,"x_min":0,"x_max":0,"o":"m 494 849 l 272 849 l 272 951 b 251 972 272 965 265 972 l 110 972 b 89 951 96 972 89 965 l 89 21 b 110 0 89 7 96 0 l 251 0 b 272 21 265 0 272 7 l 272 124 l 494 124 b 781 411 697 124 781 236 l 781 561 b 494 849 781 736 697 849 z m 597 415 b 479 289 597 319 553 289 l 272 289 l 272 683 l 479 683 b 597 556 553 683 597 651 z "},"Q":{"ha":901,"x_min":0,"x_max":0,"o":"m 528 979 l 374 979 b 89 693 172 979 89 868 l 89 279 b 360 -7 89 108 168 -1 l 360 -110 b 381 -132 360 -124 367 -132 l 522 -132 b 543 -110 536 -132 543 -124 l 543 -7 b 813 279 735 -1 813 108 l 813 693 b 528 979 813 868 731 979 z m 629 283 b 513 157 629 186 586 157 l 389 157 b 272 283 315 157 272 186 l 272 689 b 389 815 272 783 315 815 l 513 815 b 629 689 586 815 629 783 z "},"R":{"ha":857,"x_min":0,"x_max":0,"o":"m 781 535 l 781 685 b 494 972 781 860 696 972 l 110 972 b 89 951 96 972 89 965 l 89 21 b 110 0 89 7 96 0 l 251 0 b 272 21 265 0 272 7 l 272 249 l 494 249 l 589 22 b 625 0 594 7 608 0 l 753 0 b 776 33 775 0 785 13 l 668 290 b 781 535 746 338 781 424 z m 272 808 l 479 808 b 597 681 553 808 597 775 l 597 540 b 479 413 597 443 553 413 l 272 413 z "},"Ŕ":{"ha":857,"x_min":0,"x_max":0,"o":"m 360 1040 l 475 1040 b 510 1065 489 1040 500 1051 l 632 1225 b 618 1250 644 1240 633 1250 l 443 1250 b 414 1225 429 1250 422 1242 l 346 1065 b 360 1040 338 1049 344 1040 z m 781 535 l 781 685 b 494 972 781 860 696 972 l 110 972 b 89 951 96 972 89 965 l 89 21 b 110 0 89 7 96 0 l 251 0 b 272 21 265 0 272 7 l 272 249 l 494 249 l 589 22 b 625 0 594 7 608 0 l 753 0 b 776 33 775 0 785 13 l 668 290 b 781 535 746 338 781 424 z m 272 808 l 479 808 b 597 681 553 808 597 775 l 597 540 b 479 413 597 443 553 413 l 272 413 z "},"Ř":{"ha":857,"x_min":0,"x_max":0,"o":"m 300 1060 b 338 1040 310 1046 322 1040 l 483 1040 b 522 1060 499 1040 511 1047 l 665 1222 b 653 1250 676 1236 667 1250 l 524 1250 b 479 1222 503 1250 493 1239 l 418 1151 l 404 1151 l 343 1222 b 299 1250 329 1239 319 1250 l 168 1250 b 157 1222 154 1250 146 1236 z m 781 535 l 781 685 b 494 972 781 860 696 972 l 110 972 b 89 951 96 972 89 965 l 89 21 b 110 0 89 7 96 0 l 251 0 b 272 21 265 0 272 7 l 272 249 l 494 249 l 589 22 b 625 0 594 7 608 0 l 753 0 b 776 33 775 0 785 13 l 668 290 b 781 535 746 338 781 424 z m 272 808 l 479 808 b 597 681 553 808 597 775 l 597 540 b 479 413 597 443 553 413 l 272 413 z "},"Ŗ":{"ha":857,"x_min":0,"x_max":0,"o":"m 781 535 l 781 685 b 494 972 781 860 696 972 l 110 972 b 89 951 96 972 89 965 l 89 21 b 110 0 89 7 96 0 l 251 0 b 272 21 265 0 272 7 l 272 249 l 494 249 l 589 22 b 625 0 594 7 608 0 l 753 0 b 776 33 775 0 785 13 l 668 290 b 781 535 746 338 781 424 z m 272 808 l 479 808 b 597 681 553 808 597 775 l 597 540 b 479 413 597 443 553 413 l 272 413 z m 467 -83 l 351 -83 b 331 -104 338 -83 331 -90 l 331 -347 l 268 -347 b 247 -368 254 -347 247 -354 l 247 -475 b 268 -497 247 -489 254 -497 l 436 -497 b 488 -444 469 -497 488 -479 l 488 -104 b 467 -83 488 -90 481 -83 z "},"S":{"ha":840,"x_min":0,"x_max":0,"o":"m 351 -7 l 486 -7 b 772 282 683 -7 772 86 b 453 567 772 507 628 544 l 382 576 b 260 708 281 589 260 638 b 375 815 260 788 304 815 l 451 815 b 565 721 522 815 558 789 b 596 692 567 701 578 692 l 721 692 b 749 721 740 692 749 701 b 468 979 749 885 651 979 l 363 979 b 76 717 172 979 76 890 b 382 424 76 494 204 447 l 454 414 b 589 282 544 401 589 376 b 463 157 589 179 533 157 l 376 157 b 251 250 306 157 258 179 b 221 279 250 268 238 279 l 96 279 b 68 250 76 279 68 268 b 351 -7 68 88 157 -7 z "},"Ś":{"ha":840,"x_min":0,"x_max":0,"o":"m 424 1225 l 356 1065 b 369 1040 347 1049 354 1040 l 485 1040 b 519 1065 499 1040 510 1051 l 642 1225 b 628 1250 654 1240 643 1250 l 453 1250 b 424 1225 439 1250 432 1242 z m 351 -7 l 486 -7 b 772 282 683 -7 772 86 b 453 567 772 507 628 544 l 382 576 b 260 708 281 589 260 638 b 375 815 260 788 304 815 l 451 815 b 565 721 522 815 558 789 b 596 692 567 701 578 692 l 721 692 b 749 721 740 692 749 701 b 468 979 749 885 651 979 l 363 979 b 76 717 172 979 76 890 b 382 424 76 494 204 447 l 454 414 b 589 282 544 401 589 376 b 463 157 589 179 533 157 l 376 157 b 251 250 306 157 258 179 b 221 279 250 268 238 279 l 96 279 b 68 250 76 279 68 268 b 351 -7 68 88 157 -7 z "},"Š":{"ha":840,"x_min":0,"x_max":0,"o":"m 347 1040 l 493 1040 b 532 1060 508 1040 521 1047 l 675 1222 b 663 1250 686 1236 676 1250 l 533 1250 b 489 1222 513 1250 503 1239 l 428 1151 l 414 1151 l 353 1222 b 308 1250 339 1239 329 1250 l 178 1250 b 167 1222 164 1250 156 1236 l 310 1060 b 347 1040 319 1046 332 1040 z m 351 -7 l 486 -7 b 772 282 683 -7 772 86 b 453 567 772 507 628 544 l 382 576 b 260 708 281 589 260 638 b 375 815 260 788 304 815 l 451 815 b 565 721 522 815 558 789 b 596 692 567 701 578 692 l 721 692 b 749 721 740 692 749 701 b 468 979 749 885 651 979 l 363 979 b 76 717 172 979 76 890 b 382 424 76 494 204 447 l 454 414 b 589 282 544 401 589 376 b 463 157 589 179 533 157 l 376 157 b 251 250 306 157 258 179 b 221 279 250 268 238 279 l 96 279 b 68 250 76 279 68 268 b 351 -7 68 88 157 -7 z "},"Ş":{"ha":840,"x_min":0,"x_max":0,"o":"m 536 -4 b 772 282 699 11 772 104 b 453 567 772 507 628 544 l 382 576 b 260 708 281 589 260 638 b 375 815 260 788 304 815 l 451 815 b 565 721 522 815 558 789 b 596 692 567 701 578 692 l 721 692 b 749 721 740 692 749 701 b 468 979 749 885 651 979 l 363 979 b 76 717 172 979 76 890 b 382 424 76 494 204 447 l 454 414 b 589 282 544 401 589 376 b 463 157 589 179 533 157 l 376 157 b 251 250 306 157 258 179 b 221 279 250 268 238 279 l 96 279 b 68 250 76 279 68 268 b 351 -7 68 88 157 -7 l 383 -7 b 328 -82 344 -42 328 -56 b 383 -131 328 -115 353 -128 b 526 -165 504 -142 526 -144 b 486 -185 526 -181 510 -185 l 458 -185 b 422 -168 439 -185 428 -176 b 407 -154 421 -160 415 -154 l 300 -154 b 286 -172 289 -154 286 -161 b 408 -286 286 -240 317 -286 l 525 -286 b 663 -162 615 -286 663 -240 b 539 -42 663 -78 635 -51 b 536 -4 510 -39 481 -33 z "},"Ŝ":{"ha":840,"x_min":0,"x_max":0,"o":"m 349 1250 b 311 1231 333 1250 321 1244 l 168 1067 b 179 1040 157 1054 165 1040 l 310 1040 b 354 1067 331 1040 340 1051 l 415 1139 l 429 1139 l 490 1067 b 535 1040 504 1051 514 1040 l 664 1040 b 676 1067 678 1040 688 1054 l 533 1231 b 494 1250 522 1242 510 1250 z m 351 -7 l 486 -7 b 772 282 683 -7 772 86 b 453 567 772 507 628 544 l 382 576 b 260 708 281 589 260 638 b 375 815 260 788 304 815 l 451 815 b 565 721 522 815 558 789 b 596 692 567 701 578 692 l 721 692 b 749 721 740 692 749 701 b 468 979 749 885 651 979 l 363 979 b 76 717 172 979 76 890 b 382 424 76 494 204 447 l 454 414 b 589 282 544 401 589 376 b 463 157 589 179 533 157 l 376 157 b 251 250 306 157 258 179 b 221 279 250 268 238 279 l 96 279 b 68 250 76 279 68 268 b 351 -7 68 88 157 -7 z "},"Ș":{"ha":840,"x_min":0,"x_max":0,"o":"m 351 -7 l 486 -7 b 772 282 683 -7 772 86 b 453 567 772 507 628 544 l 382 576 b 260 708 281 589 260 638 b 375 815 260 788 304 815 l 451 815 b 565 721 522 815 558 789 b 596 692 567 701 578 692 l 721 692 b 749 721 740 692 749 701 b 468 979 749 885 651 979 l 363 979 b 76 717 172 979 76 890 b 382 424 76 494 204 447 l 454 414 b 589 282 544 401 589 376 b 463 157 589 179 533 157 l 376 157 b 251 250 306 157 258 179 b 221 279 250 268 238 279 l 96 279 b 68 250 76 279 68 268 b 351 -7 68 88 157 -7 z m 475 -83 l 360 -83 b 339 -104 346 -83 339 -90 l 339 -347 l 276 -347 b 256 -368 263 -347 256 -354 l 256 -475 b 276 -497 256 -489 263 -497 l 444 -497 b 496 -444 478 -497 496 -479 l 496 -104 b 475 -83 496 -90 489 -83 z "},"T":{"ha":761,"x_min":0,"x_max":0,"o":"m 679 972 l 82 972 b 61 951 68 972 61 965 l 61 829 b 82 808 61 815 68 808 l 290 808 l 290 21 b 311 0 290 7 297 0 l 451 0 b 474 21 465 0 474 7 l 474 808 l 679 808 b 700 829 693 808 700 815 l 700 951 b 679 972 700 965 693 972 z "},"Ŧ":{"ha":767,"x_min":0,"x_max":0,"o":"m 679 972 l 82 972 b 61 951 68 972 61 965 l 61 829 b 82 808 61 815 68 808 l 290 808 l 290 625 l 157 625 b 136 604 143 625 136 618 l 136 486 b 157 465 136 472 143 465 l 290 465 l 290 21 b 311 0 290 7 297 0 l 451 0 b 474 21 465 0 474 7 l 474 465 l 607 465 b 628 486 619 465 628 472 l 628 604 b 607 625 628 618 619 625 l 474 625 l 474 808 l 679 808 b 700 829 693 808 700 815 l 700 951 b 679 972 700 965 693 972 z "},"Ť":{"ha":761,"x_min":0,"x_max":0,"o":"m 271 1060 b 308 1040 281 1046 293 1040 l 454 1040 b 493 1060 469 1040 482 1047 l 636 1222 b 624 1250 647 1236 638 1250 l 494 1250 b 450 1222 474 1250 464 1239 l 389 1151 l 375 1151 l 314 1222 b 269 1250 300 1239 290 1250 l 139 1250 b 128 1222 125 1250 117 1236 z m 679 972 l 82 972 b 61 951 68 972 61 965 l 61 829 b 82 808 61 815 68 808 l 290 808 l 290 21 b 311 0 290 7 297 0 l 451 0 b 474 21 465 0 474 7 l 474 808 l 679 808 b 700 829 693 808 700 815 l 700 951 b 679 972 700 965 693 972 z "},"Ţ":{"ha":761,"x_min":0,"x_max":0,"o":"m 679 972 l 82 972 b 61 951 68 972 61 965 l 61 829 b 82 808 61 815 68 808 l 290 808 l 290 21 b 311 0 290 7 297 0 l 353 0 b 290 -82 310 -40 290 -54 b 346 -131 290 -115 315 -128 b 489 -165 467 -142 489 -144 b 449 -185 489 -181 472 -185 l 421 -185 b 385 -168 401 -185 390 -176 b 369 -154 383 -160 378 -154 l 263 -154 b 249 -172 251 -154 249 -161 b 371 -286 249 -240 279 -286 l 488 -286 b 625 -162 578 -286 625 -240 b 501 -42 625 -78 597 -51 b 508 0 471 -39 440 -33 l 451 0 b 474 21 465 0 474 7 l 474 808 l 679 808 b 700 829 693 808 700 815 l 700 951 b 679 972 700 965 693 972 z "},"Ț":{"ha":761,"x_min":0,"x_max":0,"o":"m 679 972 l 82 972 b 61 951 68 972 61 965 l 61 829 b 82 808 61 815 68 808 l 290 808 l 290 21 b 311 0 290 7 297 0 l 451 0 b 474 21 465 0 474 7 l 474 808 l 679 808 b 700 829 693 808 700 815 l 700 951 b 679 972 700 965 693 972 z m 438 -83 l 322 -83 b 301 -104 308 -83 301 -90 l 301 -347 l 239 -347 b 218 -368 225 -347 218 -354 l 218 -475 b 239 -497 218 -489 225 -497 l 407 -497 b 458 -444 440 -497 458 -479 l 458 -104 b 438 -83 458 -90 451 -83 z "},"U":{"ha":901,"x_min":0,"x_max":0,"o":"m 374 -7 l 528 -7 b 813 279 731 -7 813 104 l 813 951 b 792 972 813 965 806 972 l 650 972 b 629 951 636 972 629 965 l 629 283 b 513 157 629 186 586 157 l 389 157 b 272 283 315 157 272 186 l 272 951 b 251 972 272 965 265 972 l 110 972 b 89 951 96 972 89 965 l 89 279 b 374 -7 89 104 172 -7 z "},"Ú":{"ha":901,"x_min":0,"x_max":0,"o":"m 454 1225 l 386 1065 b 400 1040 378 1049 385 1040 l 515 1040 b 550 1065 529 1040 540 1051 l 672 1225 b 658 1250 685 1240 674 1250 l 483 1250 b 454 1225 469 1250 463 1242 z m 374 -7 l 528 -7 b 813 279 731 -7 813 104 l 813 951 b 792 972 813 965 806 972 l 650 972 b 629 951 636 972 629 965 l 629 283 b 513 157 629 186 586 157 l 389 157 b 272 283 315 157 272 186 l 272 951 b 251 972 272 965 265 972 l 110 972 b 89 951 96 972 89 965 l 89 279 b 374 -7 89 104 172 -7 z "},"Ŭ":{"ha":901,"x_min":0,"x_max":0,"o":"m 407 1028 l 494 1028 b 689 1228 628 1028 689 1093 b 667 1250 689 1243 681 1250 l 564 1250 b 542 1228 550 1250 544 1243 b 468 1150 538 1188 525 1150 l 432 1150 b 358 1228 375 1150 364 1188 b 338 1250 357 1243 351 1250 l 233 1250 b 213 1228 219 1250 213 1243 b 407 1028 213 1093 274 1028 z m 374 -7 l 528 -7 b 813 279 731 -7 813 104 l 813 951 b 792 972 813 965 806 972 l 650 972 b 629 951 636 972 629 965 l 629 283 b 513 157 629 186 586 157 l 389 157 b 272 283 315 157 272 186 l 272 951 b 251 972 272 965 265 972 l 110 972 b 89 951 96 972 89 965 l 89 279 b 374 -7 89 104 172 -7 z "},"Û":{"ha":901,"x_min":0,"x_max":0,"o":"m 379 1250 b 342 1231 364 1250 351 1244 l 199 1067 b 210 1040 188 1054 196 1040 l 340 1040 b 385 1067 361 1040 371 1051 l 446 1139 l 460 1139 l 521 1067 b 565 1040 535 1051 544 1040 l 694 1040 b 707 1067 708 1040 718 1054 l 564 1231 b 525 1250 553 1242 540 1250 z m 374 -7 l 528 -7 b 813 279 731 -7 813 104 l 813 951 b 792 972 813 965 806 972 l 650 972 b 629 951 636 972 629 965 l 629 283 b 513 157 629 186 586 157 l 389 157 b 272 283 315 157 272 186 l 272 951 b 251 972 272 965 265 972 l 110 972 b 89 951 96 972 89 965 l 89 279 b 374 -7 89 104 172 -7 z "},"Ü":{"ha":901,"x_min":0,"x_max":0,"o":"m 178 1067 l 319 1067 b 340 1088 333 1067 340 1074 l 340 1229 b 319 1250 340 1243 333 1250 l 178 1250 b 157 1229 164 1250 157 1243 l 157 1088 b 178 1067 157 1074 164 1067 z m 583 1067 l 725 1067 b 746 1088 739 1067 746 1074 l 746 1229 b 725 1250 746 1243 739 1250 l 583 1250 b 563 1229 569 1250 563 1243 l 563 1088 b 583 1067 563 1074 569 1067 z m 374 -7 l 528 -7 b 813 279 731 -7 813 104 l 813 951 b 792 972 813 965 806 972 l 650 972 b 629 951 636 972 629 965 l 629 283 b 513 157 629 186 586 157 l 389 157 b 272 283 315 157 272 186 l 272 951 b 251 972 272 965 265 972 l 110 972 b 89 951 96 972 89 965 l 89 279 b 374 -7 89 104 172 -7 z "},"Ù":{"ha":901,"x_min":0,"x_max":0,"o":"m 456 1225 b 426 1250 447 1242 440 1250 l 251 1250 b 238 1225 236 1250 225 1240 l 361 1065 b 394 1040 369 1051 381 1040 l 510 1040 b 524 1065 526 1040 532 1049 z m 374 -7 l 528 -7 b 813 279 731 -7 813 104 l 813 951 b 792 972 813 965 806 972 l 650 972 b 629 951 636 972 629 965 l 629 283 b 513 157 629 186 586 157 l 389 157 b 272 283 315 157 272 186 l 272 951 b 251 972 272 965 265 972 l 110 972 b 89 951 96 972 89 965 l 89 279 b 374 -7 89 104 172 -7 z "},"Ű":{"ha":901,"x_min":0,"x_max":0,"o":"m 308 1225 l 240 1065 b 254 1040 232 1049 239 1040 l 369 1040 b 404 1065 383 1040 394 1051 l 526 1225 b 513 1250 539 1240 528 1250 l 338 1250 b 308 1225 324 1250 317 1242 z m 585 1225 l 517 1065 b 531 1040 508 1049 514 1040 l 646 1040 b 679 1065 660 1040 671 1051 l 803 1225 b 789 1250 815 1240 804 1250 l 614 1250 b 585 1225 600 1250 593 1242 z m 374 -7 l 528 -7 b 813 279 731 -7 813 104 l 813 951 b 792 972 813 965 806 972 l 650 972 b 629 951 636 972 629 965 l 629 283 b 513 157 629 186 586 157 l 389 157 b 272 283 315 157 272 186 l 272 951 b 251 972 272 965 265 972 l 110 972 b 89 951 96 972 89 965 l 89 279 b 374 -7 89 104 172 -7 z "},"Ū":{"ha":901,"x_min":0,"x_max":0,"o":"m 226 1089 l 676 1089 b 697 1110 689 1089 697 1096 l 697 1229 b 676 1250 697 1243 689 1250 l 226 1250 b 206 1229 213 1250 206 1243 l 206 1110 b 226 1089 206 1096 213 1089 z m 374 -7 l 528 -7 b 813 279 731 -7 813 104 l 813 951 b 792 972 813 965 806 972 l 650 972 b 629 951 636 972 629 965 l 629 283 b 513 157 629 186 586 157 l 389 157 b 272 283 315 157 272 186 l 272 951 b 251 972 272 965 265 972 l 110 972 b 89 951 96 972 89 965 l 89 279 b 374 -7 89 104 172 -7 z "},"Ų":{"ha":901,"x_min":0,"x_max":0,"o":"m 792 972 l 650 972 b 629 951 636 972 629 965 l 629 283 b 513 157 629 186 586 157 l 389 157 b 272 283 315 157 272 186 l 272 951 b 251 972 272 965 265 972 l 110 972 b 89 951 96 972 89 965 l 89 279 b 374 -7 89 104 172 -7 l 407 -7 b 358 -37 406 -36 388 -35 l 307 -43 b 208 -161 231 -51 208 -69 b 351 -287 208 -268 240 -287 l 550 -287 b 564 -274 560 -287 564 -282 l 564 -187 b 550 -171 564 -178 558 -171 l 385 -171 b 368 -158 372 -171 368 -167 b 385 -143 368 -149 371 -144 l 485 -132 b 585 -50 551 -122 585 -118 l 585 -4 b 813 279 746 15 813 122 l 813 951 b 792 972 813 965 806 972 z "},"Ů":{"ha":901,"x_min":0,"x_max":0,"o":"m 460 1272 l 442 1272 b 325 1156 374 1272 325 1221 l 325 1140 b 442 1025 325 1075 374 1025 l 460 1025 b 576 1140 528 1025 576 1075 l 576 1156 b 460 1272 576 1221 528 1272 z m 483 1154 l 483 1144 b 457 1118 483 1131 472 1118 l 444 1118 b 419 1144 431 1118 419 1131 l 419 1154 b 444 1179 419 1167 431 1179 l 457 1179 b 483 1154 472 1179 483 1167 z m 374 -7 l 528 -7 b 813 279 731 -7 813 104 l 813 951 b 792 972 813 965 806 972 l 650 972 b 629 951 636 972 629 965 l 629 283 b 513 157 629 186 586 157 l 389 157 b 272 283 315 157 272 186 l 272 951 b 251 972 272 965 265 972 l 110 972 b 89 951 96 972 89 965 l 89 279 b 374 -7 89 104 172 -7 z "},"Ũ":{"ha":901,"x_min":0,"x_max":0,"o":"m 543 1046 b 683 1094 590 1046 633 1056 b 697 1126 694 1103 703 1111 l 658 1222 b 632 1231 654 1231 646 1238 b 547 1201 597 1211 582 1201 b 363 1257 478 1201 458 1257 b 221 1210 315 1257 272 1247 b 208 1176 210 1200 203 1192 l 247 1081 b 274 1075 251 1072 260 1067 b 358 1101 306 1094 324 1101 b 543 1046 426 1101 446 1046 z m 374 -7 l 528 -7 b 813 279 731 -7 813 104 l 813 951 b 792 972 813 965 806 972 l 650 972 b 629 951 636 972 629 965 l 629 283 b 513 157 629 186 586 157 l 389 157 b 272 283 315 157 272 186 l 272 951 b 251 972 272 965 265 972 l 110 972 b 89 951 96 972 89 965 l 89 279 b 374 -7 89 104 172 -7 z "},"V":{"ha":869,"x_min":0,"x_max":0,"o":"m 318 0 l 553 0 b 579 22 565 0 575 8 l 821 944 b 803 972 825 960 817 972 l 663 972 b 635 944 649 972 639 960 l 446 208 l 425 208 l 235 944 b 208 972 231 960 222 972 l 67 972 b 49 944 53 972 44 960 l 292 22 b 318 0 296 8 306 0 z "},"W":{"ha":1315,"x_min":0,"x_max":0,"o":"m 1250 972 l 1108 972 b 1082 944 1094 972 1085 960 l 936 210 l 918 210 l 758 944 b 732 972 757 960 746 972 l 583 972 b 556 944 569 972 558 960 l 397 210 l 378 210 l 233 944 b 206 972 231 960 219 972 l 65 972 b 47 944 51 972 44 960 l 236 22 b 264 0 239 8 251 0 l 499 0 b 526 22 511 0 524 8 l 649 653 l 667 653 l 789 22 b 815 0 792 8 803 0 l 1051 0 b 1078 22 1064 0 1075 8 l 1268 944 b 1250 972 1271 960 1264 972 z "},"Ẃ":{"ha":1263,"x_min":0,"x_max":0,"o":"m 635 1261 l 567 1101 b 581 1076 558 1085 565 1076 l 696 1076 b 731 1101 710 1076 721 1088 l 853 1261 b 839 1286 865 1276 854 1286 l 664 1286 b 635 1261 650 1286 643 1278 z m 1250 972 l 1108 972 b 1082 944 1094 972 1085 960 l 936 210 l 918 210 l 758 944 b 732 972 757 960 746 972 l 583 972 b 556 944 569 972 558 960 l 397 210 l 378 210 l 233 944 b 206 972 231 960 219 972 l 65 972 b 47 944 51 972 44 960 l 236 22 b 264 0 239 8 251 0 l 499 0 b 526 22 511 0 524 8 l 649 653 l 667 653 l 789 22 b 815 0 792 8 803 0 l 1051 0 b 1078 22 1064 0 1075 8 l 1268 944 b 1250 972 1271 960 1264 972 z "},"Ŵ":{"ha":1263,"x_min":0,"x_max":0,"o":"m 554 1286 b 517 1267 539 1286 528 1281 l 374 1103 b 386 1076 363 1090 372 1076 l 515 1076 b 560 1103 536 1076 546 1088 l 621 1175 l 635 1175 l 696 1103 b 740 1076 710 1088 719 1076 l 869 1076 b 882 1103 883 1076 893 1090 l 739 1267 b 700 1286 728 1278 715 1286 z m 1250 972 l 1108 972 b 1082 944 1094 972 1085 960 l 936 210 l 918 210 l 758 944 b 732 972 757 960 746 972 l 583 972 b 556 944 569 972 558 960 l 397 210 l 378 210 l 233 944 b 206 972 231 960 219 972 l 65 972 b 47 944 51 972 44 960 l 236 22 b 264 0 239 8 251 0 l 499 0 b 526 22 511 0 524 8 l 649 653 l 667 653 l 789 22 b 815 0 792 8 803 0 l 1051 0 b 1078 22 1064 0 1075 8 l 1268 944 b 1250 972 1271 960 1264 972 z "},"Ẅ":{"ha":1263,"x_min":0,"x_max":0,"o":"m 410 1103 l 551 1103 b 572 1124 565 1103 572 1110 l 572 1265 b 551 1286 572 1279 565 1286 l 410 1286 b 389 1265 396 1286 389 1279 l 389 1124 b 410 1103 389 1110 396 1103 z m 815 1103 l 956 1103 b 978 1124 969 1103 978 1110 l 978 1265 b 956 1286 978 1279 969 1286 l 815 1286 b 794 1265 801 1286 794 1279 l 794 1124 b 815 1103 794 1110 801 1103 z m 1250 972 l 1108 972 b 1082 944 1094 972 1085 960 l 936 210 l 918 210 l 758 944 b 732 972 757 960 746 972 l 583 972 b 556 944 569 972 558 960 l 397 210 l 378 210 l 233 944 b 206 972 231 960 219 972 l 65 972 b 47 944 51 972 44 960 l 236 22 b 264 0 239 8 251 0 l 499 0 b 526 22 511 0 524 8 l 649 653 l 667 653 l 789 22 b 815 0 792 8 803 0 l 1051 0 b 1078 22 1064 0 1075 8 l 1268 944 b 1250 972 1271 960 1264 972 z "},"Ẁ":{"ha":1263,"x_min":0,"x_max":0,"o":"m 636 1261 b 607 1286 628 1278 621 1286 l 432 1286 b 418 1261 417 1286 406 1276 l 540 1101 b 575 1076 550 1088 561 1076 l 690 1076 b 704 1101 706 1076 713 1085 z m 1250 972 l 1108 972 b 1082 944 1094 972 1085 960 l 936 210 l 918 210 l 758 944 b 732 972 757 960 746 972 l 583 972 b 556 944 569 972 558 960 l 397 210 l 378 210 l 233 944 b 206 972 231 960 219 972 l 65 972 b 47 944 51 972 44 960 l 236 22 b 264 0 239 8 251 0 l 499 0 b 526 22 511 0 524 8 l 649 653 l 667 653 l 789 22 b 815 0 792 8 803 0 l 1051 0 b 1078 22 1064 0 1075 8 l 1268 944 b 1250 972 1271 960 1264 972 z "},"X":{"ha":828,"x_min":0,"x_max":0,"o":"m 82 0 l 228 0 b 256 19 243 0 247 6 l 408 308 l 422 308 l 575 19 b 603 0 582 6 589 0 l 749 0 b 763 26 764 0 771 8 l 511 486 l 761 946 b 747 972 769 964 763 972 l 600 972 b 572 953 586 972 578 967 l 422 664 l 408 664 l 258 953 b 231 972 251 967 244 972 l 85 972 b 68 946 69 972 60 964 l 318 486 l 67 26 b 82 0 58 8 67 0 z "},"Y":{"ha":839,"x_min":0,"x_max":0,"o":"m 772 972 l 628 972 b 599 951 613 972 606 967 l 425 565 l 414 565 l 240 951 b 210 972 233 967 225 972 l 67 972 b 50 946 50 972 42 964 l 328 354 l 328 21 b 349 0 328 7 335 0 l 489 0 b 511 21 503 0 511 7 l 511 354 l 789 946 b 772 972 797 964 788 972 z "},"Ý":{"ha":839,"x_min":0,"x_max":0,"o":"m 368 1040 l 483 1040 b 518 1065 497 1040 508 1051 l 640 1225 b 626 1250 653 1240 642 1250 l 451 1250 b 422 1225 438 1250 431 1242 l 354 1065 b 368 1040 346 1049 353 1040 z m 772 972 l 628 972 b 599 951 613 972 606 967 l 425 565 l 414 565 l 240 951 b 210 972 233 967 225 972 l 67 972 b 50 946 50 972 42 964 l 328 354 l 328 21 b 349 0 328 7 335 0 l 489 0 b 511 21 503 0 511 7 l 511 354 l 789 946 b 772 972 797 964 788 972 z "},"Ŷ":{"ha":839,"x_min":0,"x_max":0,"o":"m 178 1040 l 308 1040 b 353 1067 329 1040 339 1051 l 414 1139 l 428 1139 l 489 1067 b 533 1040 503 1051 513 1040 l 663 1040 b 675 1067 676 1040 686 1054 l 532 1231 b 493 1250 521 1242 508 1250 l 347 1250 b 310 1231 332 1250 319 1244 l 167 1067 b 178 1040 156 1054 164 1040 z m 772 972 l 628 972 b 599 951 613 972 606 967 l 425 565 l 414 565 l 240 951 b 210 972 233 967 225 972 l 67 972 b 50 946 50 972 42 964 l 328 354 l 328 21 b 349 0 328 7 335 0 l 489 0 b 511 21 503 0 511 7 l 511 354 l 789 946 b 772 972 797 964 788 972 z "},"Ÿ":{"ha":839,"x_min":0,"x_max":0,"o":"m 146 1067 l 288 1067 b 308 1088 301 1067 308 1074 l 308 1229 b 288 1250 308 1243 301 1250 l 146 1250 b 125 1229 132 1250 125 1243 l 125 1088 b 146 1067 125 1074 132 1067 z m 551 1067 l 693 1067 b 714 1088 707 1067 714 1074 l 714 1229 b 693 1250 714 1243 707 1250 l 551 1250 b 531 1229 538 1250 531 1243 l 531 1088 b 551 1067 531 1074 538 1067 z m 772 972 l 628 972 b 599 951 613 972 606 967 l 425 565 l 414 565 l 240 951 b 210 972 233 967 225 972 l 67 972 b 50 946 50 972 42 964 l 328 354 l 328 21 b 349 0 328 7 335 0 l 489 0 b 511 21 503 0 511 7 l 511 354 l 789 946 b 772 972 797 964 788 972 z "},"Ỳ":{"ha":839,"x_min":0,"x_max":0,"o":"m 329 1065 b 363 1040 338 1051 349 1040 l 478 1040 b 492 1065 494 1040 500 1049 l 424 1225 b 394 1250 415 1242 408 1250 l 219 1250 b 206 1225 204 1250 193 1240 z m 772 972 l 628 972 b 599 951 613 972 606 967 l 425 565 l 414 565 l 240 951 b 210 972 233 967 225 972 l 67 972 b 50 946 50 972 42 964 l 328 354 l 328 21 b 349 0 328 7 335 0 l 489 0 b 511 21 503 0 511 7 l 511 354 l 789 946 b 772 972 797 964 788 972 z "},"Z":{"ha":739,"x_min":0,"x_max":0,"o":"m 82 0 l 657 0 b 678 21 671 0 678 7 l 678 143 b 657 164 678 157 671 164 l 256 164 l 256 178 l 660 771 b 678 828 676 794 678 813 l 678 951 b 657 972 678 965 671 972 l 89 972 b 67 951 75 972 67 965 l 67 829 b 89 808 67 815 75 808 l 482 808 l 482 796 l 79 201 b 61 144 64 178 61 160 l 61 21 b 82 0 61 7 68 0 z "},"Ź":{"ha":739,"x_min":0,"x_max":0,"o":"m 374 1225 l 306 1065 b 319 1040 297 1049 304 1040 l 435 1040 b 469 1065 449 1040 460 1051 l 592 1225 b 578 1250 604 1240 593 1250 l 403 1250 b 374 1225 389 1250 382 1242 z m 82 0 l 657 0 b 678 21 671 0 678 7 l 678 143 b 657 164 678 157 671 164 l 256 164 l 256 178 l 660 771 b 678 828 676 794 678 813 l 678 951 b 657 972 678 965 671 972 l 89 972 b 67 951 75 972 67 965 l 67 829 b 89 808 67 815 75 808 l 482 808 l 482 796 l 79 201 b 61 144 64 178 61 160 l 61 21 b 82 0 61 7 68 0 z "},"Ž":{"ha":739,"x_min":0,"x_max":0,"o":"m 297 1040 l 443 1040 b 482 1060 458 1040 471 1047 l 625 1222 b 613 1250 636 1236 626 1250 l 483 1250 b 439 1222 463 1250 453 1239 l 378 1151 l 364 1151 l 303 1222 b 258 1250 289 1239 279 1250 l 128 1250 b 117 1222 114 1250 106 1236 l 260 1060 b 297 1040 269 1046 282 1040 z m 82 0 l 657 0 b 678 21 671 0 678 7 l 678 143 b 657 164 678 157 671 164 l 256 164 l 256 178 l 660 771 b 678 828 676 794 678 813 l 678 951 b 657 972 678 965 671 972 l 89 972 b 67 951 75 972 67 965 l 67 829 b 89 808 67 815 75 808 l 482 808 l 482 796 l 79 201 b 61 144 64 178 61 160 l 61 21 b 82 0 61 7 68 0 z "},"Ż":{"ha":739,"x_min":0,"x_max":0,"o":"m 299 1067 l 440 1067 b 461 1088 454 1067 461 1074 l 461 1229 b 440 1250 461 1243 454 1250 l 299 1250 b 278 1229 285 1250 278 1243 l 278 1088 b 299 1067 278 1074 285 1067 z m 82 0 l 657 0 b 678 21 671 0 678 7 l 678 143 b 657 164 678 157 671 164 l 256 164 l 256 178 l 660 771 b 678 828 676 794 678 813 l 678 951 b 657 972 678 965 671 972 l 89 972 b 67 951 75 972 67 965 l 67 829 b 89 808 67 815 75 808 l 482 808 l 482 796 l 79 201 b 61 144 64 178 61 160 l 61 21 b 82 0 61 7 68 0 z "},"a":{"ha":735,"x_min":0,"x_max":0,"o":"m 400 700 l 364 700 b 146 667 269 700 192 683 b 132 640 135 663 128 651 l 150 543 b 176 526 153 528 161 522 b 328 543 211 536 278 543 b 474 456 440 543 474 515 l 474 419 l 279 419 b 61 242 131 419 61 365 l 61 197 b 261 -7 61 69 126 -7 l 274 -7 b 457 86 363 -7 414 35 l 474 86 l 474 22 b 494 0 474 7 481 0 l 631 0 b 653 22 644 0 653 7 l 653 464 b 400 700 653 610 579 700 z m 368 146 l 306 146 b 236 204 264 146 236 160 l 236 232 b 304 292 236 282 263 292 l 474 292 l 474 242 b 368 146 474 196 442 146 z "},"á":{"ha":735,"x_min":0,"x_max":0,"o":"m 331 763 l 446 763 b 481 788 460 763 471 774 l 603 947 b 589 972 615 963 604 972 l 414 972 b 385 947 400 972 393 964 l 317 788 b 331 763 308 771 315 763 z m 400 700 l 364 700 b 146 667 269 700 192 683 b 132 640 135 663 128 651 l 150 543 b 176 526 153 528 161 522 b 328 543 211 536 278 543 b 474 456 440 543 474 515 l 474 419 l 279 419 b 61 242 131 419 61 365 l 61 197 b 261 -7 61 69 126 -7 l 274 -7 b 457 86 363 -7 414 35 l 474 86 l 474 22 b 494 0 474 7 481 0 l 631 0 b 653 22 644 0 653 7 l 653 464 b 400 700 653 610 579 700 z m 368 146 l 306 146 b 236 204 264 146 236 160 l 236 232 b 304 292 236 282 263 292 l 474 292 l 474 242 b 368 146 474 196 442 146 z "},"ă":{"ha":735,"x_min":0,"x_max":0,"o":"m 336 750 l 424 750 b 618 950 557 750 618 815 b 596 972 618 965 610 972 l 493 972 b 471 950 479 972 474 965 b 397 872 467 910 454 872 l 361 872 b 288 950 304 872 293 910 b 267 972 286 965 281 972 l 163 972 b 142 950 149 972 142 965 b 336 750 142 815 203 750 z m 400 700 l 364 700 b 146 667 269 700 192 683 b 132 640 135 663 128 651 l 150 543 b 176 526 153 528 161 522 b 328 543 211 536 278 543 b 474 456 440 543 474 515 l 474 419 l 279 419 b 61 242 131 419 61 365 l 61 197 b 261 -7 61 69 126 -7 l 274 -7 b 457 86 363 -7 414 35 l 474 86 l 474 22 b 494 0 474 7 481 0 l 631 0 b 653 22 644 0 653 7 l 653 464 b 400 700 653 610 579 700 z m 368 146 l 306 146 b 236 204 264 146 236 160 l 236 232 b 304 292 236 282 263 292 l 474 292 l 474 242 b 368 146 474 196 442 146 z "},"ǎ":{"ha":735,"x_min":0,"x_max":0,"o":"m 269 782 b 307 763 279 768 292 763 l 453 763 b 492 782 468 763 481 769 l 635 944 b 622 972 646 958 636 972 l 493 972 b 449 944 472 972 463 961 l 388 874 l 374 874 l 313 944 b 268 972 299 961 289 972 l 138 972 b 126 944 124 972 115 958 z m 400 700 l 364 700 b 146 667 269 700 192 683 b 132 640 135 663 128 651 l 150 543 b 176 526 153 528 161 522 b 328 543 211 536 278 543 b 474 456 440 543 474 515 l 474 419 l 279 419 b 61 242 131 419 61 365 l 61 197 b 261 -7 61 69 126 -7 l 274 -7 b 457 86 363 -7 414 35 l 474 86 l 474 22 b 494 0 474 7 481 0 l 631 0 b 653 22 644 0 653 7 l 653 464 b 400 700 653 610 579 700 z m 368 146 l 306 146 b 236 204 264 146 236 160 l 236 232 b 304 292 236 282 263 292 l 474 292 l 474 242 b 368 146 474 196 442 146 z "},"â":{"ha":735,"x_min":0,"x_max":0,"o":"m 140 763 l 271 763 b 315 789 292 763 301 774 l 376 861 l 390 861 l 451 789 b 496 763 465 774 475 763 l 625 763 b 638 789 639 763 649 776 l 494 953 b 456 972 483 964 471 972 l 310 972 b 272 953 294 972 282 967 l 129 789 b 140 763 118 776 126 763 z m 400 700 l 364 700 b 146 667 269 700 192 683 b 132 640 135 663 128 651 l 150 543 b 176 526 153 528 161 522 b 328 543 211 536 278 543 b 474 456 440 543 474 515 l 474 419 l 279 419 b 61 242 131 419 61 365 l 61 197 b 261 -7 61 69 126 -7 l 274 -7 b 457 86 363 -7 414 35 l 474 86 l 474 22 b 494 0 474 7 481 0 l 631 0 b 653 22 644 0 653 7 l 653 464 b 400 700 653 610 579 700 z m 368 146 l 306 146 b 236 204 264 146 236 160 l 236 232 b 304 292 236 282 263 292 l 474 292 l 474 242 b 368 146 474 196 442 146 z "},"ä":{"ha":735,"x_min":0,"x_max":0,"o":"m 107 789 l 249 789 b 269 810 263 789 269 796 l 269 951 b 249 972 269 965 263 972 l 107 972 b 86 951 93 972 86 965 l 86 810 b 107 789 86 796 93 789 z m 654 972 l 513 972 b 492 951 499 972 492 965 l 492 810 b 513 789 492 796 499 789 l 654 789 b 675 810 668 789 675 796 l 675 951 b 654 972 675 965 668 972 z m 400 700 l 364 700 b 146 667 269 700 192 683 b 132 640 135 663 128 651 l 150 543 b 176 526 153 528 161 522 b 328 543 211 536 278 543 b 474 456 440 543 474 515 l 474 419 l 279 419 b 61 242 131 419 61 365 l 61 197 b 261 -7 61 69 126 -7 l 274 -7 b 457 86 363 -7 414 35 l 474 86 l 474 22 b 494 0 474 7 481 0 l 631 0 b 653 22 644 0 653 7 l 653 464 b 400 700 653 610 579 700 z m 368 146 l 306 146 b 236 204 264 146 236 160 l 236 232 b 304 292 236 282 263 292 l 474 292 l 474 242 b 368 146 474 196 442 146 z "},"à":{"ha":735,"x_min":0,"x_max":0,"o":"m 290 788 b 324 763 299 774 310 763 l 439 763 b 453 788 456 763 461 771 l 385 947 b 356 972 376 964 369 972 l 181 972 b 167 947 165 972 154 963 z m 400 700 l 364 700 b 146 667 269 700 192 683 b 132 640 135 663 128 651 l 150 543 b 176 526 153 528 161 522 b 328 543 211 536 278 543 b 474 456 440 543 474 515 l 474 419 l 279 419 b 61 242 131 419 61 365 l 61 197 b 261 -7 61 69 126 -7 l 274 -7 b 457 86 363 -7 414 35 l 474 86 l 474 22 b 494 0 474 7 481 0 l 631 0 b 653 22 644 0 653 7 l 653 464 b 400 700 653 610 579 700 z m 368 146 l 306 146 b 236 204 264 146 236 160 l 236 232 b 304 292 236 282 263 292 l 474 292 l 474 242 b 368 146 474 196 442 146 z "},"ā":{"ha":735,"x_min":0,"x_max":0,"o":"m 156 811 l 606 811 b 626 832 618 811 626 818 l 626 951 b 606 972 626 965 618 972 l 156 972 b 135 951 142 972 135 965 l 135 832 b 156 811 135 818 142 811 z m 400 700 l 364 700 b 146 667 269 700 192 683 b 132 640 135 663 128 651 l 150 543 b 176 526 153 528 161 522 b 328 543 211 536 278 543 b 474 456 440 543 474 515 l 474 419 l 279 419 b 61 242 131 419 61 365 l 61 197 b 261 -7 61 69 126 -7 l 274 -7 b 457 86 363 -7 414 35 l 474 86 l 474 22 b 494 0 474 7 481 0 l 631 0 b 653 22 644 0 653 7 l 653 464 b 400 700 653 610 579 700 z m 368 146 l 306 146 b 236 204 264 146 236 160 l 236 232 b 304 292 236 282 263 292 l 474 292 l 474 242 b 368 146 474 196 442 146 z "},"ą":{"ha":735,"x_min":0,"x_max":0,"o":"m 653 464 b 400 700 653 610 579 700 l 364 700 b 146 667 269 700 192 683 b 132 640 135 663 128 651 l 150 543 b 176 526 153 528 161 522 b 328 543 211 536 278 543 b 474 456 440 543 474 515 l 474 419 l 279 419 b 61 242 131 419 61 365 l 61 197 b 261 -7 61 69 126 -7 l 274 -7 b 457 86 363 -7 414 35 l 474 86 l 474 -3 b 425 -37 474 -36 456 -35 l 374 -43 b 275 -161 297 -51 275 -69 b 418 -287 275 -268 307 -287 l 617 -287 b 631 -274 626 -287 631 -282 l 631 -187 b 617 -171 631 -178 625 -171 l 451 -171 b 435 -158 439 -171 435 -167 b 451 -143 435 -149 438 -144 l 551 -132 b 651 -50 618 -122 651 -118 l 651 13 b 653 22 653 15 653 18 z m 368 146 l 306 146 b 236 204 264 146 236 160 l 236 232 b 304 292 236 282 263 292 l 474 292 l 474 242 b 368 146 474 196 442 146 z "},"å":{"ha":735,"x_min":0,"x_max":0,"o":"m 371 747 l 389 747 b 506 863 457 747 506 797 l 506 878 b 389 994 506 943 457 994 l 371 994 b 254 878 303 994 254 943 l 254 863 b 371 747 254 797 303 747 z m 349 876 b 374 901 349 889 360 901 l 386 901 b 413 876 401 901 413 889 l 413 867 b 386 840 413 853 401 840 l 374 840 b 349 867 360 840 349 853 z m 400 700 l 364 700 b 146 667 269 700 192 683 b 132 640 135 663 128 651 l 150 543 b 176 526 153 528 161 522 b 328 543 211 536 278 543 b 474 456 440 543 474 515 l 474 419 l 279 419 b 61 242 131 419 61 365 l 61 197 b 261 -7 61 69 126 -7 l 274 -7 b 457 86 363 -7 414 35 l 474 86 l 474 22 b 494 0 474 7 481 0 l 631 0 b 653 22 644 0 653 7 l 653 464 b 400 700 653 610 579 700 z m 368 146 l 306 146 b 236 204 264 146 236 160 l 236 232 b 304 292 236 282 263 292 l 474 292 l 474 242 b 368 146 474 196 442 146 z "},"ã":{"ha":735,"x_min":0,"x_max":0,"o":"m 176 803 b 203 797 181 794 189 789 b 288 824 235 817 253 824 b 472 768 356 824 375 768 b 613 817 519 768 563 778 b 626 849 624 825 632 833 l 588 944 b 561 953 583 953 575 960 b 476 924 526 933 511 924 b 292 979 407 924 388 979 b 150 932 244 979 201 969 b 138 899 139 922 132 914 z m 400 700 l 364 700 b 146 667 269 700 192 683 b 132 640 135 663 128 651 l 150 543 b 176 526 153 528 161 522 b 328 543 211 536 278 543 b 474 456 440 543 474 515 l 474 419 l 279 419 b 61 242 131 419 61 365 l 61 197 b 261 -7 61 69 126 -7 l 274 -7 b 457 86 363 -7 414 35 l 474 86 l 474 22 b 494 0 474 7 481 0 l 631 0 b 653 22 644 0 653 7 l 653 464 b 400 700 653 610 579 700 z m 368 146 l 306 146 b 236 204 264 146 236 160 l 236 232 b 304 292 236 282 263 292 l 474 292 l 474 242 b 368 146 474 196 442 146 z "},"æ":{"ha":1124,"x_min":0,"x_max":0,"o":"m 800 700 l 728 700 b 565 660 658 700 604 686 b 400 700 525 686 471 700 l 364 700 b 146 667 269 700 192 683 b 132 640 135 663 128 651 l 150 543 b 176 526 153 528 161 522 b 328 543 211 536 278 543 b 474 442 440 543 474 507 l 474 404 l 279 404 b 61 233 131 404 61 354 l 61 192 b 261 -7 61 69 126 -7 l 274 -7 b 508 97 372 -7 461 19 b 764 -7 550 32 629 -7 l 785 -7 b 1029 79 883 -7 979 29 b 1028 104 1035 85 1035 94 l 986 168 b 958 178 979 179 968 182 b 785 146 919 160 879 146 l 769 146 b 653 238 689 146 653 183 l 653 275 l 1014 275 b 1056 317 1042 275 1056 290 l 1056 457 b 800 700 1056 606 979 700 z m 876 406 l 653 406 l 653 454 b 736 540 653 514 686 540 l 792 540 b 876 456 842 540 876 514 z m 474 242 b 368 146 474 196 442 146 l 306 146 b 236 197 264 146 236 158 l 236 222 b 304 275 236 269 263 275 l 474 275 z "},"b":{"ha":746,"x_min":0,"x_max":0,"o":"m 447 700 l 431 700 b 276 632 351 700 308 671 l 261 632 l 261 950 b 239 972 261 965 253 972 l 104 972 b 82 950 89 972 82 965 l 82 22 b 104 0 82 7 89 0 l 239 0 b 261 22 253 0 261 7 l 261 61 l 276 61 b 431 -7 308 22 351 -7 l 447 -7 b 678 228 606 -7 678 78 l 678 465 b 447 700 678 615 606 700 z m 499 243 b 414 153 499 185 464 153 l 346 153 b 261 244 296 153 261 185 l 261 449 b 346 540 261 508 296 540 l 414 540 b 499 450 464 540 499 508 z "},"c":{"ha":710,"x_min":0,"x_max":0,"o":"m 356 -7 l 368 -7 b 640 136 485 -7 590 22 b 625 167 646 149 640 160 l 535 208 b 501 199 518 215 508 210 b 372 149 476 158 446 149 l 360 149 b 247 254 282 149 247 185 l 247 454 b 331 540 247 514 281 540 l 392 540 b 478 468 443 540 478 517 l 478 458 b 499 436 478 443 485 436 l 626 436 b 649 458 640 436 649 443 l 649 468 b 400 700 649 608 564 700 l 322 700 b 68 457 143 700 68 606 l 68 236 b 356 -7 68 90 146 -7 z "},"ć":{"ha":710,"x_min":0,"x_max":0,"o":"m 363 947 l 294 788 b 308 763 286 771 293 763 l 424 763 b 458 788 438 763 449 774 l 581 947 b 567 972 593 963 582 972 l 392 972 b 363 947 378 972 371 964 z m 356 -7 l 368 -7 b 640 136 485 -7 590 22 b 625 167 646 149 640 160 l 535 208 b 501 199 518 215 508 210 b 372 149 476 158 446 149 l 360 149 b 247 254 282 149 247 185 l 247 454 b 331 540 247 514 281 540 l 392 540 b 478 468 443 540 478 517 l 478 458 b 499 436 478 443 485 436 l 626 436 b 649 458 640 436 649 443 l 649 468 b 400 700 649 608 564 700 l 322 700 b 68 457 143 700 68 606 l 68 236 b 356 -7 68 90 146 -7 z "},"č":{"ha":710,"x_min":0,"x_max":0,"o":"m 286 763 l 432 763 b 471 782 447 763 460 769 l 614 944 b 601 972 625 958 615 972 l 472 972 b 428 944 451 972 442 961 l 367 874 l 353 874 l 292 944 b 247 972 278 961 268 972 l 117 972 b 106 944 103 972 94 958 l 249 782 b 286 763 258 768 271 763 z m 356 -7 l 368 -7 b 640 136 485 -7 590 22 b 625 167 646 149 640 160 l 535 208 b 501 199 518 215 508 210 b 372 149 476 158 446 149 l 360 149 b 247 254 282 149 247 185 l 247 454 b 331 540 247 514 281 540 l 392 540 b 478 468 443 540 478 517 l 478 458 b 499 436 478 443 485 436 l 626 436 b 649 458 640 436 649 443 l 649 468 b 400 700 649 608 564 700 l 322 700 b 68 457 143 700 68 606 l 68 236 b 356 -7 68 90 146 -7 z "},"ç":{"ha":710,"x_min":0,"x_max":0,"o":"m 400 700 l 322 700 b 68 457 143 700 68 606 l 68 236 b 324 -6 68 97 138 3 b 268 -82 286 -42 268 -56 b 324 -131 268 -115 293 -128 b 467 -165 444 -142 467 -144 b 426 -185 467 -181 450 -185 l 399 -185 b 363 -168 379 -185 368 -176 b 347 -154 361 -160 356 -154 l 240 -154 b 226 -172 229 -154 226 -161 b 349 -286 226 -240 257 -286 l 465 -286 b 603 -162 556 -286 603 -240 b 479 -42 603 -78 575 -51 b 486 0 449 -39 418 -33 l 457 0 b 640 136 536 14 603 51 b 625 167 646 149 640 160 l 535 208 b 501 199 518 215 508 210 b 372 149 476 158 446 149 l 360 149 b 247 254 282 149 247 185 l 247 454 b 331 540 247 514 281 540 l 392 540 b 478 468 443 540 478 517 l 478 458 b 499 436 478 443 485 436 l 626 436 b 649 458 640 436 649 443 l 649 468 b 400 700 649 608 564 700 z "},"ĉ":{"ha":710,"x_min":0,"x_max":0,"o":"m 288 972 b 250 953 272 972 260 967 l 107 789 b 118 763 96 776 104 763 l 249 763 b 293 789 269 763 279 774 l 354 861 l 368 861 l 429 789 b 474 763 443 774 453 763 l 603 763 b 615 789 617 763 626 776 l 472 953 b 433 972 461 964 449 972 z m 356 -7 l 368 -7 b 640 136 485 -7 590 22 b 625 167 646 149 640 160 l 535 208 b 501 199 518 215 508 210 b 372 149 476 158 446 149 l 360 149 b 247 254 282 149 247 185 l 247 454 b 331 540 247 514 281 540 l 392 540 b 478 468 443 540 478 517 l 478 458 b 499 436 478 443 485 436 l 626 436 b 649 458 640 436 649 443 l 649 468 b 400 700 649 608 564 700 l 322 700 b 68 457 143 700 68 606 l 68 236 b 356 -7 68 90 146 -7 z "},"ċ":{"ha":710,"x_min":0,"x_max":0,"o":"m 288 789 l 429 789 b 450 810 443 789 450 796 l 450 951 b 429 972 450 965 443 972 l 288 972 b 267 951 274 972 267 965 l 267 810 b 288 789 267 796 274 789 z m 356 -7 l 368 -7 b 640 136 485 -7 590 22 b 625 167 646 149 640 160 l 535 208 b 501 199 518 215 508 210 b 372 149 476 158 446 149 l 360 149 b 247 254 282 149 247 185 l 247 454 b 331 540 247 514 281 540 l 392 540 b 478 468 443 540 478 517 l 478 458 b 499 436 478 443 485 436 l 626 436 b 649 458 640 436 649 443 l 649 468 b 400 700 649 608 564 700 l 322 700 b 68 457 143 700 68 606 l 68 236 b 356 -7 68 90 146 -7 z "},"d":{"ha":746,"x_min":0,"x_max":0,"o":"m 643 972 l 507 972 b 485 950 493 972 485 965 l 485 632 l 469 632 b 315 700 438 671 394 700 l 299 700 b 68 465 142 700 68 615 l 68 228 b 299 -7 68 78 142 -7 l 315 -7 b 469 61 394 -7 438 22 l 485 61 l 485 22 b 507 0 485 7 493 0 l 643 0 b 664 22 657 0 664 7 l 664 950 b 643 972 664 965 657 972 z m 400 153 l 332 153 b 247 243 283 153 247 185 l 247 450 b 332 540 247 508 283 540 l 400 540 b 485 449 450 540 485 508 l 485 244 b 400 153 485 185 450 153 z "},"ð":{"ha":750,"x_min":0,"x_max":0,"o":"m 775 926 l 664 926 l 664 950 b 643 972 664 965 657 972 l 507 972 b 485 950 493 972 485 965 l 485 863 l 296 760 l 469 760 l 485 768 l 485 632 l 469 632 b 315 700 438 671 394 700 l 299 700 b 68 465 142 700 68 615 l 68 228 b 299 -7 68 78 142 -7 l 315 -7 b 469 61 394 -7 438 22 l 485 61 l 485 22 b 507 0 485 7 493 0 l 643 0 b 664 22 657 0 664 7 l 664 865 z m 400 153 l 332 153 b 247 243 283 153 247 185 l 247 450 b 332 540 247 508 283 540 l 400 540 b 485 449 450 540 485 508 l 485 244 b 400 153 485 185 450 153 z "},"ď":{"ha":894,"x_min":0,"x_max":0,"o":"m 643 972 l 507 972 b 485 950 493 972 485 965 l 485 632 l 469 632 b 315 700 438 671 394 700 l 299 700 b 68 465 142 700 68 615 l 68 228 b 299 -7 68 78 142 -7 l 315 -7 b 469 61 394 -7 438 22 l 485 61 l 485 22 b 507 0 485 7 493 0 l 643 0 b 664 22 657 0 664 7 l 664 950 b 643 972 664 965 657 972 z m 936 972 l 821 972 b 800 951 807 972 800 965 l 800 708 l 738 708 b 717 688 724 708 717 701 l 717 581 b 738 558 717 567 724 558 l 906 558 b 957 611 939 558 957 576 l 957 951 b 936 972 957 965 950 972 z m 400 153 l 332 153 b 247 243 283 153 247 185 l 247 450 b 332 540 247 508 283 540 l 400 540 b 485 449 450 540 485 508 l 485 244 b 400 153 485 185 450 153 z "},"đ":{"ha":724,"x_min":0,"x_max":0,"o":"m 703 900 l 664 900 l 664 950 b 643 972 664 965 657 972 l 507 972 b 485 950 493 972 485 965 l 485 900 l 253 900 b 232 879 239 900 232 893 l 232 761 b 253 740 232 747 239 740 l 485 740 l 485 632 l 469 632 b 315 700 438 671 394 700 l 299 700 b 68 465 142 700 68 615 l 68 228 b 299 -7 68 78 142 -7 l 315 -7 b 469 61 394 -7 438 22 l 485 61 l 485 22 b 507 0 485 7 493 0 l 643 0 b 664 22 657 0 664 7 l 664 740 l 703 740 b 724 761 715 740 724 747 l 724 879 b 703 900 724 893 715 900 z m 400 153 l 332 153 b 247 243 283 153 247 185 l 247 450 b 332 540 247 508 283 540 l 400 540 b 485 449 450 540 485 508 l 485 244 b 400 153 485 185 450 153 z "},"e":{"ha":718,"x_min":0,"x_max":0,"o":"m 379 -7 b 624 79 478 -7 574 29 b 622 104 631 85 631 94 l 581 168 b 553 178 574 179 564 182 b 379 146 514 160 474 146 l 364 146 b 247 238 285 146 247 183 l 247 275 l 608 275 b 650 317 636 275 650 290 l 650 457 b 396 700 650 606 574 700 l 322 700 b 68 457 143 700 68 606 l 68 236 b 360 -7 68 92 144 -7 z m 247 406 l 247 454 b 331 540 247 514 281 540 l 388 540 b 471 456 436 540 471 514 l 471 406 z "},"é":{"ha":718,"x_min":0,"x_max":0,"o":"m 367 947 l 299 788 b 313 763 290 771 297 763 l 428 763 b 463 788 442 763 453 774 l 585 947 b 571 972 597 963 586 972 l 396 972 b 367 947 382 972 375 964 z m 379 -7 b 624 79 478 -7 574 29 b 622 104 631 85 631 94 l 581 168 b 553 178 574 179 564 182 b 379 146 514 160 474 146 l 364 146 b 247 238 285 146 247 183 l 247 275 l 608 275 b 650 317 636 275 650 290 l 650 457 b 396 700 650 606 574 700 l 322 700 b 68 457 143 700 68 606 l 68 236 b 360 -7 68 92 144 -7 z m 247 406 l 247 454 b 331 540 247 514 281 540 l 388 540 b 471 456 436 540 471 514 l 471 406 z "},"ě":{"ha":718,"x_min":0,"x_max":0,"o":"m 289 763 l 435 763 b 474 782 450 763 463 769 l 617 944 b 604 972 628 958 618 972 l 475 972 b 431 944 454 972 444 961 l 369 874 l 356 874 l 294 944 b 250 972 281 961 271 972 l 119 972 b 108 944 106 972 97 958 l 251 782 b 289 763 261 768 274 763 z m 379 -7 b 624 79 478 -7 574 29 b 622 104 631 85 631 94 l 581 168 b 553 178 574 179 564 182 b 379 146 514 160 474 146 l 364 146 b 247 238 285 146 247 183 l 247 275 l 608 275 b 650 317 636 275 650 290 l 650 457 b 396 700 650 606 574 700 l 322 700 b 68 457 143 700 68 606 l 68 236 b 360 -7 68 92 144 -7 z m 247 406 l 247 454 b 331 540 247 514 281 540 l 388 540 b 471 456 436 540 471 514 l 471 406 z "},"ȩ":{"ha":718,"x_min":0,"x_max":0,"o":"m 396 700 l 322 700 b 68 457 143 700 68 606 l 68 236 b 317 -6 68 101 135 7 b 260 -82 278 -42 260 -56 b 315 -131 260 -115 285 -128 b 458 -165 436 -142 458 -144 b 418 -185 458 -181 442 -185 l 390 -185 b 354 -168 371 -185 360 -176 b 339 -154 353 -160 347 -154 l 232 -154 b 218 -172 221 -154 218 -161 b 340 -286 218 -240 249 -286 l 457 -286 b 594 -162 547 -286 594 -240 b 471 -42 594 -78 567 -51 b 478 0 440 -39 410 -33 l 454 0 b 624 79 525 13 586 42 b 622 104 631 85 631 94 l 581 168 b 553 178 574 179 564 182 b 379 146 514 160 474 146 l 364 146 b 247 238 285 146 247 183 l 247 275 l 608 275 b 650 317 636 275 650 290 l 650 457 b 396 700 650 606 574 700 z m 471 406 l 247 406 l 247 454 b 331 540 247 514 281 540 l 388 540 b 471 456 436 540 471 514 z "},"ê":{"ha":718,"x_min":0,"x_max":0,"o":"m 292 972 b 254 953 276 972 264 967 l 111 789 b 122 763 100 776 108 763 l 253 763 b 297 789 274 763 283 774 l 358 861 l 372 861 l 433 789 b 478 763 447 774 457 763 l 607 763 b 619 789 621 763 631 776 l 476 953 b 438 972 465 964 453 972 z m 379 -7 b 624 79 478 -7 574 29 b 622 104 631 85 631 94 l 581 168 b 553 178 574 179 564 182 b 379 146 514 160 474 146 l 364 146 b 247 238 285 146 247 183 l 247 275 l 608 275 b 650 317 636 275 650 290 l 650 457 b 396 700 650 606 574 700 l 322 700 b 68 457 143 700 68 606 l 68 236 b 360 -7 68 92 144 -7 z m 247 406 l 247 454 b 331 540 247 514 281 540 l 388 540 b 471 456 436 540 471 514 l 471 406 z "},"ë":{"ha":718,"x_min":0,"x_max":0,"o":"m 89 789 l 231 789 b 251 810 244 789 251 796 l 251 951 b 231 972 251 965 244 972 l 89 972 b 68 951 75 972 68 965 l 68 810 b 89 789 68 796 75 789 z m 494 789 l 636 789 b 657 810 650 789 657 796 l 657 951 b 636 972 657 965 650 972 l 494 972 b 474 951 481 972 474 965 l 474 810 b 494 789 474 796 481 789 z m 379 -7 b 624 79 478 -7 574 29 b 622 104 631 85 631 94 l 581 168 b 553 178 574 179 564 182 b 379 146 514 160 474 146 l 364 146 b 247 238 285 146 247 183 l 247 275 l 608 275 b 650 317 636 275 650 290 l 650 457 b 396 700 650 606 574 700 l 322 700 b 68 457 143 700 68 606 l 68 236 b 360 -7 68 92 144 -7 z m 247 406 l 247 454 b 331 540 247 514 281 540 l 388 540 b 471 456 436 540 471 514 l 471 406 z "},"ė":{"ha":718,"x_min":0,"x_max":0,"o":"m 292 789 l 433 789 b 454 810 447 789 454 796 l 454 951 b 433 972 454 965 447 972 l 292 972 b 271 951 278 972 271 965 l 271 810 b 292 789 271 796 278 789 z m 379 -7 b 624 79 478 -7 574 29 b 622 104 631 85 631 94 l 581 168 b 553 178 574 179 564 182 b 379 146 514 160 474 146 l 364 146 b 247 238 285 146 247 183 l 247 275 l 608 275 b 650 317 636 275 650 290 l 650 457 b 396 700 650 606 574 700 l 322 700 b 68 457 143 700 68 606 l 68 236 b 360 -7 68 92 144 -7 z m 247 406 l 247 454 b 331 540 247 514 281 540 l 388 540 b 471 456 436 540 471 514 l 471 406 z "},"è":{"ha":718,"x_min":0,"x_max":0,"o":"m 367 947 b 338 972 358 964 351 972 l 163 972 b 149 947 147 972 136 963 l 272 788 b 306 763 281 774 292 763 l 421 763 b 435 788 438 763 443 771 z m 379 -7 b 624 79 478 -7 574 29 b 622 104 631 85 631 94 l 581 168 b 553 178 574 179 564 182 b 379 146 514 160 474 146 l 364 146 b 247 238 285 146 247 183 l 247 275 l 608 275 b 650 317 636 275 650 290 l 650 457 b 396 700 650 606 574 700 l 322 700 b 68 457 143 700 68 606 l 68 236 b 360 -7 68 92 144 -7 z m 247 406 l 247 454 b 331 540 247 514 281 540 l 388 540 b 471 456 436 540 471 514 l 471 406 z "},"ē":{"ha":718,"x_min":0,"x_max":0,"o":"m 138 811 l 588 811 b 608 832 600 811 608 818 l 608 951 b 588 972 608 965 600 972 l 138 972 b 117 951 124 972 117 965 l 117 832 b 138 811 117 818 124 811 z m 379 -7 b 624 79 478 -7 574 29 b 622 104 631 85 631 94 l 581 168 b 553 178 574 179 564 182 b 379 146 514 160 474 146 l 364 146 b 247 238 285 146 247 183 l 247 275 l 608 275 b 650 317 636 275 650 290 l 650 457 b 396 700 650 606 574 700 l 322 700 b 68 457 143 700 68 606 l 68 236 b 360 -7 68 92 144 -7 z m 247 406 l 247 454 b 331 540 247 514 281 540 l 388 540 b 471 456 436 540 471 514 l 471 406 z "},"ę":{"ha":718,"x_min":0,"x_max":0,"o":"m 396 700 l 322 700 b 68 457 143 700 68 606 l 68 236 b 318 -6 68 101 135 7 b 269 -37 317 -36 299 -35 l 218 -43 b 119 -161 142 -51 119 -69 b 263 -287 119 -268 151 -287 l 461 -287 b 475 -274 471 -287 475 -282 l 475 -187 b 461 -171 475 -178 469 -171 l 296 -171 b 279 -158 283 -171 279 -167 b 296 -143 279 -149 282 -144 l 396 -132 b 496 -50 463 -122 496 -118 l 496 10 b 624 79 549 25 594 50 b 622 104 631 85 631 94 l 581 168 b 553 178 574 179 564 182 b 379 146 514 160 474 146 l 364 146 b 247 238 285 146 247 183 l 247 275 l 608 275 b 650 317 636 275 650 290 l 650 457 b 396 700 650 606 574 700 z m 471 406 l 247 406 l 247 454 b 331 540 247 514 281 540 l 388 540 b 471 456 436 540 471 514 z "},"f":{"ha":544,"x_min":0,"x_max":0,"o":"m 483 972 l 390 972 b 158 743 225 972 158 890 l 158 694 l 69 694 b 47 672 54 694 47 688 l 47 557 b 69 536 47 543 54 536 l 158 536 l 158 22 b 181 0 158 7 165 0 l 315 0 b 338 22 329 0 338 7 l 338 536 l 476 536 b 499 557 492 536 499 543 l 499 672 b 476 694 499 688 492 694 l 338 694 l 338 728 b 424 813 338 782 367 813 l 483 813 b 504 833 497 813 504 819 l 504 951 b 483 972 504 965 497 972 z "},"g":{"ha":739,"x_min":0,"x_max":0,"o":"m 363 -257 b 664 -7 567 -257 664 -193 l 664 674 b 643 694 664 688 657 694 l 506 694 b 485 674 496 694 485 688 l 485 632 l 469 632 b 315 700 438 671 394 700 l 299 700 b 68 465 142 700 68 615 l 68 228 b 299 -7 68 78 142 -7 l 315 -7 b 469 61 394 -7 438 22 l 485 61 l 485 -7 b 364 -107 485 -81 439 -107 b 236 -104 331 -107 281 -107 b 206 -131 215 -103 206 -115 l 206 -214 b 238 -246 206 -233 217 -242 b 363 -257 282 -256 333 -257 z m 332 153 b 247 243 283 153 247 185 l 247 450 b 332 540 247 508 283 540 l 400 540 b 485 449 450 540 485 508 l 485 244 b 400 153 485 185 450 153 z "},"ğ":{"ha":739,"x_min":0,"x_max":0,"o":"m 343 750 l 431 750 b 625 950 564 750 625 815 b 603 972 625 965 617 972 l 500 972 b 478 950 486 972 481 965 b 404 872 474 910 461 872 l 368 872 b 294 950 311 872 300 910 b 274 972 293 965 288 972 l 169 972 b 149 950 156 972 149 965 b 343 750 149 815 210 750 z m 363 -257 b 664 -7 567 -257 664 -193 l 664 674 b 643 694 664 688 657 694 l 506 694 b 485 674 496 694 485 688 l 485 632 l 469 632 b 315 700 438 671 394 700 l 299 700 b 68 465 142 700 68 615 l 68 228 b 299 -7 68 78 142 -7 l 315 -7 b 469 61 394 -7 438 22 l 485 61 l 485 -7 b 364 -107 485 -81 439 -107 b 236 -104 331 -107 281 -107 b 206 -131 215 -103 206 -115 l 206 -214 b 238 -246 206 -233 217 -242 b 363 -257 282 -256 333 -257 z m 332 153 b 247 243 283 153 247 185 l 247 450 b 332 540 247 508 283 540 l 400 540 b 485 449 450 540 485 508 l 485 244 b 400 153 485 185 450 153 z "},"ǧ":{"ha":739,"x_min":0,"x_max":0,"o":"m 314 763 l 460 763 b 499 782 475 763 488 769 l 642 944 b 629 972 653 958 643 972 l 500 972 b 456 944 479 972 469 961 l 394 874 l 381 874 l 319 944 b 275 972 306 961 296 972 l 144 972 b 133 944 131 972 122 958 l 276 782 b 314 763 286 768 299 763 z m 363 -257 b 664 -7 567 -257 664 -193 l 664 674 b 643 694 664 688 657 694 l 506 694 b 485 674 496 694 485 688 l 485 632 l 469 632 b 315 700 438 671 394 700 l 299 700 b 68 465 142 700 68 615 l 68 228 b 299 -7 68 78 142 -7 l 315 -7 b 469 61 394 -7 438 22 l 485 61 l 485 -7 b 364 -107 485 -81 439 -107 b 236 -104 331 -107 281 -107 b 206 -131 215 -103 206 -115 l 206 -214 b 238 -246 206 -233 217 -242 b 363 -257 282 -256 333 -257 z m 332 153 b 247 243 283 153 247 185 l 247 450 b 332 540 247 508 283 540 l 400 540 b 485 449 450 540 485 508 l 485 244 b 400 153 485 185 450 153 z "},"ĝ":{"ha":739,"x_min":0,"x_max":0,"o":"m 315 972 b 278 953 300 972 288 967 l 135 789 b 146 763 124 776 132 763 l 276 763 b 321 789 297 763 307 774 l 382 861 l 396 861 l 457 789 b 501 763 471 774 481 763 l 631 763 b 643 789 644 763 654 776 l 500 953 b 461 972 489 964 476 972 z m 363 -257 b 664 -7 567 -257 664 -193 l 664 674 b 643 694 664 688 657 694 l 506 694 b 485 674 496 694 485 688 l 485 632 l 469 632 b 315 700 438 671 394 700 l 299 700 b 68 465 142 700 68 615 l 68 228 b 299 -7 68 78 142 -7 l 315 -7 b 469 61 394 -7 438 22 l 485 61 l 485 -7 b 364 -107 485 -81 439 -107 b 236 -104 331 -107 281 -107 b 206 -131 215 -103 206 -115 l 206 -214 b 238 -246 206 -233 217 -242 b 363 -257 282 -256 333 -257 z m 332 153 b 247 243 283 153 247 185 l 247 450 b 332 540 247 508 283 540 l 400 540 b 485 449 450 540 485 508 l 485 244 b 400 153 485 185 450 153 z "},"ģ":{"ha":739,"x_min":0,"x_max":0,"o":"m 246 744 l 360 744 b 381 765 374 744 381 751 l 381 1008 l 443 1008 b 464 1029 457 1008 464 1015 l 464 1136 b 443 1158 464 1150 457 1158 l 276 1158 b 224 1106 242 1158 224 1140 l 224 765 b 246 744 224 751 232 744 z m 363 -257 b 664 -7 567 -257 664 -193 l 664 674 b 643 694 664 688 657 694 l 506 694 b 485 674 496 694 485 688 l 485 632 l 469 632 b 315 700 438 671 394 700 l 299 700 b 68 465 142 700 68 615 l 68 228 b 299 -7 68 78 142 -7 l 315 -7 b 469 61 394 -7 438 22 l 485 61 l 485 -7 b 364 -107 485 -81 439 -107 b 236 -104 331 -107 281 -107 b 206 -131 215 -103 206 -115 l 206 -214 b 238 -246 206 -233 217 -242 b 363 -257 282 -256 333 -257 z m 332 153 b 247 243 283 153 247 185 l 247 450 b 332 540 247 508 283 540 l 400 540 b 485 449 450 540 485 508 l 485 244 b 400 153 485 185 450 153 z "},"ġ":{"ha":739,"x_min":0,"x_max":0,"o":"m 315 789 l 457 789 b 478 810 471 789 478 796 l 478 951 b 457 972 478 965 471 972 l 315 972 b 294 951 301 972 294 965 l 294 810 b 315 789 294 796 301 789 z m 363 -257 b 664 -7 567 -257 664 -193 l 664 674 b 643 694 664 688 657 694 l 506 694 b 485 674 496 694 485 688 l 485 632 l 469 632 b 315 700 438 671 394 700 l 299 700 b 68 465 142 700 68 615 l 68 228 b 299 -7 68 78 142 -7 l 315 -7 b 469 61 394 -7 438 22 l 485 61 l 485 -7 b 364 -107 485 -81 439 -107 b 236 -104 331 -107 281 -107 b 206 -131 215 -103 206 -115 l 206 -214 b 238 -246 206 -233 217 -242 b 363 -257 282 -256 333 -257 z m 332 153 b 247 243 283 153 247 185 l 247 450 b 332 540 247 508 283 540 l 400 540 b 485 449 450 540 485 508 l 485 244 b 400 153 485 185 450 153 z "},"h":{"ha":760,"x_min":0,"x_max":0,"o":"m 463 700 l 444 700 b 282 624 369 700 311 672 l 261 624 l 261 950 b 239 972 261 965 253 972 l 104 972 b 82 950 89 972 82 965 l 82 22 b 104 0 82 7 89 0 l 240 0 l 244 0 b 261 22 256 3 261 10 l 261 447 b 354 540 261 508 300 540 l 417 540 b 499 449 467 540 499 508 l 499 22 b 521 0 499 7 507 0 l 658 0 b 678 22 667 0 678 7 l 678 465 b 463 700 678 615 618 700 z "},"ħ":{"ha":771,"x_min":0,"x_max":0,"o":"m 463 700 l 444 700 b 282 624 369 700 311 672 l 261 624 l 261 740 l 471 740 b 492 761 483 740 492 747 l 492 879 b 471 900 492 893 483 900 l 261 900 l 261 950 b 239 972 261 965 253 972 l 104 972 b 82 950 89 972 82 965 l 82 900 l 21 900 b 0 879 7 900 0 893 l 0 761 b 21 740 0 747 7 740 l 82 740 l 82 22 b 104 0 82 7 89 0 l 240 0 l 244 0 b 261 22 256 3 261 10 l 261 447 b 354 540 261 508 300 540 l 417 540 b 499 449 467 540 499 508 l 499 22 b 521 0 499 7 507 0 l 658 0 b 678 22 667 0 678 7 l 678 465 b 463 700 678 615 618 700 z "},"ĥ":{"ha":760,"x_min":0,"x_max":0,"o":"m 104 1067 l 165 1139 l 179 1139 l 240 1067 b 285 1040 254 1051 264 1040 l 414 1040 b 426 1067 428 1040 438 1054 l 283 1231 b 244 1250 272 1242 260 1250 l 99 1250 b 61 1231 83 1250 71 1244 l -82 1067 b -71 1040 -93 1054 -85 1040 l 60 1040 b 104 1067 81 1040 90 1051 z m 463 700 l 444 700 b 282 624 369 700 311 672 l 261 624 l 261 950 b 239 972 261 965 253 972 l 104 972 b 82 950 89 972 82 965 l 82 22 b 104 0 82 7 89 0 l 240 0 l 244 0 b 261 22 256 3 261 10 l 261 447 b 354 540 261 508 300 540 l 417 540 b 499 449 467 540 499 508 l 499 22 b 521 0 499 7 507 0 l 658 0 b 678 22 667 0 678 7 l 678 465 b 463 700 678 615 618 700 z "},"i":{"ha":342,"x_min":0,"x_max":0,"o":"m 104 801 l 239 801 b 260 824 253 801 260 810 l 260 950 b 239 972 260 965 253 972 l 104 972 b 82 950 89 972 82 965 l 82 824 b 104 801 82 810 89 801 z m 103 0 l 239 0 b 261 22 253 0 261 7 l 261 672 b 239 694 261 688 253 694 l 103 694 b 82 672 89 694 82 688 l 82 22 b 103 0 82 7 89 0 z "},"ı":{"ha":332,"x_min":0,"x_max":0,"o":"m 99 0 l 233 0 b 256 22 247 0 256 7 l 256 672 b 233 694 256 688 247 694 l 99 694 b 76 672 83 694 76 688 l 76 22 b 99 0 76 7 83 0 z "},"í":{"ha":332,"x_min":0,"x_max":0,"o":"m 167 947 l 99 788 b 113 763 90 771 97 763 l 228 763 b 263 788 242 763 253 774 l 385 947 b 371 972 397 963 386 972 l 196 972 b 167 947 182 972 175 964 z m 99 0 l 233 0 b 256 22 247 0 256 7 l 256 672 b 233 694 256 688 247 694 l 99 694 b 76 672 83 694 76 688 l 76 22 b 99 0 76 7 83 0 z "},"ǐ":{"ha":332,"x_min":0,"x_max":0,"o":"m 90 763 l 236 763 b 275 782 251 763 264 769 l 418 944 b 406 972 429 958 419 972 l 276 972 b 232 944 256 972 246 961 l 171 874 l 157 874 l 96 944 b 51 972 82 961 72 972 l -79 972 b -90 944 -93 972 -101 958 l 53 782 b 90 763 63 768 75 763 z m 99 0 l 233 0 b 256 22 247 0 256 7 l 256 672 b 233 694 256 688 247 694 l 99 694 b 76 672 83 694 76 688 l 76 22 b 99 0 76 7 83 0 z "},"î":{"ha":332,"x_min":0,"x_max":0,"o":"m 92 972 b 54 953 76 972 64 967 l -89 789 b -78 763 -100 776 -92 763 l 53 763 b 97 789 74 763 83 774 l 158 861 l 172 861 l 233 789 b 278 763 247 774 257 763 l 407 763 b 419 789 421 763 431 776 l 276 953 b 238 972 265 964 253 972 z m 99 0 l 233 0 b 256 22 247 0 256 7 l 256 672 b 233 694 256 688 247 694 l 99 694 b 76 672 83 694 76 688 l 76 22 b 99 0 76 7 83 0 z "},"ï":{"ha":332,"x_min":0,"x_max":0,"o":"m -110 789 l 32 789 b 53 810 46 789 53 796 l 53 951 b 32 972 53 965 46 972 l -110 972 b -131 951 -124 972 -131 965 l -131 810 b -110 789 -131 796 -124 789 z m 296 789 l 438 789 b 458 810 451 789 458 796 l 458 951 b 438 972 458 965 451 972 l 296 972 b 275 951 282 972 275 965 l 275 810 b 296 789 275 796 282 789 z m 99 0 l 233 0 b 256 22 247 0 256 7 l 256 672 b 233 694 256 688 247 694 l 99 694 b 76 672 83 694 76 688 l 76 22 b 99 0 76 7 83 0 z "},"ì":{"ha":332,"x_min":0,"x_max":0,"o":"m 168 947 b 139 972 160 964 153 972 l -36 972 b -50 947 -51 972 -62 963 l 74 788 b 107 763 82 774 93 763 l 222 763 b 236 788 239 763 244 771 z m 99 0 l 233 0 b 256 22 247 0 256 7 l 256 672 b 233 694 256 688 247 694 l 99 694 b 76 672 83 694 76 688 l 76 22 b 99 0 76 7 83 0 z "},"ĳ":{"ha":697,"x_min":0,"x_max":0,"o":"m 104 801 l 239 801 b 260 824 253 801 260 810 l 260 950 b 239 972 260 965 253 972 l 104 972 b 82 950 89 972 82 965 l 82 824 b 104 801 82 810 89 801 z m 458 801 l 593 801 b 615 824 608 801 615 810 l 615 950 b 593 972 615 965 608 972 l 458 972 b 438 950 444 972 438 965 l 438 824 b 458 801 438 810 444 801 z m 103 0 l 239 0 b 261 22 253 0 261 7 l 261 672 b 239 694 261 688 253 694 l 103 694 b 82 672 89 694 82 688 l 82 22 b 103 0 82 7 89 0 z m 411 -261 b 615 -22 594 -261 615 -160 l 615 672 b 593 694 615 688 608 694 l 458 694 b 436 672 444 694 436 688 l 436 -26 b 358 -104 436 -83 411 -104 b 319 -140 331 -104 319 -117 l 319 -211 b 411 -261 319 -246 340 -261 z "},"ī":{"ha":332,"x_min":0,"x_max":0,"o":"m -61 811 l 389 811 b 410 832 401 811 410 818 l 410 951 b 389 972 410 965 401 972 l -61 972 b -82 951 -75 972 -82 965 l -82 832 b -61 811 -82 818 -75 811 z m 99 0 l 233 0 b 256 22 247 0 256 7 l 256 672 b 233 694 256 688 247 694 l 99 694 b 76 672 83 694 76 688 l 76 22 b 99 0 76 7 83 0 z "},"į":{"ha":332,"x_min":0,"x_max":0,"o":"m 92 789 l 233 789 b 254 810 247 789 254 796 l 254 951 b 233 972 254 965 247 972 l 92 972 b 71 951 78 972 71 965 l 71 810 b 92 789 71 796 78 789 z m 256 672 b 233 694 256 688 247 694 l 99 694 b 76 672 83 694 76 688 l 76 -3 b 28 -37 76 -36 58 -35 l -24 -43 b -122 -161 -100 -51 -122 -69 b 21 -287 -122 -268 -90 -287 l 219 -287 b 233 -274 229 -287 233 -282 l 233 -187 b 219 -171 233 -178 228 -171 l 54 -171 b 38 -158 42 -171 38 -167 b 54 -143 38 -149 40 -144 l 154 -132 b 254 -50 221 -122 254 -118 l 254 13 b 256 22 256 15 256 18 z "},"j":{"ha":356,"x_min":0,"x_max":0,"o":"m 117 801 l 251 801 b 274 824 267 801 274 810 l 274 950 b 251 972 274 965 267 972 l 117 972 b 96 950 103 972 96 965 l 96 824 b 117 801 96 810 103 801 z m 69 -261 b 274 -22 253 -261 274 -160 l 274 672 b 251 694 274 688 267 694 l 117 694 b 94 672 103 694 94 688 l 94 -26 b 17 -104 94 -83 69 -104 b -22 -140 -11 -104 -22 -117 l -22 -211 b 69 -261 -22 -246 -1 -261 z "},"ȷ":{"ha":350,"x_min":0,"x_max":0,"o":"m 64 -261 b 268 -22 247 -261 268 -160 l 268 672 b 246 694 268 688 261 694 l 111 694 b 89 672 97 694 89 688 l 89 -26 b 11 -104 89 -83 64 -104 b -28 -140 -17 -104 -28 -117 l -28 -211 b 64 -261 -28 -246 -7 -261 z "},"ĵ":{"ha":350,"x_min":0,"x_max":0,"o":"m 111 972 b 74 953 96 972 83 967 l -69 789 b -58 763 -81 776 -72 763 l 72 763 b 117 789 93 763 103 774 l 178 861 l 192 861 l 253 789 b 297 763 267 774 276 763 l 426 763 b 439 789 440 763 450 776 l 296 953 b 257 972 285 964 272 972 z m 64 -261 b 268 -22 247 -261 268 -160 l 268 672 b 246 694 268 688 261 694 l 111 694 b 89 672 97 694 89 688 l 89 -26 b 11 -104 89 -83 64 -104 b -28 -140 -17 -104 -28 -117 l -28 -211 b 64 -261 -28 -246 -7 -261 z "},"k":{"ha":756,"x_min":0,"x_max":0,"o":"m 717 35 l 457 414 l 690 649 b 679 694 717 674 697 694 l 540 694 b 503 675 525 694 514 688 l 261 429 l 261 950 b 239 972 261 965 253 972 l 104 972 b 82 950 89 972 82 965 l 82 22 b 104 0 82 7 89 0 l 239 0 b 261 22 253 0 261 7 l 261 218 l 339 296 l 524 25 b 572 0 536 7 551 0 l 697 0 b 717 35 721 0 729 18 z "},"ķ":{"ha":756,"x_min":0,"x_max":0,"o":"m 717 35 l 457 414 l 690 649 b 679 694 717 674 697 694 l 540 694 b 503 675 525 694 514 688 l 261 429 l 261 950 b 239 972 261 965 253 972 l 104 972 b 82 950 89 972 82 965 l 82 22 b 104 0 82 7 89 0 l 239 0 b 261 22 253 0 261 7 l 261 218 l 339 296 l 524 25 b 572 0 536 7 551 0 l 697 0 b 717 35 721 0 729 18 z m 378 -83 l 263 -83 b 242 -104 249 -83 242 -90 l 242 -347 l 179 -347 b 158 -368 165 -347 158 -354 l 158 -475 b 179 -497 158 -489 165 -497 l 347 -497 b 399 -444 381 -497 399 -479 l 399 -104 b 378 -83 399 -90 392 -83 z "},"l":{"ha":343,"x_min":0,"x_max":0,"o":"m 104 0 l 239 0 b 261 22 253 0 261 7 l 261 950 b 239 972 261 965 253 972 l 104 972 b 82 950 89 972 82 965 l 82 22 b 104 0 82 7 89 0 z "},"ĺ":{"ha":343,"x_min":0,"x_max":0,"o":"m 175 1225 l 107 1065 b 121 1040 99 1049 106 1040 l 236 1040 b 271 1065 250 1040 261 1051 l 393 1225 b 379 1250 406 1240 394 1250 l 204 1250 b 175 1225 190 1250 183 1242 z m 104 0 l 239 0 b 261 22 253 0 261 7 l 261 950 b 239 972 261 965 253 972 l 104 972 b 82 950 89 972 82 965 l 82 22 b 104 0 82 7 89 0 z "},"ľ":{"ha":529,"x_min":0,"x_max":0,"o":"m 104 0 l 239 0 b 261 22 253 0 261 7 l 261 950 b 239 972 261 965 253 972 l 104 972 b 82 950 89 972 82 965 l 82 22 b 104 0 82 7 89 0 z m 543 972 l 428 972 b 407 951 414 972 407 965 l 407 708 l 344 708 b 324 688 331 708 324 701 l 324 581 b 344 558 324 567 331 558 l 513 558 b 564 611 546 558 564 576 l 564 951 b 543 972 564 965 557 972 z "},"ļ":{"ha":343,"x_min":0,"x_max":0,"o":"m 104 0 l 239 0 b 261 22 253 0 261 7 l 261 950 b 239 972 261 965 253 972 l 104 972 b 82 950 89 972 82 965 l 82 22 b 104 0 82 7 89 0 z m 228 -83 l 113 -83 b 92 -104 99 -83 92 -90 l 92 -347 l 29 -347 b 8 -368 15 -347 8 -354 l 8 -475 b 29 -497 8 -489 15 -497 l 197 -497 b 249 -444 231 -497 249 -479 l 249 -104 b 228 -83 249 -90 242 -83 z "},"ŀ":{"ha":476,"x_min":0,"x_max":0,"o":"m 104 0 l 239 0 b 261 22 253 0 261 7 l 261 950 b 239 972 261 965 253 972 l 104 972 b 82 950 89 972 82 965 l 82 22 b 104 0 82 7 89 0 z m 351 318 l 493 318 b 514 339 507 318 514 325 l 514 481 b 493 501 514 494 507 501 l 351 501 b 331 481 338 501 331 494 l 331 339 b 351 318 331 325 338 318 z "},"ł":{"ha":422,"x_min":0,"x_max":0,"o":"m 410 658 l 300 658 l 300 950 b 279 972 300 965 293 972 l 143 972 b 122 950 129 972 122 965 l 122 525 l -1 399 b 11 372 -14 386 -6 372 l 122 372 l 122 22 b 143 0 122 7 129 0 l 279 0 b 300 22 293 0 300 7 l 300 507 l 422 632 b 410 658 436 646 426 658 z "},"m":{"ha":1142,"x_min":0,"x_max":0,"o":"m 844 700 l 815 700 b 640 619 744 700 671 669 l 626 619 b 463 700 596 672 543 700 l 440 700 b 282 624 367 700 311 671 l 261 624 l 261 672 b 240 694 261 688 250 694 l 104 694 b 82 672 89 694 82 688 l 82 22 b 104 0 82 7 89 0 l 240 0 b 261 22 250 0 261 7 l 261 447 b 349 540 261 508 296 540 l 393 540 b 481 449 446 540 481 508 l 481 22 b 503 0 481 7 489 0 l 640 0 b 660 22 649 0 660 7 l 660 447 b 747 540 660 508 696 540 l 793 540 b 881 449 844 540 881 508 l 881 22 b 901 0 881 7 888 0 l 1039 0 b 1060 22 1049 0 1060 7 l 1060 465 b 844 700 1060 615 1000 700 z "},"ḿ":{"ha":1142,"x_min":0,"x_max":0,"o":"m 525 763 l 640 763 b 675 788 654 763 665 774 l 797 947 b 783 972 810 963 799 972 l 608 972 b 579 947 594 972 588 964 l 511 788 b 525 763 503 771 510 763 z m 844 700 l 815 700 b 640 619 744 700 671 669 l 626 619 b 463 700 596 672 543 700 l 440 700 b 282 624 367 700 311 671 l 261 624 l 261 672 b 240 694 261 688 250 694 l 104 694 b 82 672 89 694 82 688 l 82 22 b 104 0 82 7 89 0 l 240 0 b 261 22 250 0 261 7 l 261 447 b 349 540 261 508 296 540 l 393 540 b 481 449 446 540 481 508 l 481 22 b 503 0 481 7 489 0 l 640 0 b 660 22 649 0 660 7 l 660 447 b 747 540 660 508 696 540 l 793 540 b 881 449 844 540 881 508 l 881 22 b 901 0 881 7 888 0 l 1039 0 b 1060 22 1049 0 1060 7 l 1060 465 b 844 700 1060 615 1000 700 z "},"n":{"ha":760,"x_min":0,"x_max":0,"o":"m 104 0 l 240 0 b 261 22 250 0 261 7 l 261 447 b 354 540 261 508 300 540 l 417 540 b 499 449 467 540 499 508 l 499 22 b 521 0 499 7 507 0 l 658 0 b 678 22 667 0 678 7 l 678 465 b 463 700 678 615 618 700 l 444 700 b 282 624 369 700 311 672 l 261 624 l 261 672 b 240 694 261 688 250 694 l 104 694 b 82 672 89 694 82 688 l 82 22 b 104 0 82 7 89 0 z "},"ń":{"ha":760,"x_min":0,"x_max":0,"o":"m 383 947 l 315 788 b 329 763 307 771 314 763 l 444 763 b 479 788 458 763 469 774 l 601 947 b 588 972 614 963 603 972 l 413 972 b 383 947 399 972 392 964 z m 104 0 l 240 0 b 261 22 250 0 261 7 l 261 447 b 354 540 261 508 300 540 l 417 540 b 499 449 467 540 499 508 l 499 22 b 521 0 499 7 507 0 l 658 0 b 678 22 667 0 678 7 l 678 465 b 463 700 678 615 618 700 l 444 700 b 282 624 369 700 311 672 l 261 624 l 261 672 b 240 694 261 688 250 694 l 104 694 b 82 672 89 694 82 688 l 82 22 b 104 0 82 7 89 0 z "},"ň":{"ha":760,"x_min":0,"x_max":0,"o":"m 307 763 l 453 763 b 492 782 468 763 481 769 l 635 944 b 622 972 646 958 636 972 l 493 972 b 449 944 472 972 463 961 l 388 874 l 374 874 l 313 944 b 268 972 299 961 289 972 l 138 972 b 126 944 124 972 115 958 l 269 782 b 307 763 279 768 292 763 z m 104 0 l 240 0 b 261 22 250 0 261 7 l 261 447 b 354 540 261 508 300 540 l 417 540 b 499 449 467 540 499 508 l 499 22 b 521 0 499 7 507 0 l 658 0 b 678 22 667 0 678 7 l 678 465 b 463 700 678 615 618 700 l 444 700 b 282 624 369 700 311 672 l 261 624 l 261 672 b 240 694 261 688 250 694 l 104 694 b 82 672 89 694 82 688 l 82 22 b 104 0 82 7 89 0 z "},"ņ":{"ha":760,"x_min":0,"x_max":0,"o":"m 104 0 l 240 0 b 261 22 250 0 261 7 l 261 447 b 354 540 261 508 300 540 l 417 540 b 499 449 467 540 499 508 l 499 22 b 521 0 499 7 507 0 l 658 0 b 678 22 667 0 678 7 l 678 465 b 463 700 678 615 618 700 l 444 700 b 282 624 369 700 311 672 l 261 624 l 261 672 b 240 694 261 688 250 694 l 104 694 b 82 672 89 694 82 688 l 82 22 b 104 0 82 7 89 0 z m 436 -83 l 321 -83 b 300 -104 307 -83 300 -90 l 300 -347 l 238 -347 b 217 -368 224 -347 217 -354 l 217 -475 b 238 -497 217 -489 224 -497 l 406 -497 b 457 -444 439 -497 457 -479 l 457 -104 b 436 -83 457 -90 450 -83 z "},"ŋ":{"ha":760,"x_min":0,"x_max":0,"o":"m 678 465 b 463 700 678 615 618 700 l 444 700 b 282 624 369 700 311 672 l 261 624 l 261 672 b 240 694 261 688 250 694 l 104 694 b 82 672 89 694 82 688 l 82 22 b 104 0 82 7 89 0 l 240 0 b 261 22 250 0 261 7 l 261 447 b 354 540 261 508 300 540 l 417 540 b 499 449 467 540 499 508 l 499 228 l 493 228 l 493 -50 b 415 -128 493 -107 468 -128 b 376 -164 388 -128 376 -140 l 376 -235 b 468 -285 376 -269 397 -285 b 672 -46 653 -285 672 -183 l 672 7 b 678 22 675 10 678 15 z "},"ñ":{"ha":760,"x_min":0,"x_max":0,"o":"m 471 768 b 611 817 518 768 561 778 b 625 849 622 825 631 833 l 586 944 b 560 953 582 953 574 960 b 475 924 525 933 510 924 b 290 979 406 924 386 979 b 149 932 243 979 200 969 b 136 899 138 922 131 914 l 175 803 b 201 797 179 794 188 789 b 286 824 233 817 251 824 b 471 768 354 824 374 768 z m 104 0 l 240 0 b 261 22 250 0 261 7 l 261 447 b 354 540 261 508 300 540 l 417 540 b 499 449 467 540 499 508 l 499 22 b 521 0 499 7 507 0 l 658 0 b 678 22 667 0 678 7 l 678 465 b 463 700 678 615 618 700 l 444 700 b 282 624 369 700 311 672 l 261 624 l 261 672 b 240 694 261 688 250 694 l 104 694 b 82 672 89 694 82 688 l 82 22 b 104 0 82 7 89 0 z "},"o":{"ha":732,"x_min":0,"x_max":0,"o":"m 322 -7 l 410 -7 b 664 236 589 -7 664 88 l 664 457 b 410 700 664 606 589 700 l 322 700 b 68 457 144 700 68 606 l 68 236 b 322 -7 68 88 144 -7 z m 331 153 b 247 239 282 153 247 179 l 247 454 b 331 540 247 514 282 540 l 401 540 b 485 454 451 540 485 514 l 485 239 b 401 153 485 179 451 153 z "},"ó":{"ha":732,"x_min":0,"x_max":0,"o":"m 369 947 l 301 788 b 315 763 293 771 300 763 l 431 763 b 465 788 444 763 456 774 l 588 947 b 574 972 600 963 589 972 l 399 972 b 369 947 385 972 378 964 z m 322 -7 l 410 -7 b 664 236 589 -7 664 88 l 664 457 b 410 700 664 606 589 700 l 322 700 b 68 457 144 700 68 606 l 68 236 b 322 -7 68 88 144 -7 z m 331 153 b 247 239 282 153 247 179 l 247 454 b 331 540 247 514 282 540 l 401 540 b 485 454 451 540 485 514 l 485 239 b 401 153 485 179 451 153 z "},"ǒ":{"ha":732,"x_min":0,"x_max":0,"o":"m 293 763 l 439 763 b 478 782 454 763 467 769 l 621 944 b 608 972 632 958 622 972 l 479 972 b 435 944 458 972 449 961 l 374 874 l 360 874 l 299 944 b 254 972 285 961 275 972 l 124 972 b 113 944 110 972 101 958 l 256 782 b 293 763 265 768 278 763 z m 322 -7 l 410 -7 b 664 236 589 -7 664 88 l 664 457 b 410 700 664 606 589 700 l 322 700 b 68 457 144 700 68 606 l 68 236 b 322 -7 68 88 144 -7 z m 331 153 b 247 239 282 153 247 179 l 247 454 b 331 540 247 514 282 540 l 401 540 b 485 454 451 540 485 514 l 485 239 b 401 153 485 179 451 153 z "},"ô":{"ha":732,"x_min":0,"x_max":0,"o":"m 294 972 b 257 953 279 972 267 967 l 114 789 b 125 763 103 776 111 763 l 256 763 b 300 789 276 763 286 774 l 361 861 l 375 861 l 436 789 b 481 763 450 774 460 763 l 610 763 b 622 789 624 763 633 776 l 479 953 b 440 972 468 964 456 972 z m 322 -7 l 410 -7 b 664 236 589 -7 664 88 l 664 457 b 410 700 664 606 589 700 l 322 700 b 68 457 144 700 68 606 l 68 236 b 322 -7 68 88 144 -7 z m 331 153 b 247 239 282 153 247 179 l 247 454 b 331 540 247 514 282 540 l 401 540 b 485 454 451 540 485 514 l 485 239 b 401 153 485 179 451 153 z "},"ö":{"ha":732,"x_min":0,"x_max":0,"o":"m 93 789 l 235 789 b 256 810 249 789 256 796 l 256 951 b 235 972 256 965 249 972 l 93 972 b 72 951 79 972 72 965 l 72 810 b 93 789 72 796 79 789 z m 499 789 l 640 789 b 661 810 654 789 661 796 l 661 951 b 640 972 661 965 654 972 l 499 972 b 478 951 485 972 478 965 l 478 810 b 499 789 478 796 485 789 z m 322 -7 l 410 -7 b 664 236 589 -7 664 88 l 664 457 b 410 700 664 606 589 700 l 322 700 b 68 457 144 700 68 606 l 68 236 b 322 -7 68 88 144 -7 z m 331 153 b 247 239 282 153 247 179 l 247 454 b 331 540 247 514 282 540 l 401 540 b 485 454 451 540 485 514 l 485 239 b 401 153 485 179 451 153 z "},"ò":{"ha":732,"x_min":0,"x_max":0,"o":"m 371 947 b 342 972 363 964 356 972 l 167 972 b 153 947 151 972 140 963 l 276 788 b 310 763 285 774 296 763 l 425 763 b 439 788 442 763 447 771 z m 322 -7 l 410 -7 b 664 236 589 -7 664 88 l 664 457 b 410 700 664 606 589 700 l 322 700 b 68 457 144 700 68 606 l 68 236 b 322 -7 68 88 144 -7 z m 331 153 b 247 239 282 153 247 179 l 247 454 b 331 540 247 514 282 540 l 401 540 b 485 454 451 540 485 514 l 485 239 b 401 153 485 179 451 153 z "},"ő":{"ha":732,"x_min":0,"x_max":0,"o":"m 224 947 l 156 788 b 169 763 147 771 154 763 l 285 763 b 319 788 299 763 310 774 l 442 947 b 428 972 454 963 443 972 l 253 972 b 224 947 239 972 232 964 z m 500 947 l 432 788 b 446 763 424 771 429 763 l 561 763 b 594 788 575 763 586 774 l 718 947 b 704 972 731 963 719 972 l 529 972 b 500 947 515 972 508 964 z m 322 -7 l 410 -7 b 664 236 589 -7 664 88 l 664 457 b 410 700 664 606 589 700 l 322 700 b 68 457 144 700 68 606 l 68 236 b 322 -7 68 88 144 -7 z m 331 153 b 247 239 282 153 247 179 l 247 454 b 331 540 247 514 282 540 l 401 540 b 485 454 451 540 485 514 l 485 239 b 401 153 485 179 451 153 z "},"ō":{"ha":732,"x_min":0,"x_max":0,"o":"m 142 811 l 592 811 b 613 832 604 811 613 818 l 613 951 b 592 972 613 965 604 972 l 142 972 b 121 951 128 972 121 965 l 121 832 b 142 811 121 818 128 811 z m 322 -7 l 410 -7 b 664 236 589 -7 664 88 l 664 457 b 410 700 664 606 589 700 l 322 700 b 68 457 144 700 68 606 l 68 236 b 322 -7 68 88 144 -7 z m 331 153 b 247 239 282 153 247 179 l 247 454 b 331 540 247 514 282 540 l 401 540 b 485 454 451 540 485 514 l 485 239 b 401 153 485 179 451 153 z "},"ø":{"ha":732,"x_min":0,"x_max":0,"o":"m 593 644 l 615 686 b 600 708 622 701 614 708 l 503 708 b 478 694 492 708 485 704 b 410 700 457 699 435 700 l 322 700 b 68 457 144 700 68 606 l 68 236 b 140 47 68 154 90 90 l 117 1 b 132 -21 110 -14 118 -21 l 229 -21 b 257 -1 242 -21 250 -15 b 322 -7 276 -6 299 -7 l 410 -7 b 664 236 589 -7 664 88 l 664 457 b 593 644 664 538 642 601 z m 247 454 b 331 540 247 514 282 540 l 397 540 l 247 251 z m 401 153 l 338 153 l 485 436 l 485 239 b 401 153 485 179 451 153 z "},"õ":{"ha":732,"x_min":0,"x_max":0,"o":"m 457 768 b 597 817 504 768 547 778 b 611 849 608 825 617 833 l 572 944 b 546 953 568 953 560 960 b 461 924 511 933 496 924 b 276 979 392 924 372 979 b 135 932 229 979 186 969 b 122 899 124 922 117 914 l 161 803 b 188 797 165 794 174 789 b 272 824 219 817 238 824 b 457 768 340 824 360 768 z m 322 -7 l 410 -7 b 664 236 589 -7 664 88 l 664 457 b 410 700 664 606 589 700 l 322 700 b 68 457 144 700 68 606 l 68 236 b 322 -7 68 88 144 -7 z m 331 153 b 247 239 282 153 247 179 l 247 454 b 331 540 247 514 282 540 l 401 540 b 485 454 451 540 485 514 l 485 239 b 401 153 485 179 451 153 z "},"œ":{"ha":1135,"x_min":0,"x_max":0,"o":"m 813 700 l 740 700 b 575 658 669 700 615 685 b 410 700 535 685 481 700 l 322 700 b 68 457 144 700 68 606 l 68 236 b 322 -7 68 88 144 -7 l 410 -7 b 579 38 483 -7 539 8 b 776 -7 625 10 689 -7 l 797 -7 b 1042 79 896 -7 990 29 b 1040 104 1047 85 1047 94 l 999 168 b 969 178 992 179 981 182 b 797 146 931 160 890 146 l 782 146 b 664 238 701 146 664 183 l 664 275 l 1026 275 b 1067 317 1054 275 1067 290 l 1067 457 b 813 700 1067 606 992 700 z m 401 153 l 331 153 b 247 239 282 153 247 179 l 247 454 b 331 540 247 514 282 540 l 401 540 b 485 454 451 540 485 514 l 485 239 b 401 153 485 179 451 153 z m 889 406 l 664 406 l 664 454 b 749 540 664 514 699 540 l 804 540 b 889 456 854 540 889 514 z "},"p":{"ha":746,"x_min":0,"x_max":0,"o":"m 447 700 l 431 700 b 276 632 351 700 308 671 l 261 632 l 261 672 b 239 694 261 688 253 694 l 104 694 b 82 672 89 694 82 688 l 82 -224 b 104 -246 82 -239 89 -246 l 239 -246 b 261 -224 253 -246 261 -239 l 261 61 l 276 61 b 431 -7 308 22 351 -7 l 447 -7 b 678 228 606 -7 678 78 l 678 465 b 447 700 678 615 606 700 z m 499 243 b 414 153 499 185 464 153 l 346 153 b 261 244 296 153 261 185 l 261 449 b 346 540 261 508 296 540 l 414 540 b 499 450 464 540 499 508 z "},"þ":{"ha":746,"x_min":0,"x_max":0,"o":"m 447 700 l 431 700 b 276 632 351 700 308 671 l 261 632 l 261 950 b 239 972 261 965 253 972 l 104 972 b 82 950 89 972 82 965 l 82 -224 b 104 -246 82 -239 89 -246 l 239 -246 b 261 -224 253 -246 261 -239 l 261 61 l 276 61 b 431 -7 308 22 351 -7 l 447 -7 b 678 228 606 -7 678 78 l 678 465 b 447 700 678 615 606 700 z m 499 243 b 414 153 499 185 464 153 l 346 153 b 261 244 296 153 261 185 l 261 449 b 346 540 261 508 296 540 l 414 540 b 499 450 464 540 499 508 z "},"q":{"ha":746,"x_min":0,"x_max":0,"o":"m 299 700 b 68 465 142 700 68 615 l 68 228 b 299 -7 68 78 142 -7 l 315 -7 b 469 61 394 -7 438 22 l 485 61 l 485 -224 b 507 -246 485 -239 493 -246 l 643 -246 b 664 -224 657 -246 664 -239 l 664 672 b 643 694 664 688 657 694 l 507 694 b 485 672 493 694 485 688 l 485 632 l 469 632 b 315 700 438 671 394 700 z m 247 243 l 247 450 b 332 540 247 508 283 540 l 400 540 b 485 449 450 540 485 508 l 485 244 b 400 153 485 185 450 153 l 332 153 b 247 243 283 153 247 185 z "},"r":{"ha":685,"x_min":0,"x_max":0,"o":"m 104 0 l 240 0 b 261 22 250 0 261 7 l 261 447 b 357 540 261 508 300 540 l 389 540 b 476 450 449 540 476 507 b 499 426 476 436 483 426 l 618 426 b 638 450 629 426 638 436 l 638 493 b 453 700 638 631 590 700 l 442 700 b 282 624 367 700 311 671 l 261 624 l 261 672 b 240 694 261 688 250 694 l 104 694 b 82 672 89 694 82 688 l 82 22 b 104 0 82 7 89 0 z "},"ŕ":{"ha":685,"x_min":0,"x_max":0,"o":"m 367 947 l 299 788 b 313 763 290 771 297 763 l 428 763 b 463 788 442 763 453 774 l 585 947 b 571 972 597 963 586 972 l 396 972 b 367 947 382 972 375 964 z m 104 0 l 240 0 b 261 22 250 0 261 7 l 261 447 b 357 540 261 508 300 540 l 389 540 b 476 450 449 540 476 507 b 499 426 476 436 483 426 l 618 426 b 638 450 629 426 638 436 l 638 493 b 453 700 638 631 590 700 l 442 700 b 282 624 367 700 311 671 l 261 624 l 261 672 b 240 694 261 688 250 694 l 104 694 b 82 672 89 694 82 688 l 82 22 b 104 0 82 7 89 0 z "},"ř":{"ha":685,"x_min":0,"x_max":0,"o":"m 290 763 l 436 763 b 475 782 451 763 464 769 l 618 944 b 606 972 629 958 619 972 l 476 972 b 432 944 456 972 446 961 l 371 874 l 357 874 l 296 944 b 251 972 282 961 272 972 l 121 972 b 110 944 107 972 99 958 l 253 782 b 290 763 263 768 275 763 z m 104 0 l 240 0 b 261 22 250 0 261 7 l 261 447 b 357 540 261 508 300 540 l 389 540 b 476 450 449 540 476 507 b 499 426 476 436 483 426 l 618 426 b 638 450 629 426 638 436 l 638 493 b 453 700 638 631 590 700 l 442 700 b 282 624 367 700 311 671 l 261 624 l 261 672 b 240 694 261 688 250 694 l 104 694 b 82 672 89 694 82 688 l 82 22 b 104 0 82 7 89 0 z "},"ŗ":{"ha":685,"x_min":0,"x_max":0,"o":"m 104 0 l 240 0 b 261 22 250 0 261 7 l 261 447 b 357 540 261 508 300 540 l 389 540 b 476 450 449 540 476 507 b 499 426 476 436 483 426 l 618 426 b 638 450 629 426 638 436 l 638 493 b 453 700 638 631 590 700 l 442 700 b 282 624 367 700 311 671 l 261 624 l 261 672 b 240 694 261 688 250 694 l 104 694 b 82 672 89 694 82 688 l 82 22 b 104 0 82 7 89 0 z m 228 -83 l 113 -83 b 92 -104 99 -83 92 -90 l 92 -347 l 29 -347 b 8 -368 15 -347 8 -354 l 8 -475 b 29 -497 8 -489 15 -497 l 197 -497 b 249 -444 231 -497 249 -479 l 249 -104 b 228 -83 249 -90 242 -83 z "},"s":{"ha":696,"x_min":0,"x_max":0,"o":"m 313 -7 l 374 -7 b 635 210 550 -7 635 57 b 383 417 635 351 569 397 l 325 424 b 240 492 254 431 240 458 b 308 547 240 526 261 547 l 365 547 b 443 492 414 547 436 526 b 478 468 447 474 461 468 l 596 468 b 619 492 614 468 619 478 b 386 700 619 624 528 700 l 303 700 b 61 486 157 700 61 640 b 308 275 61 365 117 296 l 367 269 b 456 204 442 261 456 239 b 374 146 456 171 436 146 l 325 146 b 240 196 276 146 251 158 b 215 214 238 207 231 214 l 82 214 b 61 186 69 214 61 204 b 313 -7 61 57 150 -7 z "},"ś":{"ha":696,"x_min":0,"x_max":0,"o":"m 346 947 l 278 788 b 292 763 269 771 276 763 l 407 763 b 442 788 421 763 432 774 l 564 947 b 550 972 576 963 565 972 l 375 972 b 346 947 361 972 354 964 z m 313 -7 l 374 -7 b 635 210 550 -7 635 57 b 383 417 635 351 569 397 l 325 424 b 240 492 254 431 240 458 b 308 547 240 526 261 547 l 365 547 b 443 492 414 547 436 526 b 478 468 447 474 461 468 l 596 468 b 619 492 614 468 619 478 b 386 700 619 624 528 700 l 303 700 b 61 486 157 700 61 640 b 308 275 61 365 117 296 l 367 269 b 456 204 442 261 456 239 b 374 146 456 171 436 146 l 325 146 b 240 196 276 146 251 158 b 215 214 238 207 231 214 l 82 214 b 61 186 69 214 61 204 b 313 -7 61 57 150 -7 z "},"š":{"ha":696,"x_min":0,"x_max":0,"o":"m 269 763 l 415 763 b 454 782 431 763 443 769 l 597 944 b 585 972 608 958 599 972 l 456 972 b 411 944 435 972 425 961 l 350 874 l 336 874 l 275 944 b 231 972 261 961 251 972 l 100 972 b 89 944 86 972 78 958 l 232 782 b 269 763 242 768 254 763 z m 313 -7 l 374 -7 b 635 210 550 -7 635 57 b 383 417 635 351 569 397 l 325 424 b 240 492 254 431 240 458 b 308 547 240 526 261 547 l 365 547 b 443 492 414 547 436 526 b 478 468 447 474 461 468 l 596 468 b 619 492 614 468 619 478 b 386 700 619 624 528 700 l 303 700 b 61 486 157 700 61 640 b 308 275 61 365 117 296 l 367 269 b 456 204 442 261 456 239 b 374 146 456 171 436 146 l 325 146 b 240 196 276 146 251 158 b 215 214 238 207 231 214 l 82 214 b 61 186 69 214 61 204 b 313 -7 61 57 150 -7 z "},"ş":{"ha":696,"x_min":0,"x_max":0,"o":"m 463 -42 b 469 0 432 -39 401 -33 l 464 0 b 635 210 579 21 635 86 b 383 417 635 351 569 397 l 325 424 b 240 492 254 431 240 458 b 308 547 240 526 261 547 l 365 547 b 443 492 414 547 436 526 b 478 468 447 474 461 468 l 596 468 b 619 492 614 468 619 478 b 386 700 619 624 528 700 l 303 700 b 61 486 157 700 61 640 b 308 275 61 365 117 296 l 367 269 b 456 204 442 261 456 239 b 374 146 456 171 436 146 l 325 146 b 240 196 276 146 251 158 b 215 214 238 207 231 214 l 82 214 b 61 186 69 214 61 204 b 307 -7 61 58 147 -6 b 251 -82 268 -42 251 -56 b 307 -131 251 -115 276 -128 b 450 -165 428 -142 450 -144 b 410 -185 450 -181 433 -185 l 382 -185 b 346 -168 363 -185 351 -176 b 331 -154 344 -160 339 -154 l 224 -154 b 210 -172 213 -154 210 -161 b 332 -286 210 -240 240 -286 l 449 -286 b 586 -162 539 -286 586 -240 b 463 -42 586 -78 558 -51 z "},"ŝ":{"ha":696,"x_min":0,"x_max":0,"o":"m 271 972 b 233 953 256 972 243 967 l 90 789 b 101 763 79 776 88 763 l 232 763 b 276 789 253 763 263 774 l 338 861 l 351 861 l 413 789 b 457 763 426 774 436 763 l 586 763 b 599 789 600 763 610 776 l 456 953 b 417 972 444 964 432 972 z m 313 -7 l 374 -7 b 635 210 550 -7 635 57 b 383 417 635 351 569 397 l 325 424 b 240 492 254 431 240 458 b 308 547 240 526 261 547 l 365 547 b 443 492 414 547 436 526 b 478 468 447 474 461 468 l 596 468 b 619 492 614 468 619 478 b 386 700 619 624 528 700 l 303 700 b 61 486 157 700 61 640 b 308 275 61 365 117 296 l 367 269 b 456 204 442 261 456 239 b 374 146 456 171 436 146 l 325 146 b 240 196 276 146 251 158 b 215 214 238 207 231 214 l 82 214 b 61 186 69 214 61 204 b 313 -7 61 57 150 -7 z "},"ș":{"ha":696,"x_min":0,"x_max":0,"o":"m 313 -7 l 374 -7 b 635 210 550 -7 635 57 b 383 417 635 351 569 397 l 325 424 b 240 492 254 431 240 458 b 308 547 240 526 261 547 l 365 547 b 443 492 414 547 436 526 b 478 468 447 474 461 468 l 596 468 b 619 492 614 468 619 478 b 386 700 619 624 528 700 l 303 700 b 61 486 157 700 61 640 b 308 275 61 365 117 296 l 367 269 b 456 204 442 261 456 239 b 374 146 456 171 436 146 l 325 146 b 240 196 276 146 251 158 b 215 214 238 207 231 214 l 82 214 b 61 186 69 214 61 204 b 313 -7 61 57 150 -7 z m 399 -83 l 283 -83 b 263 -104 269 -83 263 -90 l 263 -347 l 200 -347 b 179 -368 186 -347 179 -354 l 179 -475 b 200 -497 179 -489 186 -497 l 368 -497 b 419 -444 401 -497 419 -479 l 419 -104 b 399 -83 419 -90 413 -83 z "},"ß":{"ha":828,"x_min":0,"x_max":0,"o":"m 104 0 l 239 0 b 261 22 253 0 261 7 l 261 732 b 344 819 261 792 294 819 l 456 819 b 540 732 507 819 540 792 l 540 672 b 456 599 540 618 518 599 l 422 599 b 399 575 406 599 399 590 l 399 463 b 422 440 399 447 406 440 l 456 440 b 581 326 551 440 581 401 l 581 260 b 454 158 581 172 546 158 l 422 158 b 399 135 406 158 399 151 l 399 24 b 422 0 399 7 406 0 l 454 0 b 760 260 668 0 760 44 l 760 326 b 614 514 760 433 707 496 l 614 531 b 719 672 707 553 719 622 l 719 735 b 464 979 719 883 653 979 l 336 979 b 82 735 149 979 82 883 l 82 22 b 104 0 82 7 89 0 z "},"t":{"ha":514,"x_min":0,"x_max":0,"o":"m 436 694 l 331 694 l 331 833 b 308 856 331 849 324 856 l 174 856 b 151 833 160 856 151 849 l 151 694 l 64 694 b 40 671 47 694 40 688 l 40 560 b 64 536 40 543 47 536 l 151 536 l 151 232 b 357 -7 151 94 172 -7 b 447 43 426 -7 447 8 l 447 114 b 408 150 447 138 438 150 b 331 228 356 150 331 171 l 331 536 l 436 536 b 460 560 453 536 460 543 l 460 671 b 436 694 460 688 453 694 z "},"ŧ":{"ha":514,"x_min":0,"x_max":0,"o":"m 436 536 b 460 560 453 536 460 543 l 460 671 b 436 694 460 688 453 694 l 331 694 l 331 833 b 308 856 331 849 324 856 l 174 856 b 151 833 160 856 151 849 l 151 694 l 64 694 b 40 671 47 694 40 688 l 40 560 b 64 536 40 543 47 536 l 151 536 l 151 464 l 64 464 b 40 440 47 464 40 457 l 40 329 b 64 306 40 313 47 306 l 151 306 l 151 232 b 357 -7 151 94 172 -7 b 447 43 426 -7 447 8 l 447 114 b 408 150 447 138 438 150 b 331 228 356 150 331 171 l 331 306 l 436 306 b 460 329 453 306 460 313 l 460 440 b 436 464 460 457 453 464 l 331 464 l 331 536 z "},"ť":{"ha":497,"x_min":0,"x_max":0,"o":"m 596 1158 l 481 1158 b 460 1136 467 1158 460 1150 l 460 894 l 397 894 b 376 872 383 894 376 886 l 376 767 b 397 744 376 753 383 744 l 565 744 b 617 796 599 744 617 763 l 617 1136 b 596 1158 617 1150 610 1158 z m 436 694 l 331 694 l 331 833 b 308 856 331 849 324 856 l 174 856 b 151 833 160 856 151 849 l 151 694 l 64 694 b 40 671 47 694 40 688 l 40 560 b 64 536 40 543 47 536 l 151 536 l 151 232 b 357 -7 151 94 172 -7 b 447 43 426 -7 447 8 l 447 114 b 408 150 447 138 438 150 b 331 228 356 150 331 171 l 331 536 l 436 536 b 460 560 453 536 460 543 l 460 671 b 436 694 460 688 453 694 z "},"ţ":{"ha":493,"x_min":0,"x_max":0,"o":"m 404 -36 b 390 -6 378 -33 350 -29 b 447 43 433 -1 447 15 l 447 114 b 408 150 447 138 438 150 b 331 228 356 150 331 171 l 331 536 l 436 536 b 460 560 453 536 460 543 l 460 671 b 436 694 460 688 453 694 l 331 694 l 331 833 b 308 856 331 849 324 856 l 174 856 b 151 833 160 856 151 849 l 151 694 l 64 694 b 40 671 47 694 40 688 l 40 560 b 64 536 40 543 47 536 l 151 536 l 151 232 b 263 6 151 124 164 36 l 256 6 b 193 -76 211 -35 193 -49 b 249 -125 193 -110 218 -122 b 390 -160 368 -136 390 -139 b 350 -179 390 -175 374 -179 l 324 -179 b 288 -162 304 -179 292 -171 b 271 -149 285 -154 281 -149 l 165 -149 b 150 -167 153 -149 150 -156 b 274 -281 150 -235 182 -281 l 389 -281 b 526 -157 479 -281 526 -235 b 404 -36 526 -72 499 -46 z "},"ț":{"ha":514,"x_min":0,"x_max":0,"o":"m 436 694 l 331 694 l 331 833 b 308 856 331 849 324 856 l 174 856 b 151 833 160 856 151 849 l 151 694 l 64 694 b 40 671 47 694 40 688 l 40 560 b 64 536 40 543 47 536 l 151 536 l 151 232 b 357 -7 151 94 172 -7 b 447 43 426 -7 447 8 l 447 114 b 408 150 447 138 438 150 b 331 228 356 150 331 171 l 331 536 l 436 536 b 460 560 453 536 460 543 l 460 671 b 436 694 460 688 453 694 z m 342 -83 l 226 -83 b 206 -104 213 -83 206 -90 l 206 -347 l 143 -347 b 122 -368 129 -347 122 -354 l 122 -475 b 143 -497 122 -489 129 -497 l 311 -497 b 363 -444 344 -497 363 -479 l 363 -104 b 342 -83 363 -90 356 -83 z "},"u":{"ha":760,"x_min":0,"x_max":0,"o":"m 657 694 l 519 694 b 499 672 510 694 499 688 l 499 247 b 407 154 499 186 460 154 l 343 154 b 261 246 293 154 261 186 l 261 672 b 239 694 261 688 253 694 l 101 694 b 82 672 93 694 82 688 l 82 229 b 299 -6 82 79 142 -6 l 315 -6 b 479 71 390 -6 449 22 l 499 71 l 499 22 b 519 0 499 7 510 0 l 657 0 b 678 22 671 0 678 7 l 678 672 b 657 694 678 688 671 694 z "},"ú":{"ha":760,"x_min":0,"x_max":0,"o":"m 374 947 l 306 788 b 319 763 297 771 304 763 l 435 763 b 469 788 449 763 460 774 l 592 947 b 578 972 604 963 593 972 l 403 972 b 374 947 389 972 382 964 z m 657 694 l 519 694 b 499 672 510 694 499 688 l 499 247 b 407 154 499 186 460 154 l 343 154 b 261 246 293 154 261 186 l 261 672 b 239 694 261 688 253 694 l 101 694 b 82 672 93 694 82 688 l 82 229 b 299 -6 82 79 142 -6 l 315 -6 b 479 71 390 -6 449 22 l 499 71 l 499 22 b 519 0 499 7 510 0 l 657 0 b 678 22 671 0 678 7 l 678 672 b 657 694 678 688 671 694 z "},"ŭ":{"ha":760,"x_min":0,"x_max":0,"o":"m 326 750 l 414 750 b 608 950 547 750 608 815 b 586 972 608 965 600 972 l 483 972 b 461 950 469 972 464 965 b 388 872 457 910 444 872 l 351 872 b 278 950 294 872 283 910 b 257 972 276 965 271 972 l 153 972 b 132 950 139 972 132 965 b 326 750 132 815 193 750 z m 657 694 l 519 694 b 499 672 510 694 499 688 l 499 247 b 407 154 499 186 460 154 l 343 154 b 261 246 293 154 261 186 l 261 672 b 239 694 261 688 253 694 l 101 694 b 82 672 93 694 82 688 l 82 229 b 299 -6 82 79 142 -6 l 315 -6 b 479 71 390 -6 449 22 l 499 71 l 499 22 b 519 0 499 7 510 0 l 657 0 b 678 22 671 0 678 7 l 678 672 b 657 694 678 688 671 694 z "},"ǔ":{"ha":760,"x_min":0,"x_max":0,"o":"m 297 763 l 443 763 b 482 782 458 763 471 769 l 625 944 b 613 972 636 958 626 972 l 483 972 b 439 944 463 972 453 961 l 378 874 l 364 874 l 303 944 b 258 972 289 961 279 972 l 128 972 b 117 944 114 972 106 958 l 260 782 b 297 763 269 768 282 763 z m 657 694 l 519 694 b 499 672 510 694 499 688 l 499 247 b 407 154 499 186 460 154 l 343 154 b 261 246 293 154 261 186 l 261 672 b 239 694 261 688 253 694 l 101 694 b 82 672 93 694 82 688 l 82 229 b 299 -6 82 79 142 -6 l 315 -6 b 479 71 390 -6 449 22 l 499 71 l 499 22 b 519 0 499 7 510 0 l 657 0 b 678 22 671 0 678 7 l 678 672 b 657 694 678 688 671 694 z "},"û":{"ha":760,"x_min":0,"x_max":0,"o":"m 299 972 b 261 953 283 972 271 967 l 118 789 b 129 763 107 776 115 763 l 260 763 b 304 789 281 763 290 774 l 365 861 l 379 861 l 440 789 b 485 763 454 774 464 763 l 614 763 b 626 789 628 763 638 776 l 483 953 b 444 972 472 964 460 972 z m 657 694 l 519 694 b 499 672 510 694 499 688 l 499 247 b 407 154 499 186 460 154 l 343 154 b 261 246 293 154 261 186 l 261 672 b 239 694 261 688 253 694 l 101 694 b 82 672 93 694 82 688 l 82 229 b 299 -6 82 79 142 -6 l 315 -6 b 479 71 390 -6 449 22 l 499 71 l 499 22 b 519 0 499 7 510 0 l 657 0 b 678 22 671 0 678 7 l 678 672 b 657 694 678 688 671 694 z "},"ü":{"ha":760,"x_min":0,"x_max":0,"o":"m 97 789 l 239 789 b 260 810 253 789 260 796 l 260 951 b 239 972 260 965 253 972 l 97 972 b 76 951 83 972 76 965 l 76 810 b 97 789 76 796 83 789 z m 503 789 l 644 789 b 665 810 658 789 665 796 l 665 951 b 644 972 665 965 658 972 l 503 972 b 482 951 489 972 482 965 l 482 810 b 503 789 482 796 489 789 z m 657 694 l 519 694 b 499 672 510 694 499 688 l 499 247 b 407 154 499 186 460 154 l 343 154 b 261 246 293 154 261 186 l 261 672 b 239 694 261 688 253 694 l 101 694 b 82 672 93 694 82 688 l 82 229 b 299 -6 82 79 142 -6 l 315 -6 b 479 71 390 -6 449 22 l 499 71 l 499 22 b 519 0 499 7 510 0 l 657 0 b 678 22 671 0 678 7 l 678 672 b 657 694 678 688 671 694 z "},"ù":{"ha":760,"x_min":0,"x_max":0,"o":"m 375 947 b 346 972 367 964 360 972 l 171 972 b 157 947 156 972 144 963 l 281 788 b 314 763 289 774 300 763 l 429 763 b 443 788 446 763 451 771 z m 657 694 l 519 694 b 499 672 510 694 499 688 l 499 247 b 407 154 499 186 460 154 l 343 154 b 261 246 293 154 261 186 l 261 672 b 239 694 261 688 253 694 l 101 694 b 82 672 93 694 82 688 l 82 229 b 299 -6 82 79 142 -6 l 315 -6 b 479 71 390 -6 449 22 l 499 71 l 499 22 b 519 0 499 7 510 0 l 657 0 b 678 22 671 0 678 7 l 678 672 b 657 694 678 688 671 694 z "},"ű":{"ha":760,"x_min":0,"x_max":0,"o":"m 228 947 l 160 788 b 174 763 151 771 158 763 l 289 763 b 324 788 303 763 314 774 l 446 947 b 432 972 458 963 447 972 l 257 972 b 228 947 243 972 236 964 z m 504 947 l 436 788 b 450 763 428 771 433 763 l 565 763 b 599 788 579 763 590 774 l 722 947 b 708 972 735 963 724 972 l 533 972 b 504 947 519 972 513 964 z m 657 694 l 519 694 b 499 672 510 694 499 688 l 499 247 b 407 154 499 186 460 154 l 343 154 b 261 246 293 154 261 186 l 261 672 b 239 694 261 688 253 694 l 101 694 b 82 672 93 694 82 688 l 82 229 b 299 -6 82 79 142 -6 l 315 -6 b 479 71 390 -6 449 22 l 499 71 l 499 22 b 519 0 499 7 510 0 l 657 0 b 678 22 671 0 678 7 l 678 672 b 657 694 678 688 671 694 z "},"ū":{"ha":760,"x_min":0,"x_max":0,"o":"m 146 811 l 596 811 b 617 832 608 811 617 818 l 617 951 b 596 972 617 965 608 972 l 146 972 b 125 951 132 972 125 965 l 125 832 b 146 811 125 818 132 811 z m 657 694 l 519 694 b 499 672 510 694 499 688 l 499 247 b 407 154 499 186 460 154 l 343 154 b 261 246 293 154 261 186 l 261 672 b 239 694 261 688 253 694 l 101 694 b 82 672 93 694 82 688 l 82 229 b 299 -6 82 79 142 -6 l 315 -6 b 479 71 390 -6 449 22 l 499 71 l 499 22 b 519 0 499 7 510 0 l 657 0 b 678 22 671 0 678 7 l 678 672 b 657 694 678 688 671 694 z "},"ų":{"ha":760,"x_min":0,"x_max":0,"o":"m 657 694 l 519 694 b 499 672 510 694 499 688 l 499 247 b 407 154 499 186 460 154 l 343 154 b 261 246 293 154 261 186 l 261 672 b 239 694 261 688 253 694 l 101 694 b 82 672 93 694 82 688 l 82 229 b 299 -6 82 79 142 -6 l 315 -6 b 479 71 390 -6 449 22 l 499 71 l 499 28 l 481 28 l 481 -3 b 432 -37 481 -36 463 -35 l 381 -43 b 282 -161 304 -51 282 -69 b 425 -287 282 -268 314 -287 l 624 -287 b 638 -274 633 -287 638 -282 l 638 -187 b 624 -171 638 -178 632 -171 l 458 -171 b 442 -158 446 -171 442 -167 b 458 -143 442 -149 444 -144 l 558 -132 b 658 -50 625 -122 658 -118 l 658 0 b 678 22 671 0 678 7 l 678 672 b 657 694 678 688 671 694 z "},"ů":{"ha":760,"x_min":0,"x_max":0,"o":"m 379 994 l 361 994 b 244 878 293 994 244 943 l 244 863 b 361 747 244 797 293 747 l 379 747 b 496 863 447 747 496 797 l 496 878 b 379 994 496 943 447 994 z m 403 876 l 403 867 b 376 840 403 853 392 840 l 364 840 b 339 867 350 840 339 853 l 339 876 b 364 901 339 889 350 901 l 376 901 b 403 876 392 901 403 889 z m 657 694 l 519 694 b 499 672 510 694 499 688 l 499 247 b 407 154 499 186 460 154 l 343 154 b 261 246 293 154 261 186 l 261 672 b 239 694 261 688 253 694 l 101 694 b 82 672 93 694 82 688 l 82 229 b 299 -6 82 79 142 -6 l 315 -6 b 479 71 390 -6 449 22 l 499 71 l 499 22 b 519 0 499 7 510 0 l 657 0 b 678 22 671 0 678 7 l 678 672 b 657 694 678 688 671 694 z "},"ũ":{"ha":760,"x_min":0,"x_max":0,"o":"m 461 768 b 601 817 508 768 551 778 b 615 849 613 825 621 833 l 576 944 b 550 953 572 953 564 960 b 465 924 515 933 500 924 b 281 979 396 924 376 979 b 139 932 233 979 190 969 b 126 899 128 922 121 914 l 165 803 b 192 797 169 794 178 789 b 276 824 224 817 242 824 b 461 768 344 824 364 768 z m 657 694 l 519 694 b 499 672 510 694 499 688 l 499 247 b 407 154 499 186 460 154 l 343 154 b 261 246 293 154 261 186 l 261 672 b 239 694 261 688 253 694 l 101 694 b 82 672 93 694 82 688 l 82 229 b 299 -6 82 79 142 -6 l 315 -6 b 479 71 390 -6 449 22 l 499 71 l 499 22 b 519 0 499 7 510 0 l 657 0 b 678 22 671 0 678 7 l 678 672 b 657 694 678 688 671 694 z "},"v":{"ha":750,"x_min":0,"x_max":0,"o":"m 269 0 l 481 0 b 515 29 497 0 510 8 l 701 671 b 683 694 706 686 697 694 l 546 694 b 521 669 533 694 525 686 l 381 168 l 369 168 l 229 669 b 203 694 225 686 217 694 l 67 694 b 49 671 53 694 44 686 l 235 29 b 269 0 240 8 251 0 z "},"w":{"ha":1100,"x_min":0,"x_max":0,"o":"m 225 0 l 425 0 b 460 29 443 0 456 8 l 546 417 l 554 417 l 640 29 b 675 0 644 8 657 0 l 875 0 b 908 29 892 0 904 8 l 1053 671 b 1036 694 1056 686 1050 694 l 901 694 b 876 671 888 694 879 686 l 774 167 l 764 167 l 649 671 b 622 694 644 686 636 694 l 478 694 b 451 671 464 694 456 686 l 336 167 l 326 167 l 224 671 b 199 694 221 686 213 694 l 64 694 b 47 671 50 694 44 686 l 192 29 b 225 0 196 8 208 0 z "},"ẃ":{"ha":1100,"x_min":0,"x_max":0,"o":"m 553 947 l 485 788 b 499 763 476 771 483 763 l 614 763 b 649 788 628 763 639 774 l 771 947 b 757 972 783 963 772 972 l 582 972 b 553 947 568 972 561 964 z m 225 0 l 425 0 b 460 29 443 0 456 8 l 546 417 l 554 417 l 640 29 b 675 0 644 8 657 0 l 875 0 b 908 29 892 0 904 8 l 1053 671 b 1036 694 1056 686 1050 694 l 901 694 b 876 671 888 694 879 686 l 774 167 l 764 167 l 649 671 b 622 694 644 686 636 694 l 478 694 b 451 671 464 694 456 686 l 336 167 l 326 167 l 224 671 b 199 694 221 686 213 694 l 64 694 b 47 671 50 694 44 686 l 192 29 b 225 0 196 8 208 0 z "},"ŵ":{"ha":1100,"x_min":0,"x_max":0,"o":"m 478 972 b 440 953 463 972 450 967 l 297 789 b 308 763 286 776 294 763 l 439 763 b 483 789 460 763 469 774 l 544 861 l 558 861 l 619 789 b 664 763 633 774 643 763 l 793 763 b 806 789 807 763 817 776 l 663 953 b 624 972 651 964 639 972 z m 225 0 l 425 0 b 460 29 443 0 456 8 l 546 417 l 554 417 l 640 29 b 675 0 644 8 657 0 l 875 0 b 908 29 892 0 904 8 l 1053 671 b 1036 694 1056 686 1050 694 l 901 694 b 876 671 888 694 879 686 l 774 167 l 764 167 l 649 671 b 622 694 644 686 636 694 l 478 694 b 451 671 464 694 456 686 l 336 167 l 326 167 l 224 671 b 199 694 221 686 213 694 l 64 694 b 47 671 50 694 44 686 l 192 29 b 225 0 196 8 208 0 z "},"ẅ":{"ha":1100,"x_min":0,"x_max":0,"o":"m 276 789 l 418 789 b 439 810 432 789 439 796 l 439 951 b 418 972 439 965 432 972 l 276 972 b 256 951 263 972 256 965 l 256 810 b 276 789 256 796 263 789 z m 682 789 l 824 789 b 844 810 838 789 844 796 l 844 951 b 824 972 844 965 838 972 l 682 972 b 661 951 668 972 661 965 l 661 810 b 682 789 661 796 668 789 z m 225 0 l 425 0 b 460 29 443 0 456 8 l 546 417 l 554 417 l 640 29 b 675 0 644 8 657 0 l 875 0 b 908 29 892 0 904 8 l 1053 671 b 1036 694 1056 686 1050 694 l 901 694 b 876 671 888 694 879 686 l 774 167 l 764 167 l 649 671 b 622 694 644 686 636 694 l 478 694 b 451 671 464 694 456 686 l 336 167 l 326 167 l 224 671 b 199 694 221 686 213 694 l 64 694 b 47 671 50 694 44 686 l 192 29 b 225 0 196 8 208 0 z "},"ẁ":{"ha":1100,"x_min":0,"x_max":0,"o":"m 554 947 b 525 972 546 964 539 972 l 350 972 b 336 947 335 972 324 963 l 460 788 b 493 763 468 774 479 763 l 608 763 b 622 788 625 763 631 771 z m 225 0 l 425 0 b 460 29 443 0 456 8 l 546 417 l 554 417 l 640 29 b 675 0 644 8 657 0 l 875 0 b 908 29 892 0 904 8 l 1053 671 b 1036 694 1056 686 1050 694 l 901 694 b 876 671 888 694 879 686 l 774 167 l 764 167 l 649 671 b 622 694 644 686 636 694 l 478 694 b 451 671 464 694 456 686 l 336 167 l 326 167 l 224 671 b 199 694 221 686 213 694 l 64 694 b 47 671 50 694 44 686 l 192 29 b 225 0 196 8 208 0 z "},"x":{"ha":679,"x_min":0,"x_max":0,"o":"m 69 0 l 208 0 b 240 26 219 0 229 4 l 333 200 l 346 200 l 438 26 b 469 0 449 4 458 0 l 611 0 b 626 28 629 0 635 13 l 447 346 l 629 667 b 614 694 638 682 631 694 l 476 694 b 442 668 464 694 453 690 l 346 492 l 333 492 l 238 668 b 203 694 226 690 215 694 l 65 694 b 50 667 49 694 42 682 l 232 346 l 53 28 b 69 0 44 13 50 0 z "},"y":{"ha":781,"x_min":0,"x_max":0,"o":"m 714 694 l 578 694 b 553 671 564 694 558 686 l 397 217 l 386 217 l 228 671 b 203 694 222 686 217 694 l 67 694 b 49 671 53 694 43 686 l 301 -10 l 222 -222 b 240 -246 217 -237 226 -246 l 375 -246 b 403 -222 390 -246 397 -237 l 732 671 b 714 694 738 686 728 694 z "},"ý":{"ha":781,"x_min":0,"x_max":0,"o":"m 394 947 l 326 788 b 340 763 318 771 325 763 l 456 763 b 490 788 469 763 481 774 l 613 947 b 599 972 625 963 614 972 l 424 972 b 394 947 410 972 403 964 z m 714 694 l 578 694 b 553 671 564 694 558 686 l 397 217 l 386 217 l 228 671 b 203 694 222 686 217 694 l 67 694 b 49 671 53 694 43 686 l 301 -10 l 222 -222 b 240 -246 217 -237 226 -246 l 375 -246 b 403 -222 390 -246 397 -237 l 732 671 b 714 694 738 686 728 694 z "},"ŷ":{"ha":781,"x_min":0,"x_max":0,"o":"m 319 972 b 282 953 304 972 292 967 l 139 789 b 150 763 128 776 136 763 l 281 763 b 325 789 301 763 311 774 l 386 861 l 400 861 l 461 789 b 506 763 475 774 485 763 l 635 763 b 647 789 649 763 658 776 l 504 953 b 465 972 493 964 481 972 z m 714 694 l 578 694 b 553 671 564 694 558 686 l 397 217 l 386 217 l 228 671 b 203 694 222 686 217 694 l 67 694 b 49 671 53 694 43 686 l 301 -10 l 222 -222 b 240 -246 217 -237 226 -246 l 375 -246 b 403 -222 390 -246 397 -237 l 732 671 b 714 694 738 686 728 694 z "},"ÿ":{"ha":781,"x_min":0,"x_max":0,"o":"m 118 789 l 260 789 b 281 810 274 789 281 796 l 281 951 b 260 972 281 965 274 972 l 118 972 b 97 951 104 972 97 965 l 97 810 b 118 789 97 796 104 789 z m 524 789 l 665 789 b 686 810 679 789 686 796 l 686 951 b 665 972 686 965 679 972 l 524 972 b 503 951 510 972 503 965 l 503 810 b 524 789 503 796 510 789 z m 714 694 l 578 694 b 553 671 564 694 558 686 l 397 217 l 386 217 l 228 671 b 203 694 222 686 217 694 l 67 694 b 49 671 53 694 43 686 l 301 -10 l 222 -222 b 240 -246 217 -237 226 -246 l 375 -246 b 403 -222 390 -246 397 -237 l 732 671 b 714 694 738 686 728 694 z "},"ỳ":{"ha":781,"x_min":0,"x_max":0,"o":"m 396 947 b 367 972 388 964 381 972 l 192 972 b 178 947 176 972 165 963 l 301 788 b 335 763 310 774 321 763 l 450 763 b 464 788 467 763 472 771 z m 714 694 l 578 694 b 553 671 564 694 558 686 l 397 217 l 386 217 l 228 671 b 203 694 222 686 217 694 l 67 694 b 49 671 53 694 43 686 l 301 -10 l 222 -222 b 240 -246 217 -237 226 -246 l 375 -246 b 403 -222 390 -246 397 -237 l 732 671 b 714 694 738 686 728 694 z "},"z":{"ha":599,"x_min":0,"x_max":0,"o":"m 69 0 l 522 0 b 544 22 538 0 544 7 l 544 138 b 521 158 544 151 538 158 l 247 158 l 247 168 l 538 526 b 544 549 542 532 544 542 l 544 672 b 521 694 544 688 538 694 l 79 694 b 57 671 65 694 57 688 l 57 557 b 79 536 57 543 65 536 l 343 536 l 343 526 l 54 168 b 47 143 49 161 47 151 l 47 22 b 69 0 47 7 54 0 z "},"ź":{"ha":599,"x_min":0,"x_max":0,"o":"m 307 947 l 239 788 b 253 763 231 771 238 763 l 368 763 b 403 788 382 763 393 774 l 525 947 b 511 972 538 963 526 972 l 336 972 b 307 947 322 972 315 964 z m 69 0 l 522 0 b 544 22 538 0 544 7 l 544 138 b 521 158 544 151 538 158 l 247 158 l 247 168 l 538 526 b 544 549 542 532 544 542 l 544 672 b 521 694 544 688 538 694 l 79 694 b 57 671 65 694 57 688 l 57 557 b 79 536 57 543 65 536 l 343 536 l 343 526 l 54 168 b 47 143 49 161 47 151 l 47 22 b 69 0 47 7 54 0 z "},"ž":{"ha":599,"x_min":0,"x_max":0,"o":"m 229 763 l 375 763 b 414 782 390 763 403 769 l 557 944 b 544 972 568 958 558 972 l 415 972 b 371 944 394 972 385 961 l 310 874 l 296 874 l 235 944 b 190 972 221 961 211 972 l 60 972 b 49 944 46 972 38 958 l 192 782 b 229 763 201 768 214 763 z m 69 0 l 522 0 b 544 22 538 0 544 7 l 544 138 b 521 158 544 151 538 158 l 247 158 l 247 168 l 538 526 b 544 549 542 532 544 542 l 544 672 b 521 694 544 688 538 694 l 79 694 b 57 671 65 694 57 688 l 57 557 b 79 536 57 543 65 536 l 343 536 l 343 526 l 54 168 b 47 143 49 161 47 151 l 47 22 b 69 0 47 7 54 0 z "},"ż":{"ha":599,"x_min":0,"x_max":0,"o":"m 232 789 l 374 789 b 394 810 388 789 394 796 l 394 951 b 374 972 394 965 388 972 l 232 972 b 211 951 218 972 211 965 l 211 810 b 232 789 211 796 218 789 z m 69 0 l 522 0 b 544 22 538 0 544 7 l 544 138 b 521 158 544 151 538 158 l 247 158 l 247 168 l 538 526 b 544 549 542 532 544 542 l 544 672 b 521 694 544 688 538 694 l 79 694 b 57 671 65 694 57 688 l 57 557 b 79 536 57 543 65 536 l 343 536 l 343 526 l 54 168 b 47 143 49 161 47 151 l 47 22 b 69 0 47 7 54 0 z "},"ﬁ":{"ha":835,"x_min":0,"x_max":0,"o":"m 731 694 l 338 694 l 338 728 b 424 813 338 782 367 813 l 483 813 b 504 833 497 813 504 819 l 504 951 b 483 972 504 965 497 972 l 390 972 b 158 743 225 972 158 890 l 158 694 l 69 694 b 47 672 54 694 47 688 l 47 557 b 69 536 47 543 54 536 l 158 536 l 158 22 b 181 0 158 7 165 0 l 315 0 b 338 22 329 0 338 7 l 338 536 l 574 536 l 574 22 b 596 0 574 7 582 0 l 731 0 b 753 22 746 0 753 7 l 753 672 b 731 694 753 688 746 694 z "},"ﬂ":{"ha":858,"x_min":0,"x_max":0,"o":"m 754 972 l 390 972 b 158 743 225 972 158 890 l 158 694 l 69 694 b 47 672 54 694 47 688 l 47 557 b 69 536 47 543 54 536 l 158 536 l 158 22 b 181 0 158 7 165 0 l 315 0 b 338 22 329 0 338 7 l 338 536 l 476 536 b 499 557 492 536 499 543 l 499 672 b 476 694 499 688 492 694 l 338 694 l 338 728 b 424 813 338 782 367 813 l 597 813 l 597 22 b 619 0 597 7 606 0 l 754 0 b 776 22 769 0 776 7 l 776 950 b 754 972 776 965 769 972 z "},"ª":{"ha":449,"x_min":0,"x_max":0,"o":"m 254 979 l 225 979 b 100 947 176 979 133 967 b 94 924 93 943 92 932 l 113 882 b 133 876 117 872 125 874 b 213 890 158 886 188 890 l 235 890 b 289 842 268 890 289 878 l 186 842 b 69 732 106 842 69 804 b 186 624 69 654 119 624 l 204 624 b 289 661 233 624 263 639 l 289 640 b 306 624 289 628 294 624 l 361 624 b 379 640 371 624 379 628 l 379 842 b 254 979 379 924 332 979 z m 221 710 l 197 710 b 163 733 175 710 163 718 b 197 756 163 750 175 756 l 289 756 l 289 726 b 221 710 272 717 250 710 z "},"º":{"ha":474,"x_min":0,"x_max":0,"o":"m 261 979 l 213 979 b 69 831 128 979 69 917 l 69 774 b 213 624 69 685 128 624 l 261 624 b 404 774 344 624 404 685 l 404 831 b 261 979 404 917 344 979 z m 313 824 l 313 782 b 260 717 313 747 288 717 l 217 717 b 161 782 183 717 161 747 l 161 824 b 217 886 161 860 183 886 l 260 886 b 313 824 288 886 313 860 z "},"А":{"ha":869,"x_min":0,"x_max":0,"o":"m 821 28 l 579 950 b 553 972 575 964 565 972 l 318 972 b 292 950 306 972 296 964 l 49 28 b 67 0 44 13 53 0 l 208 0 b 235 28 222 0 231 13 l 268 157 l 601 157 l 635 28 b 663 0 639 13 649 0 l 803 0 b 821 28 817 0 825 13 z m 310 315 l 425 764 l 446 764 l 561 315 z "},"Б":{"ha":849,"x_min":0,"x_max":0,"o":"m 494 724 l 272 724 l 272 808 l 583 808 b 604 829 597 808 604 815 l 604 951 b 583 972 604 965 597 972 l 110 972 b 89 951 96 972 89 965 l 89 21 b 110 0 89 7 96 0 l 494 0 b 781 288 696 0 781 113 l 781 438 b 494 724 781 611 696 724 z m 597 292 b 479 164 597 197 553 164 l 272 164 l 272 560 l 479 560 b 597 432 553 560 597 529 z "},"В":{"ha":846,"x_min":0,"x_max":0,"o":"m 639 507 l 639 519 b 746 718 721 561 746 617 b 485 972 746 894 669 972 l 110 972 b 89 951 96 972 89 965 l 89 21 b 110 0 89 7 96 0 l 488 0 b 778 257 686 0 778 69 l 778 314 b 639 507 778 407 729 474 z m 563 707 l 563 674 b 457 572 563 589 521 572 l 272 572 l 272 808 l 457 808 b 563 707 524 808 563 793 z m 594 267 b 474 164 594 186 553 164 l 272 164 l 272 426 l 474 426 b 594 318 553 426 594 400 z "},"Г":{"ha":692,"x_min":0,"x_max":0,"o":"m 615 972 l 110 972 b 89 951 96 972 89 965 l 89 21 b 110 0 89 7 96 0 l 251 0 b 272 21 265 0 272 7 l 272 808 l 615 808 b 636 829 629 808 636 815 l 636 951 b 615 972 636 965 629 972 z "},"Ѓ":{"ha":692,"x_min":0,"x_max":0,"o":"m 300 1040 l 415 1040 b 450 1065 429 1040 440 1051 l 572 1225 b 558 1250 585 1240 574 1250 l 383 1250 b 354 1225 369 1250 363 1242 l 286 1065 b 300 1040 278 1049 285 1040 z m 615 972 l 110 972 b 89 951 96 972 89 965 l 89 21 b 110 0 89 7 96 0 l 251 0 b 272 21 265 0 272 7 l 272 808 l 615 808 b 636 829 629 808 636 815 l 636 951 b 615 972 636 965 629 972 z "},"Ґ":{"ha":692,"x_min":0,"x_max":0,"o":"m 615 1069 l 474 1069 b 453 1049 460 1069 453 1063 l 453 972 l 110 972 b 89 951 96 972 89 965 l 89 21 b 110 0 89 7 96 0 l 251 0 b 272 21 265 0 272 7 l 272 808 l 615 808 b 636 829 629 808 636 815 l 636 1049 b 615 1069 636 1063 629 1069 z "},"Д":{"ha":974,"x_min":0,"x_max":0,"o":"m 925 164 l 861 164 l 861 951 b 840 972 861 965 854 972 l 210 972 b 189 951 196 972 189 965 l 189 419 b 81 164 189 247 139 164 l 49 164 b 28 143 35 164 28 157 l 28 -114 b 49 -135 28 -128 35 -135 l 190 -135 b 211 -114 204 -135 211 -128 l 211 0 l 763 0 l 763 -114 b 783 -135 763 -128 769 -135 l 925 -135 b 946 -114 939 -135 946 -128 l 946 143 b 925 164 946 157 939 164 z m 314 164 b 372 419 354 217 372 299 l 372 808 l 678 808 l 678 164 z "},"Е":{"ha":739,"x_min":0,"x_max":0,"o":"m 110 0 l 671 0 b 692 21 685 0 692 7 l 692 143 b 671 164 692 157 685 164 l 272 164 l 272 407 l 631 407 b 651 428 644 407 651 414 l 651 544 b 631 567 651 558 644 567 l 272 567 l 272 808 l 663 808 b 683 829 676 808 683 815 l 683 951 b 663 972 683 965 676 972 l 110 972 b 89 951 96 972 89 965 l 89 21 b 110 0 89 7 96 0 z "},"Ё":{"ha":739,"x_min":0,"x_max":0,"o":"m 111 1067 l 253 1067 b 274 1088 267 1067 274 1074 l 274 1229 b 253 1250 274 1243 267 1250 l 111 1250 b 90 1229 97 1250 90 1243 l 90 1088 b 111 1067 90 1074 97 1067 z m 517 1067 l 658 1067 b 679 1088 672 1067 679 1074 l 679 1229 b 658 1250 679 1243 672 1250 l 517 1250 b 496 1229 503 1250 496 1243 l 496 1088 b 517 1067 496 1074 503 1067 z m 110 0 l 671 0 b 692 21 685 0 692 7 l 692 143 b 671 164 692 157 685 164 l 272 164 l 272 407 l 631 407 b 651 428 644 407 651 414 l 651 544 b 631 567 651 558 644 567 l 272 567 l 272 808 l 663 808 b 683 829 676 808 683 815 l 683 951 b 663 972 683 965 676 972 l 110 972 b 89 951 96 972 89 965 l 89 21 b 110 0 89 7 96 0 z "},"Ж":{"ha":1378,"x_min":0,"x_max":0,"o":"m 1325 35 l 982 540 l 1304 936 b 1296 972 1319 954 1313 972 l 1138 972 b 1099 950 1119 972 1110 964 l 781 550 l 781 951 b 760 972 781 965 774 972 l 618 972 b 597 951 604 972 597 965 l 597 550 l 279 950 b 240 972 268 964 258 972 l 82 972 b 74 936 65 972 58 954 l 396 540 l 53 35 b 61 0 46 24 43 0 l 222 0 b 260 19 233 0 249 3 l 514 396 l 597 293 l 597 21 b 618 0 597 7 604 0 l 760 0 b 781 21 774 0 781 7 l 781 293 l 864 396 l 1118 19 b 1156 0 1129 3 1144 0 l 1317 0 b 1325 35 1335 0 1332 24 z "},"З":{"ha":815,"x_min":0,"x_max":0,"o":"m 583 492 l 583 506 b 735 711 682 529 735 572 b 454 979 735 860 661 979 l 376 979 b 79 719 171 979 79 894 l 79 692 b 101 669 79 678 86 669 l 236 669 b 258 692 250 669 258 678 b 378 819 258 789 301 819 l 444 819 b 556 711 515 819 556 781 b 426 578 556 638 546 578 l 357 578 b 333 554 340 578 333 571 l 333 443 b 357 419 333 426 340 419 l 426 419 b 571 263 546 419 571 364 b 460 153 571 193 532 153 l 367 153 b 247 281 290 153 247 183 b 225 303 247 294 239 303 l 90 303 b 68 281 75 303 68 294 l 68 253 b 365 -7 68 78 160 -7 l 469 -7 b 750 263 676 -7 750 115 b 583 492 750 433 682 469 z "},"И":{"ha":917,"x_min":0,"x_max":0,"o":"m 807 0 b 828 21 821 0 828 7 l 828 951 b 807 972 828 965 821 972 l 568 972 b 543 957 557 972 547 968 l 285 239 l 272 239 l 272 951 b 251 972 272 965 265 972 l 110 972 b 89 951 96 972 89 965 l 89 21 b 110 0 89 7 96 0 l 349 0 b 374 15 360 0 369 4 l 632 733 l 644 733 l 644 21 b 665 0 644 7 651 0 z "},"Й":{"ha":917,"x_min":0,"x_max":0,"o":"m 399 1028 l 486 1028 b 681 1228 619 1028 681 1093 b 658 1250 681 1243 672 1250 l 556 1250 b 533 1228 542 1250 536 1243 b 460 1150 529 1188 517 1150 l 424 1150 b 350 1228 367 1150 356 1188 b 329 1250 349 1243 343 1250 l 225 1250 b 204 1228 211 1250 204 1243 b 399 1028 204 1093 265 1028 z m 807 0 b 828 21 821 0 828 7 l 828 951 b 807 972 828 965 821 972 l 568 972 b 543 957 557 972 547 968 l 285 239 l 272 239 l 272 951 b 251 972 272 965 265 972 l 110 972 b 89 951 96 972 89 965 l 89 21 b 110 0 89 7 96 0 l 349 0 b 374 15 360 0 369 4 l 632 733 l 644 733 l 644 21 b 665 0 644 7 651 0 z "},"Ѝ":{"ha":917,"x_min":0,"x_max":0,"o":"m 447 1225 b 418 1250 439 1242 432 1250 l 243 1250 b 229 1225 228 1250 217 1240 l 353 1065 b 386 1040 361 1051 372 1040 l 501 1040 b 515 1065 518 1040 524 1049 z m 807 0 b 828 21 821 0 828 7 l 828 951 b 807 972 828 965 821 972 l 568 972 b 543 957 557 972 547 968 l 285 239 l 272 239 l 272 951 b 251 972 272 965 265 972 l 110 972 b 89 951 96 972 89 965 l 89 21 b 110 0 89 7 96 0 l 349 0 b 374 15 360 0 369 4 l 632 733 l 644 733 l 644 21 b 665 0 644 7 651 0 z "},"К":{"ha":869,"x_min":0,"x_max":0,"o":"m 817 35 l 474 540 l 796 936 b 788 972 811 954 804 972 l 629 972 b 590 950 611 972 601 964 l 272 550 l 272 951 b 251 972 272 965 265 972 l 110 972 b 89 951 96 972 89 965 l 89 21 b 110 0 89 7 96 0 l 251 0 b 272 21 265 0 272 7 l 272 293 l 356 396 l 610 19 b 647 0 621 3 636 0 l 808 0 b 817 35 826 0 824 24 z "},"Ќ":{"ha":869,"x_min":0,"x_max":0,"o":"m 378 1040 l 493 1040 b 528 1065 507 1040 518 1051 l 650 1225 b 636 1250 663 1240 651 1250 l 461 1250 b 432 1225 447 1250 440 1242 l 364 1065 b 378 1040 356 1049 363 1040 z m 817 35 l 474 540 l 796 936 b 788 972 811 954 804 972 l 629 972 b 590 950 611 972 601 964 l 272 550 l 272 951 b 251 972 272 965 265 972 l 110 972 b 89 951 96 972 89 965 l 89 21 b 110 0 89 7 96 0 l 251 0 b 272 21 265 0 272 7 l 272 293 l 356 396 l 610 19 b 647 0 621 3 636 0 l 808 0 b 817 35 826 0 824 24 z "},"Л":{"ha":942,"x_min":0,"x_max":0,"o":"m 832 972 l 182 972 b 161 951 168 972 161 965 l 161 290 b 67 185 161 200 117 185 b 42 163 53 185 42 179 l 42 17 b 65 -6 42 3 49 -6 l 126 -6 b 344 219 254 -6 344 60 l 344 808 l 669 808 l 669 21 b 692 0 669 7 678 0 l 832 0 b 853 21 846 0 853 7 l 853 951 b 832 972 853 965 846 972 z "},"М":{"ha":1093,"x_min":0,"x_max":0,"o":"m 110 0 l 251 0 b 272 21 265 0 272 7 l 272 733 l 285 733 l 428 21 b 454 0 431 7 442 0 l 638 0 b 664 21 650 0 663 7 l 807 733 l 821 733 l 821 21 b 842 0 821 7 828 0 l 982 0 b 1004 21 996 0 1004 7 l 1004 951 b 982 972 1004 965 996 972 l 729 972 b 701 951 715 972 703 965 l 551 222 l 542 222 l 392 951 b 364 972 389 965 378 972 l 110 972 b 89 951 96 972 89 965 l 89 21 b 110 0 89 7 96 0 z "},"Н":{"ha":881,"x_min":0,"x_max":0,"o":"m 771 972 l 628 972 b 607 951 614 972 607 965 l 607 567 l 274 567 l 274 951 b 253 972 274 965 267 972 l 110 972 b 89 951 96 972 89 965 l 89 21 b 110 0 89 7 96 0 l 253 0 b 274 21 267 0 274 7 l 274 407 l 607 407 l 607 21 b 628 0 607 7 614 0 l 771 0 b 792 21 785 0 792 7 l 792 951 b 771 972 792 965 785 972 z "},"О":{"ha":901,"x_min":0,"x_max":0,"o":"m 374 -7 l 528 -7 b 813 279 731 -7 813 104 l 813 693 b 528 979 813 868 731 979 l 374 979 b 89 693 172 979 89 868 l 89 279 b 374 -7 89 104 172 -7 z m 389 157 b 272 283 315 157 272 186 l 272 689 b 389 815 272 783 315 815 l 513 815 b 629 689 586 815 629 783 l 629 283 b 513 157 629 186 586 157 z "},"П":{"ha":869,"x_min":0,"x_max":0,"o":"m 110 0 l 251 0 b 272 21 265 0 272 7 l 272 808 l 597 808 l 597 21 b 618 0 597 7 604 0 l 760 0 b 781 21 774 0 781 7 l 781 951 b 760 972 781 965 774 972 l 110 972 b 89 951 96 972 89 965 l 89 21 b 110 0 89 7 96 0 z "},"Р":{"ha":856,"x_min":0,"x_max":0,"o":"m 494 972 l 110 972 b 89 951 96 972 89 965 l 89 21 b 110 0 89 7 96 0 l 251 0 b 272 21 265 0 272 7 l 272 249 l 494 249 b 781 535 696 249 781 361 l 781 685 b 494 972 781 860 696 972 z m 597 540 b 479 413 597 443 553 413 l 272 413 l 272 808 l 479 808 b 597 681 553 808 597 775 z "},"С":{"ha":882,"x_min":0,"x_max":0,"o":"m 374 -7 l 521 -7 b 807 276 728 -7 807 99 l 807 285 b 785 307 807 297 799 307 l 646 307 b 624 285 632 307 624 299 b 504 157 624 183 574 157 l 389 157 b 272 283 315 157 272 186 l 272 689 b 389 815 272 783 315 815 l 504 815 b 624 683 574 815 624 788 b 646 661 624 669 632 661 l 785 661 b 807 683 799 661 807 671 l 807 692 b 521 979 807 872 728 979 l 374 979 b 89 693 171 979 89 868 l 89 279 b 374 -7 89 104 171 -7 z "},"Т":{"ha":761,"x_min":0,"x_max":0,"o":"m 679 972 l 82 972 b 61 951 68 972 61 965 l 61 829 b 82 808 61 815 68 808 l 290 808 l 290 21 b 311 0 290 7 297 0 l 451 0 b 474 21 465 0 474 7 l 474 808 l 679 808 b 700 829 693 808 700 815 l 700 951 b 679 972 700 965 693 972 z "},"У":{"ha":843,"x_min":0,"x_max":0,"o":"m 776 972 l 633 972 b 603 951 618 972 610 967 l 419 560 l 240 951 b 210 972 233 967 225 972 l 67 972 b 50 946 50 972 42 964 l 326 358 l 171 26 b 186 0 161 8 171 0 l 331 0 b 360 21 346 0 353 6 l 793 946 b 776 972 801 964 793 972 z "},"Ў":{"ha":843,"x_min":0,"x_max":0,"o":"m 392 1028 l 479 1028 b 674 1228 613 1028 674 1093 b 651 1250 674 1243 665 1250 l 549 1250 b 526 1228 535 1250 529 1243 b 453 1150 522 1188 510 1150 l 417 1150 b 343 1228 360 1150 349 1188 b 322 1250 342 1243 336 1250 l 218 1250 b 197 1228 204 1250 197 1243 b 392 1028 197 1093 258 1028 z m 776 972 l 633 972 b 603 951 618 972 610 967 l 419 560 l 240 951 b 210 972 233 967 225 972 l 67 972 b 50 946 50 972 42 964 l 326 358 l 171 26 b 186 0 161 8 171 0 l 331 0 b 360 21 346 0 353 6 l 793 946 b 776 972 801 964 793 972 z "},"Ф":{"ha":1018,"x_min":0,"x_max":0,"o":"m 644 840 l 601 840 l 601 951 b 581 972 601 965 594 972 l 439 972 b 418 951 425 972 418 965 l 418 840 l 374 840 b 89 554 172 840 89 729 l 89 418 b 374 132 89 243 172 132 l 418 132 l 418 21 b 439 0 418 7 425 0 l 581 0 b 601 21 594 0 601 7 l 601 132 l 644 132 b 929 418 847 132 929 243 l 929 554 b 644 840 929 729 847 840 z m 389 296 b 272 422 315 296 272 325 l 272 550 b 389 676 272 644 315 676 l 418 676 l 418 296 z m 746 422 b 629 296 746 325 703 296 l 601 296 l 601 676 l 629 676 b 746 550 703 676 746 644 z "},"Х":{"ha":828,"x_min":0,"x_max":0,"o":"m 82 0 l 228 0 b 256 19 243 0 247 6 l 408 308 l 422 308 l 575 19 b 603 0 582 6 589 0 l 749 0 b 763 26 764 0 771 8 l 511 486 l 761 946 b 747 972 769 964 763 972 l 600 972 b 572 953 586 972 578 967 l 422 664 l 408 664 l 258 953 b 231 972 251 967 244 972 l 85 972 b 68 946 69 972 60 964 l 318 486 l 67 26 b 82 0 58 8 67 0 z "},"Ч":{"ha":858,"x_min":0,"x_max":0,"o":"m 607 0 l 749 0 b 769 21 763 0 769 7 l 769 951 b 749 972 769 965 763 972 l 607 972 b 586 951 593 972 586 965 l 586 515 b 511 422 586 454 567 422 l 335 422 b 253 515 279 422 253 453 l 253 951 b 232 972 253 965 246 972 l 90 972 b 69 951 76 972 69 965 l 69 511 b 326 263 69 343 147 263 l 400 263 b 586 324 465 263 550 268 l 586 21 b 607 0 586 7 593 0 z "},"Ц":{"ha":896,"x_min":0,"x_max":0,"o":"m 847 164 l 781 164 l 781 951 b 760 972 781 965 774 972 l 618 972 b 597 951 604 972 597 965 l 597 164 l 272 164 l 272 951 b 251 972 272 965 265 972 l 110 972 b 89 951 96 972 89 965 l 89 21 b 110 0 89 7 96 0 l 685 0 l 685 -114 b 707 -135 685 -128 693 -135 l 847 -135 b 868 -114 861 -135 868 -128 l 868 143 b 847 164 868 157 861 164 z "},"Ш":{"ha":1292,"x_min":0,"x_max":0,"o":"m 110 0 l 1182 0 b 1203 21 1196 0 1203 7 l 1203 951 b 1182 972 1203 965 1196 972 l 1040 972 b 1019 951 1026 972 1019 965 l 1019 164 l 738 164 l 738 951 b 717 972 738 965 731 972 l 575 972 b 554 951 561 972 554 965 l 554 164 l 272 164 l 272 951 b 251 972 272 965 265 972 l 110 972 b 89 951 96 972 89 965 l 89 21 b 110 0 89 7 96 0 z "},"Щ":{"ha":1318,"x_min":0,"x_max":0,"o":"m 1269 164 l 1203 164 l 1203 951 b 1182 972 1203 965 1196 972 l 1040 972 b 1019 951 1026 972 1019 965 l 1019 164 l 738 164 l 738 951 b 717 972 738 965 731 972 l 575 972 b 554 951 561 972 554 965 l 554 164 l 272 164 l 272 951 b 251 972 272 965 265 972 l 110 972 b 89 951 96 972 89 965 l 89 21 b 110 0 89 7 96 0 l 1107 0 l 1107 -114 b 1129 -135 1107 -128 1115 -135 l 1269 -135 b 1290 -114 1283 -135 1290 -128 l 1290 143 b 1269 164 1290 157 1283 164 z "},"Ь":{"ha":856,"x_min":0,"x_max":0,"o":"m 494 724 l 272 724 l 272 951 b 251 972 272 965 265 972 l 110 972 b 89 951 96 972 89 965 l 89 21 b 110 0 89 7 96 0 l 494 0 b 781 288 696 0 781 113 l 781 438 b 494 724 781 611 696 724 z m 597 292 b 479 164 597 197 553 164 l 272 164 l 272 560 l 479 560 b 597 432 553 560 597 529 z "},"Ъ":{"ha":983,"x_min":0,"x_max":0,"o":"m 608 724 l 386 724 l 386 951 b 365 972 386 965 379 972 l 82 972 b 61 951 68 972 61 965 l 61 829 b 82 808 61 815 68 808 l 203 808 l 203 21 b 225 0 203 7 211 0 l 608 0 b 894 288 811 0 894 113 l 894 438 b 608 724 894 611 811 724 z m 711 292 b 594 164 711 197 667 164 l 386 164 l 386 560 l 594 560 b 711 432 667 560 711 529 z "},"Ы":{"ha":1217,"x_min":0,"x_max":0,"o":"m 494 724 l 272 724 l 272 951 b 251 972 272 965 265 972 l 110 972 b 89 951 96 972 89 965 l 89 21 b 110 0 89 7 96 0 l 494 0 b 781 288 696 0 781 113 l 781 438 b 494 724 781 611 696 724 z m 1107 972 l 965 972 b 944 951 951 972 944 965 l 944 21 b 965 0 944 7 951 0 l 1107 0 b 1128 21 1121 0 1128 7 l 1128 951 b 1107 972 1128 965 1121 972 z m 597 292 b 479 164 597 197 553 164 l 272 164 l 272 560 l 479 560 b 597 432 553 560 597 529 z "},"Є":{"ha":882,"x_min":0,"x_max":0,"o":"m 389 815 l 504 815 b 624 683 574 815 624 788 b 646 661 624 669 632 661 l 785 661 b 807 683 799 661 807 671 l 807 692 b 521 979 807 872 728 979 l 374 979 b 89 693 171 979 89 868 l 89 279 b 374 -7 89 104 171 -7 l 521 -7 b 807 276 728 -7 807 99 l 807 285 b 785 307 807 297 799 307 l 646 307 b 624 285 632 307 624 299 b 504 157 624 183 574 157 l 389 157 b 272 283 315 157 272 186 l 272 404 l 451 404 b 472 425 465 404 472 411 l 472 547 b 451 568 472 561 465 568 l 272 568 l 272 689 b 389 815 272 783 315 815 z "},"Э":{"ha":882,"x_min":0,"x_max":0,"o":"m 508 979 l 361 979 b 75 692 154 979 75 872 l 75 683 b 97 661 75 671 83 661 l 236 661 b 258 683 250 661 258 669 b 378 815 258 788 308 815 l 493 815 b 610 689 567 815 610 783 l 610 568 l 431 568 b 410 547 417 568 410 561 l 410 425 b 431 404 410 411 417 404 l 610 404 l 610 283 b 493 157 610 186 567 157 l 378 157 b 258 285 308 157 258 183 b 236 307 258 299 250 307 l 97 307 b 75 285 83 307 75 297 l 75 276 b 361 -7 75 99 154 -7 l 508 -7 b 793 279 711 -7 793 104 l 793 693 b 508 979 793 868 711 979 z "},"І":{"ha":361,"x_min":0,"x_max":0,"o":"m 110 0 l 251 0 b 272 21 265 0 272 7 l 272 951 b 251 972 272 965 265 972 l 110 972 b 89 951 96 972 89 965 l 89 21 b 110 0 89 7 96 0 z "},"Ї":{"ha":361,"x_min":0,"x_max":0,"o":"m -93 1067 l 49 1067 b 69 1088 63 1067 69 1074 l 69 1229 b 49 1250 69 1243 63 1250 l -93 1250 b -114 1229 -107 1250 -114 1243 l -114 1088 b -93 1067 -114 1074 -107 1067 z m 313 1067 l 454 1067 b 475 1088 468 1067 475 1074 l 475 1229 b 454 1250 475 1243 468 1250 l 313 1250 b 292 1229 299 1250 292 1243 l 292 1088 b 313 1067 292 1074 299 1067 z m 110 0 l 251 0 b 272 21 265 0 272 7 l 272 951 b 251 972 272 965 265 972 l 110 972 b 89 951 96 972 89 965 l 89 21 b 110 0 89 7 96 0 z "},"Ј":{"ha":533,"x_min":0,"x_max":0,"o":"m 75 -7 l 160 -7 b 444 279 363 -7 444 104 l 444 951 b 424 972 444 965 438 972 l 282 972 b 261 951 268 972 261 965 l 261 283 b 144 157 261 186 218 157 l 75 157 b 54 136 61 157 54 150 l 54 14 b 75 -7 54 0 61 -7 z "},"Ю":{"ha":1276,"x_min":0,"x_max":0,"o":"m 903 979 l 749 979 b 464 693 547 979 464 868 l 464 567 l 272 567 l 272 951 b 251 972 272 965 265 972 l 110 972 b 89 951 96 972 89 965 l 89 21 b 110 0 89 7 96 0 l 251 0 b 272 21 265 0 272 7 l 272 407 l 464 407 l 464 279 b 749 -7 464 104 547 -7 l 903 -7 b 1188 279 1106 -7 1188 104 l 1188 693 b 903 979 1188 868 1106 979 z m 1004 283 b 888 157 1004 186 961 157 l 764 157 b 647 283 690 157 647 186 l 647 689 b 764 815 647 783 690 815 l 888 815 b 1004 689 961 815 1004 783 z "},"Я":{"ha":857,"x_min":0,"x_max":0,"o":"m 747 972 l 363 972 b 76 685 161 972 76 860 l 76 535 b 189 290 76 424 111 338 l 81 33 b 104 0 72 13 82 0 l 232 0 b 268 22 249 0 263 7 l 363 249 l 585 249 l 585 21 b 606 0 585 7 592 0 l 747 0 b 768 21 761 0 768 7 l 768 951 b 747 972 768 965 761 972 z m 378 413 b 260 540 304 413 260 443 l 260 681 b 378 808 260 775 304 808 l 585 808 l 585 413 z "},"Ӏ":{"ha":361,"x_min":0,"x_max":0,"o":"m 110 0 l 251 0 b 272 21 265 0 272 7 l 272 951 b 251 972 272 965 265 972 l 110 972 b 89 951 96 972 89 965 l 89 21 b 110 0 89 7 96 0 z "},"Ӣ":{"ha":917,"x_min":0,"x_max":0,"o":"m 218 1089 l 668 1089 b 689 1110 681 1089 689 1096 l 689 1229 b 668 1250 689 1243 681 1250 l 218 1250 b 197 1229 204 1250 197 1243 l 197 1110 b 218 1089 197 1096 204 1089 z m 807 0 b 828 21 821 0 828 7 l 828 951 b 807 972 828 965 821 972 l 568 972 b 543 957 557 972 547 968 l 285 239 l 272 239 l 272 951 b 251 972 272 965 265 972 l 110 972 b 89 951 96 972 89 965 l 89 21 b 110 0 89 7 96 0 l 349 0 b 374 15 360 0 369 4 l 632 733 l 644 733 l 644 21 b 665 0 644 7 651 0 z "},"Ө":{"ha":901,"x_min":0,"x_max":0,"o":"m 528 979 l 374 979 b 89 693 172 979 89 868 l 89 279 b 374 -7 89 104 172 -7 l 528 -7 b 813 279 731 -7 813 104 l 813 693 b 528 979 813 868 731 979 z m 389 815 l 513 815 b 629 689 586 815 629 783 l 629 567 l 272 567 l 272 689 b 389 815 272 783 315 815 z m 513 157 l 389 157 b 272 283 315 157 272 186 l 272 407 l 629 407 l 629 283 b 513 157 629 186 586 157 z "},"Ӭ":{"ha":882,"x_min":0,"x_max":0,"o":"m 164 1067 l 306 1067 b 326 1088 319 1067 326 1074 l 326 1229 b 306 1250 326 1243 319 1250 l 164 1250 b 143 1229 150 1250 143 1243 l 143 1088 b 164 1067 143 1074 150 1067 z m 569 1067 l 711 1067 b 732 1088 725 1067 732 1074 l 732 1229 b 711 1250 732 1243 725 1250 l 569 1250 b 549 1229 556 1250 549 1243 l 549 1088 b 569 1067 549 1074 556 1067 z m 508 979 l 361 979 b 75 692 154 979 75 872 l 75 683 b 97 661 75 671 83 661 l 236 661 b 258 683 250 661 258 669 b 378 815 258 788 308 815 l 493 815 b 610 689 567 815 610 783 l 610 568 l 431 568 b 410 547 417 568 410 561 l 410 425 b 431 404 410 411 417 404 l 610 404 l 610 283 b 493 157 610 186 567 157 l 378 157 b 258 285 308 157 258 183 b 236 307 258 299 250 307 l 97 307 b 75 285 83 307 75 297 l 75 276 b 361 -7 75 99 154 -7 l 508 -7 b 793 279 711 -7 793 104 l 793 693 b 508 979 793 868 711 979 z "},"Ӯ":{"ha":843,"x_min":0,"x_max":0,"o":"m 210 1089 l 660 1089 b 681 1110 672 1089 681 1096 l 681 1229 b 660 1250 681 1243 672 1250 l 210 1250 b 189 1229 196 1250 189 1243 l 189 1110 b 210 1089 189 1096 196 1089 z m 776 972 l 633 972 b 603 951 618 972 610 967 l 419 560 l 240 951 b 210 972 233 967 225 972 l 67 972 b 50 946 50 972 42 964 l 326 358 l 171 26 b 186 0 161 8 171 0 l 331 0 b 360 21 346 0 353 6 l 793 946 b 776 972 801 964 793 972 z "},"а":{"ha":735,"x_min":0,"x_max":0,"o":"m 400 700 l 364 700 b 146 667 269 700 192 683 b 132 640 135 663 128 651 l 150 543 b 176 526 153 528 161 522 b 328 543 211 536 278 543 b 474 456 440 543 474 515 l 474 419 l 279 419 b 61 242 131 419 61 365 l 61 197 b 261 -7 61 69 126 -7 l 274 -7 b 457 86 363 -7 414 35 l 474 86 l 474 22 b 494 0 474 7 481 0 l 631 0 b 653 22 644 0 653 7 l 653 464 b 400 700 653 610 579 700 z m 368 146 l 306 146 b 236 204 264 146 236 160 l 236 232 b 304 292 236 282 263 292 l 474 292 l 474 242 b 368 146 474 196 442 146 z "},"б":{"ha":746,"x_min":0,"x_max":0,"o":"m 431 -7 l 447 -7 b 678 228 606 -7 678 78 l 678 465 b 447 700 678 615 606 700 l 431 700 b 276 632 351 700 308 671 l 261 632 l 261 711 b 329 781 261 750 276 781 b 492 775 404 781 456 775 b 654 943 629 775 654 844 b 633 972 654 961 651 972 l 496 972 b 469 964 486 972 475 972 b 379 938 457 944 421 938 b 251 944 339 938 292 944 b 82 731 128 944 82 886 l 82 22 b 104 0 82 7 89 0 l 239 0 b 261 22 253 0 261 7 l 261 61 l 276 61 b 431 -7 308 22 351 -7 z m 346 153 b 261 244 296 153 261 185 l 261 449 b 346 540 261 508 296 540 l 414 540 b 499 450 464 540 499 508 l 499 243 b 414 153 499 185 464 153 z "},"в":{"ha":693,"x_min":0,"x_max":0,"o":"m 517 357 b 610 500 603 388 610 449 b 403 694 610 644 538 694 l 103 694 b 82 674 89 694 82 688 l 82 21 b 103 0 82 7 89 0 l 404 0 b 625 190 546 0 625 54 b 517 346 625 263 604 317 z m 261 538 l 386 538 b 432 483 413 538 432 524 b 382 424 432 432 407 424 l 261 424 z m 388 157 l 261 157 l 261 288 l 385 288 b 447 222 419 288 447 275 b 388 157 447 174 422 157 z "},"г":{"ha":611,"x_min":0,"x_max":0,"o":"m 532 694 l 104 694 b 82 672 89 694 82 688 l 82 22 b 104 0 82 7 89 0 l 239 0 b 261 22 253 0 261 7 l 261 536 l 532 536 b 556 560 549 536 556 543 l 556 671 b 532 694 556 688 549 694 z "},"ѓ":{"ha":611,"x_min":0,"x_max":0,"o":"m 268 763 l 383 763 b 418 788 397 763 408 774 l 540 947 b 526 972 553 963 542 972 l 351 972 b 322 947 338 972 331 964 l 254 788 b 268 763 246 771 253 763 z m 532 694 l 104 694 b 82 672 89 694 82 688 l 82 22 b 104 0 82 7 89 0 l 239 0 b 261 22 253 0 261 7 l 261 536 l 532 536 b 556 560 549 536 556 543 l 556 671 b 532 694 556 688 549 694 z "},"ґ":{"ha":611,"x_min":0,"x_max":0,"o":"m 533 769 l 399 769 b 376 747 385 769 376 763 l 376 694 l 104 694 b 82 672 89 694 82 688 l 82 22 b 104 0 82 7 89 0 l 239 0 b 261 22 253 0 261 7 l 261 536 l 532 536 b 556 560 549 536 556 543 l 556 747 b 533 769 556 763 549 769 z "},"д":{"ha":911,"x_min":0,"x_max":0,"o":"m 856 158 l 771 158 l 771 674 b 750 694 771 688 764 694 l 224 694 b 203 674 210 694 203 688 l 203 407 b 75 158 203 182 132 158 l 56 158 b 35 138 42 158 35 151 l 35 -86 b 57 -108 35 -100 42 -108 l 192 -108 b 214 -86 206 -108 214 -100 l 214 0 l 697 0 l 697 -86 b 719 -108 697 -100 706 -108 l 854 -108 b 876 -86 869 -108 876 -100 l 876 138 b 856 158 876 151 869 158 z m 328 158 b 382 371 361 210 382 278 l 382 536 l 592 536 l 592 158 z "},"е":{"ha":718,"x_min":0,"x_max":0,"o":"m 379 -7 b 624 79 478 -7 574 29 b 622 104 631 85 631 94 l 581 168 b 553 178 574 179 564 182 b 379 146 514 160 474 146 l 364 146 b 247 238 285 146 247 183 l 247 275 l 608 275 b 650 317 636 275 650 290 l 650 457 b 396 700 650 606 574 700 l 322 700 b 68 457 143 700 68 606 l 68 236 b 360 -7 68 92 144 -7 z m 247 406 l 247 454 b 331 540 247 514 281 540 l 388 540 b 471 456 436 540 471 514 l 471 406 z "},"ё":{"ha":718,"x_min":0,"x_max":0,"o":"m 89 789 l 231 789 b 251 810 244 789 251 796 l 251 951 b 231 972 251 965 244 972 l 89 972 b 68 951 75 972 68 965 l 68 810 b 89 789 68 796 75 789 z m 494 789 l 636 789 b 657 810 650 789 657 796 l 657 951 b 636 972 657 965 650 972 l 494 972 b 474 951 481 972 474 965 l 474 810 b 494 789 474 796 481 789 z m 379 -7 b 624 79 478 -7 574 29 b 622 104 631 85 631 94 l 581 168 b 553 178 574 179 564 182 b 379 146 514 160 474 146 l 364 146 b 247 238 285 146 247 183 l 247 275 l 608 275 b 650 317 636 275 650 290 l 650 457 b 396 700 650 606 574 700 l 322 700 b 68 457 143 700 68 606 l 68 236 b 360 -7 68 92 144 -7 z m 247 406 l 247 454 b 331 540 247 514 281 540 l 388 540 b 471 456 436 540 471 514 l 471 406 z "},"ж":{"ha":1132,"x_min":0,"x_max":0,"o":"m 1092 33 l 790 346 l 1078 658 b 1071 694 1097 678 1089 694 l 906 694 b 868 675 888 694 878 685 l 653 432 l 653 672 b 631 694 653 688 646 694 l 496 694 b 474 672 482 694 474 688 l 474 433 l 258 675 b 222 694 249 685 239 694 l 56 694 b 49 658 38 694 29 678 l 336 346 l 35 33 b 46 0 24 21 26 0 l 214 0 b 256 22 231 0 239 4 l 474 261 l 474 22 b 496 0 474 7 482 0 l 631 0 b 653 22 646 0 653 7 l 653 263 l 871 22 b 913 0 888 4 897 0 l 1082 0 b 1092 33 1100 0 1103 21 z "},"з":{"ha":679,"x_min":0,"x_max":0,"o":"m 267 -8 l 399 -8 b 617 181 528 -8 617 65 b 521 339 617 250 603 314 l 521 354 b 611 501 603 378 611 432 b 399 696 611 615 528 696 l 267 696 b 63 488 139 696 63 632 b 78 471 63 476 67 471 l 231 471 b 246 488 240 471 246 476 b 308 536 246 517 260 536 l 360 536 b 428 479 394 536 428 532 b 374 415 428 428 414 415 l 278 415 b 263 399 268 415 263 410 l 263 290 b 278 275 263 279 268 275 l 374 275 b 424 208 414 275 424 249 b 360 151 424 158 397 151 l 308 151 b 246 190 265 151 246 164 b 231 207 246 203 240 207 l 78 207 b 63 190 67 207 63 203 b 267 -8 63 49 139 -8 z "},"и":{"ha":822,"x_min":0,"x_max":0,"o":"m 104 0 l 317 0 b 342 15 328 0 336 4 l 549 493 l 561 493 l 561 22 b 583 0 561 7 569 0 l 718 0 b 740 22 733 0 740 7 l 740 672 b 718 694 740 688 733 694 l 506 694 b 481 679 494 694 486 690 l 274 201 l 261 201 l 261 672 b 239 694 261 688 253 694 l 104 694 b 82 672 89 694 82 688 l 82 22 b 104 0 82 7 89 0 z "},"й":{"ha":822,"x_min":0,"x_max":0,"o":"m 381 750 l 468 750 b 663 950 601 750 663 815 b 640 972 663 965 654 972 l 538 972 b 515 950 524 972 518 965 b 442 872 511 910 499 872 l 406 872 b 332 950 349 872 338 910 b 311 972 331 965 325 972 l 207 972 b 186 950 193 972 186 965 b 381 750 186 815 247 750 z m 104 0 l 317 0 b 342 15 328 0 336 4 l 549 493 l 561 493 l 561 22 b 583 0 561 7 569 0 l 718 0 b 740 22 733 0 740 7 l 740 672 b 718 694 740 688 733 694 l 506 694 b 481 679 494 694 486 690 l 274 201 l 261 201 l 261 672 b 239 694 261 688 253 694 l 104 694 b 82 672 89 694 82 688 l 82 22 b 104 0 82 7 89 0 z "},"ѝ":{"ha":822,"x_min":0,"x_max":0,"o":"m 429 947 b 400 972 421 964 414 972 l 225 972 b 211 947 210 972 199 963 l 335 788 b 368 763 343 774 354 763 l 483 763 b 497 788 500 763 506 771 z m 104 0 l 317 0 b 342 15 328 0 336 4 l 549 493 l 561 493 l 561 22 b 583 0 561 7 569 0 l 718 0 b 740 22 733 0 740 7 l 740 672 b 718 694 740 688 733 694 l 506 694 b 481 679 494 694 486 690 l 274 201 l 261 201 l 261 672 b 239 694 261 688 253 694 l 104 694 b 82 672 89 694 82 688 l 82 22 b 104 0 82 7 89 0 z "},"к":{"ha":740,"x_min":0,"x_max":0,"o":"m 700 33 l 399 346 l 686 658 b 679 694 706 678 697 694 l 513 694 b 476 675 496 694 486 685 l 261 433 l 261 672 b 239 694 261 688 253 694 l 104 694 b 82 672 89 694 82 688 l 82 22 b 104 0 82 7 89 0 l 239 0 b 261 22 253 0 261 7 l 261 261 l 479 22 b 521 0 496 4 504 0 l 689 0 b 700 33 708 0 711 21 z "},"ќ":{"ha":740,"x_min":0,"x_max":0,"o":"m 332 763 l 447 763 b 482 788 461 763 472 774 l 604 947 b 590 972 617 963 606 972 l 415 972 b 386 947 401 972 394 964 l 318 788 b 332 763 310 771 317 763 z m 700 33 l 399 346 l 686 658 b 679 694 706 678 697 694 l 513 694 b 476 675 496 694 486 685 l 261 433 l 261 672 b 239 694 261 688 253 694 l 104 694 b 82 672 89 694 82 688 l 82 22 b 104 0 82 7 89 0 l 239 0 b 261 22 253 0 261 7 l 261 261 l 479 22 b 521 0 496 4 504 0 l 689 0 b 700 33 708 0 711 21 z "},"л":{"ha":814,"x_min":0,"x_max":0,"o":"m 92 -14 b 296 225 275 -14 296 88 l 296 536 l 553 536 l 553 22 b 575 0 553 7 561 0 l 711 0 b 732 22 725 0 732 7 l 732 672 b 711 694 732 688 725 694 l 139 694 b 117 672 125 694 117 688 l 117 221 b 39 143 117 164 92 143 b 0 107 11 143 0 131 l 0 36 b 92 -14 0 1 21 -14 z "},"м":{"ha":919,"x_min":0,"x_max":0,"o":"m 815 694 l 642 694 b 617 679 631 694 622 690 l 460 313 l 303 679 b 278 694 297 690 289 694 l 104 694 b 82 672 89 694 82 688 l 82 22 b 104 0 82 7 89 0 l 239 0 b 261 22 253 0 261 7 l 261 410 l 393 74 b 417 60 397 63 403 60 l 503 60 b 526 74 517 60 522 63 l 658 410 l 658 22 b 679 0 658 7 665 0 l 815 0 b 838 22 829 0 838 7 l 838 672 b 815 694 838 688 829 694 z "},"н":{"ha":779,"x_min":0,"x_max":0,"o":"m 675 694 l 540 694 b 518 672 526 694 518 688 l 518 426 l 261 426 l 261 672 b 239 694 261 688 253 694 l 104 694 b 82 672 89 694 82 688 l 82 22 b 104 0 82 7 89 0 l 239 0 b 261 22 253 0 261 7 l 261 268 l 518 268 l 518 22 b 540 0 518 7 526 0 l 675 0 b 697 22 690 0 697 7 l 697 672 b 675 694 697 688 690 694 z "},"о":{"ha":732,"x_min":0,"x_max":0,"o":"m 322 -7 l 410 -7 b 664 236 589 -7 664 88 l 664 457 b 410 700 664 606 589 700 l 322 700 b 68 457 144 700 68 606 l 68 236 b 322 -7 68 88 144 -7 z m 331 153 b 247 239 282 153 247 179 l 247 454 b 331 540 247 514 282 540 l 401 540 b 485 454 451 540 485 514 l 485 239 b 401 153 485 179 451 153 z "},"п":{"ha":779,"x_min":0,"x_max":0,"o":"m 100 0 l 239 0 b 261 22 253 0 261 7 l 261 536 l 518 536 l 518 22 b 540 0 518 7 526 0 l 675 0 b 697 22 690 0 697 7 l 697 672 b 675 694 697 688 690 694 l 104 694 b 82 672 89 694 82 688 l 82 22 b 100 0 82 7 86 0 z "},"р":{"ha":746,"x_min":0,"x_max":0,"o":"m 447 700 l 431 700 b 276 632 351 700 308 671 l 261 632 l 261 672 b 239 694 261 688 253 694 l 104 694 b 82 672 89 694 82 688 l 82 -224 b 104 -246 82 -239 89 -246 l 239 -246 b 261 -224 253 -246 261 -239 l 261 61 l 276 61 b 431 -7 308 22 351 -7 l 447 -7 b 678 228 606 -7 678 78 l 678 465 b 447 700 678 615 606 700 z m 499 243 b 414 153 499 185 464 153 l 346 153 b 261 244 296 153 261 185 l 261 449 b 346 540 261 508 296 540 l 414 540 b 499 450 464 540 499 508 z "},"с":{"ha":710,"x_min":0,"x_max":0,"o":"m 356 -7 l 368 -7 b 640 136 485 -7 590 22 b 625 167 646 149 640 160 l 535 208 b 501 199 518 215 508 210 b 372 149 476 158 446 149 l 360 149 b 247 254 282 149 247 185 l 247 454 b 331 540 247 514 281 540 l 392 540 b 478 468 443 540 478 517 l 478 458 b 499 436 478 443 485 436 l 626 436 b 649 458 640 436 649 443 l 649 468 b 400 700 649 608 564 700 l 322 700 b 68 457 143 700 68 606 l 68 236 b 356 -7 68 90 146 -7 z "},"т":{"ha":644,"x_min":0,"x_max":0,"o":"m 568 694 l 78 694 b 56 672 63 694 56 688 l 56 549 b 78 528 56 535 63 528 l 233 528 l 233 22 b 254 0 233 7 240 0 l 390 0 b 411 22 404 0 411 7 l 411 528 l 568 528 b 589 549 582 528 589 535 l 589 672 b 568 694 589 688 582 694 z "},"у":{"ha":781,"x_min":0,"x_max":0,"o":"m 714 694 l 578 694 b 553 671 564 694 558 686 l 397 217 l 386 217 l 228 671 b 203 694 222 686 217 694 l 67 694 b 49 671 53 694 43 686 l 301 -10 l 222 -222 b 240 -246 217 -237 226 -246 l 375 -246 b 403 -222 390 -246 397 -237 l 732 671 b 714 694 738 686 728 694 z "},"ў":{"ha":781,"x_min":0,"x_max":0,"o":"m 347 750 l 435 750 b 629 950 568 750 629 815 b 607 972 629 965 621 972 l 504 972 b 482 950 490 972 485 965 b 408 872 478 910 465 872 l 372 872 b 299 950 315 872 304 910 b 278 972 297 965 292 972 l 174 972 b 153 950 160 972 153 965 b 347 750 153 815 214 750 z m 714 694 l 578 694 b 553 671 564 694 558 686 l 397 217 l 386 217 l 228 671 b 203 694 222 686 217 694 l 67 694 b 49 671 53 694 43 686 l 301 -10 l 222 -222 b 240 -246 217 -237 226 -246 l 375 -246 b 403 -222 390 -246 397 -237 l 732 671 b 714 694 738 686 728 694 z "},"ф":{"ha":1151,"x_min":0,"x_max":0,"o":"m 853 700 l 835 700 b 682 632 757 700 714 671 l 665 632 l 665 672 b 664 682 665 676 665 679 l 664 950 b 643 972 664 965 657 972 l 507 972 b 485 950 493 972 485 965 l 485 632 l 469 632 b 315 700 438 671 394 700 l 299 700 b 68 465 142 700 68 615 l 68 228 b 299 -7 68 78 142 -7 l 315 -7 b 469 61 394 -7 438 22 l 485 61 l 485 22 b 488 10 485 17 486 13 l 488 -224 b 508 -246 488 -239 494 -246 l 644 -246 b 665 -224 658 -246 665 -239 l 665 61 l 682 61 b 835 -7 714 22 757 -7 l 853 -7 b 1083 228 1010 -7 1083 78 l 1083 465 b 853 700 1083 615 1010 700 z m 400 153 l 332 153 b 247 243 283 153 247 185 l 247 450 b 332 540 247 508 283 540 l 400 540 b 485 449 450 540 485 508 l 485 244 b 400 153 485 185 450 153 z m 904 243 b 819 153 904 185 868 153 l 751 153 b 665 244 701 153 665 185 l 665 449 b 751 540 665 508 701 540 l 819 540 b 904 450 868 540 904 508 z "},"х":{"ha":679,"x_min":0,"x_max":0,"o":"m 69 0 l 208 0 b 240 26 219 0 229 4 l 333 200 l 346 200 l 438 26 b 469 0 449 4 458 0 l 611 0 b 626 28 629 0 635 13 l 447 346 l 629 667 b 614 694 638 682 631 694 l 476 694 b 442 668 464 694 453 690 l 346 492 l 333 492 l 238 668 b 203 694 226 690 215 694 l 65 694 b 50 667 49 694 42 682 l 232 346 l 53 28 b 69 0 44 13 50 0 z "},"ч":{"ha":771,"x_min":0,"x_max":0,"o":"m 532 0 l 667 0 b 689 22 682 0 689 7 l 689 672 b 667 694 689 688 682 694 l 532 694 b 510 672 518 694 510 688 l 510 411 b 428 314 510 351 485 314 l 338 314 b 261 411 282 314 261 350 l 261 672 b 239 694 261 688 253 694 l 104 694 b 82 672 89 694 82 688 l 82 376 b 282 149 82 239 146 149 l 388 149 b 510 214 450 149 490 181 l 510 22 b 532 0 510 7 518 0 z "},"ц":{"ha":838,"x_min":0,"x_max":0,"o":"m 782 158 l 697 158 l 697 672 b 675 694 697 688 690 694 l 540 694 b 518 672 526 694 518 688 l 518 158 l 261 158 l 261 672 b 239 694 261 688 253 694 l 100 694 b 82 672 86 694 82 688 l 82 22 b 104 0 82 7 89 0 l 624 0 l 624 -86 b 646 -108 624 -100 632 -108 l 781 -108 b 803 -86 796 -108 803 -100 l 803 138 b 782 158 803 151 796 158 z "},"ш":{"ha":1072,"x_min":0,"x_max":0,"o":"m 104 0 l 968 0 b 990 22 983 0 990 7 l 990 672 b 968 694 990 688 983 694 l 833 694 b 811 672 819 694 811 688 l 811 158 l 625 158 l 625 672 b 604 694 625 688 618 694 l 465 694 b 447 672 451 694 447 688 l 447 158 l 261 158 l 261 672 b 239 694 261 688 253 694 l 100 694 b 82 672 86 694 82 688 l 82 22 b 104 0 82 7 89 0 z "},"щ":{"ha":1125,"x_min":0,"x_max":0,"o":"m 1069 158 l 990 158 l 990 672 b 968 694 990 688 983 694 l 833 694 b 811 672 819 694 811 688 l 811 158 l 625 158 l 625 672 b 604 694 625 688 618 694 l 465 694 b 447 672 451 694 447 688 l 447 158 l 261 158 l 261 672 b 239 694 261 688 253 694 l 100 694 b 82 672 86 694 82 688 l 82 22 b 104 0 82 7 89 0 l 911 0 l 911 -86 b 933 -108 911 -100 919 -108 l 1068 -108 b 1090 -86 1083 -108 1090 -100 l 1090 138 b 1069 158 1090 151 1083 158 z "},"ь":{"ha":740,"x_min":0,"x_max":0,"o":"m 439 489 l 261 489 l 261 672 b 239 694 261 688 253 694 l 104 694 b 82 672 89 694 82 688 l 82 22 b 104 0 82 7 89 0 l 439 0 b 672 244 604 0 672 63 b 439 489 672 425 604 489 z m 406 158 l 261 158 l 261 329 l 406 329 b 493 244 451 329 493 318 b 406 158 493 169 451 158 z "},"ъ":{"ha":782,"x_min":0,"x_max":0,"o":"m 481 489 l 303 489 l 303 672 b 281 694 303 688 294 694 l 58 694 b 35 671 42 694 35 688 l 35 560 b 58 536 35 543 42 536 l 124 536 l 124 22 b 146 0 124 7 131 0 l 481 0 b 714 244 646 0 714 63 b 481 489 714 425 646 489 z m 447 158 l 303 158 l 303 329 l 447 329 b 535 244 493 329 535 318 b 447 158 535 169 493 158 z "},"ы":{"ha":986,"x_min":0,"x_max":0,"o":"m 439 489 l 261 489 l 261 672 b 239 694 261 688 253 694 l 104 694 b 82 672 89 694 82 688 l 82 22 b 104 0 82 7 89 0 l 439 0 b 672 244 604 0 672 63 b 439 489 672 425 604 489 z m 882 694 l 747 694 b 725 672 733 694 725 688 l 725 22 b 747 0 725 7 733 0 l 882 0 b 904 22 897 0 904 7 l 904 672 b 882 694 904 688 897 694 z m 406 158 l 261 158 l 261 329 l 406 329 b 493 244 451 329 493 318 b 406 158 493 169 451 158 z "},"є":{"ha":710,"x_min":0,"x_max":0,"o":"m 400 700 l 322 700 b 68 457 143 700 68 606 l 68 236 b 356 -7 68 90 146 -7 l 368 -7 b 640 136 485 -7 590 22 b 625 167 646 149 640 160 l 535 208 b 501 199 518 215 508 210 b 372 149 476 158 446 149 l 360 149 b 247 254 282 149 247 185 l 247 261 l 368 261 b 392 283 385 261 392 268 l 392 396 b 368 419 392 411 385 419 l 247 419 l 247 454 b 331 540 247 514 281 540 l 392 540 b 478 468 443 540 478 517 l 478 458 b 499 436 478 443 485 436 l 626 436 b 649 458 640 436 649 443 l 649 468 b 400 700 649 608 564 700 z "},"э":{"ha":710,"x_min":0,"x_max":0,"o":"m 388 700 l 310 700 b 61 468 146 700 61 608 l 61 458 b 83 436 61 443 69 436 l 211 436 b 232 458 225 436 232 443 l 232 468 b 318 540 232 517 267 540 l 379 540 b 463 454 429 540 463 514 l 463 419 l 342 419 b 318 396 325 419 318 411 l 318 283 b 342 261 318 268 325 261 l 463 261 l 463 254 b 350 149 463 185 428 149 l 338 149 b 208 199 264 149 233 158 b 175 208 201 210 192 215 l 85 167 b 69 136 69 160 64 149 b 342 -7 119 22 225 -7 l 354 -7 b 642 236 564 -7 642 90 l 642 457 b 388 700 642 606 567 700 z "},"і":{"ha":342,"x_min":0,"x_max":0,"o":"m 104 801 l 239 801 b 260 824 253 801 260 810 l 260 950 b 239 972 260 965 253 972 l 104 972 b 82 950 89 972 82 965 l 82 824 b 104 801 82 810 89 801 z m 103 0 l 239 0 b 261 22 253 0 261 7 l 261 672 b 239 694 261 688 253 694 l 103 694 b 82 672 89 694 82 688 l 82 22 b 103 0 82 7 89 0 z "},"ї":{"ha":332,"x_min":0,"x_max":0,"o":"m -110 789 l 32 789 b 53 810 46 789 53 796 l 53 951 b 32 972 53 965 46 972 l -110 972 b -131 951 -124 972 -131 965 l -131 810 b -110 789 -131 796 -124 789 z m 296 789 l 438 789 b 458 810 451 789 458 796 l 458 951 b 438 972 458 965 451 972 l 296 972 b 275 951 282 972 275 965 l 275 810 b 296 789 275 796 282 789 z m 99 0 l 233 0 b 256 22 247 0 256 7 l 256 672 b 233 694 256 688 247 694 l 99 694 b 76 672 83 694 76 688 l 76 22 b 99 0 76 7 83 0 z "},"ј":{"ha":356,"x_min":0,"x_max":0,"o":"m 117 801 l 251 801 b 274 824 267 801 274 810 l 274 950 b 251 972 274 965 267 972 l 117 972 b 96 950 103 972 96 965 l 96 824 b 117 801 96 810 103 801 z m 69 -261 b 274 -22 253 -261 274 -160 l 274 672 b 251 694 274 688 267 694 l 117 694 b 94 672 103 694 94 688 l 94 -26 b 17 -104 94 -83 69 -104 b -22 -140 -11 -104 -22 -117 l -22 -211 b 69 -261 -22 -246 -1 -261 z "},"ю":{"ha":1067,"x_min":0,"x_max":0,"o":"m 744 700 l 657 700 b 403 457 478 700 403 606 l 403 415 l 261 415 l 261 674 b 239 694 261 688 253 694 l 104 694 b 82 674 89 694 82 688 l 82 22 b 104 0 82 7 89 0 l 239 0 b 261 22 253 0 261 7 l 261 257 l 403 257 l 403 236 b 657 -7 403 88 478 -7 l 744 -7 b 999 236 924 -7 999 88 l 999 457 b 744 700 999 606 922 700 z m 819 239 b 736 153 819 179 785 153 l 665 153 b 582 239 615 153 582 179 l 582 454 b 665 540 582 514 615 540 l 736 540 b 819 454 785 540 819 514 z "},"я":{"ha":740,"x_min":0,"x_max":0,"o":"m 636 694 l 283 694 b 74 488 140 694 74 606 b 176 318 74 408 93 356 l 176 310 b 68 136 94 279 68 224 l 68 21 b 89 0 68 7 75 0 l 225 0 b 247 21 240 0 247 7 l 247 115 b 319 221 247 175 250 221 l 479 221 l 479 22 b 501 0 479 7 488 0 l 636 0 b 658 22 651 0 658 7 l 658 672 b 636 694 658 688 651 694 z m 318 378 b 247 453 271 378 247 403 b 318 529 247 507 269 529 l 479 529 l 479 378 z "},"ӣ":{"ha":822,"x_min":0,"x_max":0,"o":"m 200 811 l 650 811 b 671 832 663 811 671 818 l 671 951 b 650 972 671 965 663 972 l 200 972 b 179 951 186 972 179 965 l 179 832 b 200 811 179 818 186 811 z m 104 0 l 317 0 b 342 15 328 0 336 4 l 549 493 l 561 493 l 561 22 b 583 0 561 7 569 0 l 718 0 b 740 22 733 0 740 7 l 740 672 b 718 694 740 688 733 694 l 506 694 b 481 679 494 694 486 690 l 274 201 l 261 201 l 261 672 b 239 694 261 688 253 694 l 104 694 b 82 672 89 694 82 688 l 82 22 b 104 0 82 7 89 0 z "},"ө":{"ha":732,"x_min":0,"x_max":0,"o":"m 410 700 l 322 700 b 68 457 144 700 68 606 l 68 236 b 322 -7 68 88 144 -7 l 410 -7 b 664 236 589 -7 664 88 l 664 457 b 410 700 664 606 589 700 z m 331 540 l 401 540 b 485 454 451 540 485 514 l 485 425 l 247 425 l 247 454 b 331 540 247 514 282 540 z m 401 153 l 331 153 b 247 239 282 153 247 179 l 247 267 l 485 267 l 485 239 b 401 153 485 179 451 153 z "},"ӭ":{"ha":710,"x_min":0,"x_max":0,"o":"m 218 789 b 239 810 232 789 239 796 l 239 951 b 218 972 239 965 232 972 l 76 972 b 56 951 63 972 56 965 l 56 810 b 76 789 56 796 63 789 z m 624 972 l 482 972 b 461 951 468 972 461 965 l 461 810 b 482 789 461 796 468 789 l 624 789 b 644 810 638 789 644 796 l 644 951 b 624 972 644 965 638 972 z m 388 700 l 310 700 b 61 468 146 700 61 608 l 61 458 b 83 436 61 443 69 436 l 211 436 b 232 458 225 436 232 443 l 232 468 b 318 540 232 517 267 540 l 379 540 b 463 454 429 540 463 514 l 463 419 l 342 419 b 318 396 325 419 318 411 l 318 283 b 342 261 318 268 325 261 l 463 261 l 463 254 b 350 149 463 185 428 149 l 338 149 b 208 199 264 149 233 158 b 175 208 201 210 192 215 l 85 167 b 69 136 69 160 64 149 b 342 -7 119 22 225 -7 l 354 -7 b 642 236 564 -7 642 90 l 642 457 b 388 700 642 606 567 700 z "},"ӯ":{"ha":781,"x_min":0,"x_max":0,"o":"m 179 811 l 629 811 b 650 832 642 811 650 818 l 650 951 b 629 972 650 965 642 972 l 179 972 b 158 951 165 972 158 965 l 158 832 b 179 811 158 818 165 811 z m 714 694 l 578 694 b 553 671 564 694 558 686 l 397 217 l 386 217 l 228 671 b 203 694 222 686 217 694 l 67 694 b 49 671 53 694 43 686 l 301 -10 l 222 -222 b 240 -246 217 -237 226 -246 l 375 -246 b 403 -222 390 -246 397 -237 l 732 671 b 714 694 738 686 728 694 z "},"Δ":{"ha":838,"x_min":0,"x_max":0,"o":"m 800 22 l 513 990 b 486 1013 508 1004 499 1013 l 375 1013 b 349 990 363 1013 353 1004 l 60 22 b 75 0 56 7 61 0 l 783 0 b 800 22 797 0 804 7 z m 279 183 l 432 747 l 579 183 z "},"Ω":{"ha":831,"x_min":0,"x_max":0,"o":"m 742 390 l 742 739 b 458 1025 742 922 618 1025 l 372 1025 b 89 739 213 1025 89 922 l 89 390 b 196 183 89 269 131 221 l 110 183 b 89 163 96 183 89 176 l 89 21 b 110 0 89 7 96 0 l 358 0 b 379 21 372 0 379 7 l 379 183 b 358 204 379 197 372 204 l 354 204 b 272 422 281 204 272 336 l 272 733 b 378 842 272 825 310 842 l 453 842 b 558 733 521 842 558 825 l 558 422 b 476 204 558 336 550 204 l 472 204 b 451 183 458 204 451 197 l 451 21 b 472 0 451 7 458 0 l 721 0 b 742 21 735 0 742 7 l 742 163 b 721 183 742 176 735 183 l 635 183 b 742 390 700 221 742 269 z "},"μ":{"ha":760,"x_min":0,"x_max":0,"o":"m 657 694 l 519 694 b 499 672 510 694 499 688 l 499 247 b 407 154 499 186 460 154 l 343 154 b 261 246 293 154 261 186 l 261 672 b 239 694 261 688 253 694 l 101 694 b 82 672 93 694 82 688 l 82 -257 b 103 -278 82 -271 89 -278 l 240 -278 b 261 -257 254 -278 261 -271 l 261 -4 b 299 -6 274 -6 286 -6 l 315 -6 b 479 71 390 -6 449 22 l 499 71 l 499 22 b 519 0 499 7 510 0 l 657 0 b 678 22 671 0 678 7 l 678 672 b 657 694 678 688 671 694 z "},"π":{"ha":849,"x_min":0,"x_max":0,"o":"m 772 694 l 75 694 b 56 674 61 694 56 688 l 56 532 b 76 511 56 518 61 511 l 153 511 l 153 21 b 174 0 153 7 160 0 l 315 0 b 336 21 329 0 336 7 l 336 511 l 511 511 l 511 21 b 532 0 511 7 518 0 l 674 0 b 694 21 688 0 694 7 l 694 511 l 772 511 b 793 531 786 511 793 518 l 793 674 b 772 694 793 686 786 694 z "},"¹":{"ha":419,"x_min":0,"x_max":0,"o":"m 167 951 l 167 564 b 188 543 167 550 174 543 l 232 543 b 253 564 246 543 253 550 l 253 951 b 232 972 253 965 246 972 l 188 972 b 167 951 174 972 167 965 z "},"²":{"ha":444,"x_min":0,"x_max":0,"o":"m 340 624 l 190 624 l 268 692 b 360 847 317 733 360 776 b 240 972 360 913 322 972 l 206 972 b 83 857 129 972 83 924 l 83 839 b 104 818 83 825 90 818 l 146 818 b 167 839 160 818 167 825 l 167 849 b 218 893 167 878 188 893 b 275 839 253 893 275 874 b 226 761 275 807 250 783 l 106 647 b 86 608 92 635 86 628 l 86 563 b 107 542 86 549 93 542 l 340 542 b 361 563 354 542 361 549 l 361 603 b 340 624 361 617 354 624 z "},"³":{"ha":449,"x_min":0,"x_max":0,"o":"m 301 757 b 360 853 343 778 360 810 b 243 972 360 913 322 972 l 208 972 b 86 857 132 972 86 924 l 86 839 b 107 818 86 825 93 818 l 149 818 b 169 839 163 818 169 825 l 169 849 b 224 893 169 878 190 893 b 278 840 258 893 278 874 b 226 793 278 810 264 793 l 204 793 b 185 772 192 793 185 786 l 185 742 b 204 721 185 728 192 721 l 226 721 b 281 674 267 721 281 704 b 224 621 281 640 261 621 b 167 665 188 621 167 636 l 167 675 b 146 696 167 689 160 696 l 104 696 b 83 675 90 696 83 689 l 83 657 b 208 542 83 590 129 542 l 243 542 b 368 661 331 542 368 601 b 301 757 368 704 346 736 z "},"⁄":{"ha":175,"x_min":0,"x_max":0,"o":"m 321 951 l -240 21 b -226 0 -249 7 -240 0 l -174 0 b -146 21 -160 0 -154 7 l 415 951 b 401 972 424 965 415 972 l 349 972 b 321 951 335 972 329 965 z "},"½":{"ha":1039,"x_min":0,"x_max":0,"o":"m 167 951 l 167 564 b 188 543 167 550 174 543 l 232 543 b 253 564 246 543 253 550 l 253 951 b 232 972 253 965 246 972 l 188 972 b 167 951 174 972 167 965 z m 740 951 l 179 21 b 193 0 171 7 179 0 l 246 0 b 274 21 260 0 265 7 l 835 951 b 821 972 843 965 835 972 l 768 972 b 740 951 754 972 749 965 z m 935 82 l 785 82 l 863 150 b 954 306 911 192 954 235 b 835 431 954 371 917 431 l 800 431 b 678 315 724 431 678 382 l 678 297 b 699 276 678 283 685 276 l 740 276 b 761 297 754 276 761 283 l 761 307 b 813 351 761 336 782 351 b 869 297 847 351 869 332 b 821 219 869 265 844 242 l 700 106 b 681 67 686 93 681 86 l 681 21 b 701 0 681 7 688 0 l 935 0 b 956 21 949 0 956 7 l 956 61 b 935 82 956 75 949 82 z "},"¼":{"ha":1061,"x_min":0,"x_max":0,"o":"m 167 951 l 167 564 b 188 543 167 550 174 543 l 232 543 b 253 564 246 543 253 550 l 253 951 b 232 972 253 965 246 972 l 188 972 b 167 951 174 972 167 965 z m 740 951 l 179 21 b 193 0 171 7 179 0 l 246 0 b 274 21 260 0 265 7 l 835 951 b 821 972 843 965 835 972 l 768 972 b 740 951 754 972 749 965 z m 957 150 l 938 150 l 938 410 b 917 431 938 424 931 431 l 847 431 b 824 415 839 431 829 426 l 685 151 b 678 126 682 146 678 138 l 678 92 b 701 71 678 78 686 71 l 854 71 l 854 21 b 875 0 854 7 861 0 l 917 0 b 938 21 931 0 938 7 l 938 71 l 957 71 b 978 92 971 71 978 78 l 978 129 b 957 150 978 143 971 150 z m 854 153 l 774 153 l 854 315 z "},"¾":{"ha":1090,"x_min":0,"x_max":0,"o":"m 301 757 b 360 853 343 778 360 810 b 243 972 360 913 322 972 l 208 972 b 86 857 132 972 86 924 l 86 839 b 107 818 86 825 93 818 l 149 818 b 169 839 163 818 169 825 l 169 849 b 224 893 169 878 190 893 b 278 840 258 893 278 874 b 226 793 278 810 264 793 l 204 793 b 185 772 192 793 185 786 l 185 742 b 204 721 185 728 192 721 l 226 721 b 281 674 267 721 281 704 b 224 621 281 640 261 621 b 167 665 188 621 167 636 l 167 675 b 146 696 167 689 160 696 l 104 696 b 83 675 90 696 83 689 l 83 657 b 208 542 83 590 129 542 l 243 542 b 368 661 331 542 368 601 b 301 757 368 704 346 736 z m 769 951 l 208 21 b 222 0 200 7 208 0 l 275 0 b 303 21 289 0 294 7 l 864 951 b 850 972 872 965 864 972 l 797 972 b 769 951 783 972 778 965 z m 986 150 l 967 150 l 967 410 b 946 431 967 424 960 431 l 876 431 b 853 415 868 431 858 426 l 714 151 b 707 126 711 146 707 138 l 707 92 b 731 71 707 78 715 71 l 883 71 l 883 21 b 904 0 883 7 890 0 l 946 0 b 967 21 960 0 967 7 l 967 71 l 986 71 b 1007 92 1000 71 1007 78 l 1007 129 b 986 150 1007 143 1000 150 z m 883 153 l 803 153 l 883 315 z "},"⅛":{"ha":1043,"x_min":0,"x_max":0,"o":"m 167 951 l 167 564 b 188 543 167 550 174 543 l 232 543 b 253 564 246 543 253 550 l 253 951 b 232 972 253 965 246 972 l 188 972 b 167 951 174 972 167 965 z m 740 951 l 179 21 b 193 0 171 7 179 0 l 246 0 b 274 21 260 0 265 7 l 835 951 b 821 972 843 965 835 972 l 768 972 b 740 951 754 972 749 965 z m 903 226 b 949 317 931 244 949 274 b 831 431 949 381 907 431 l 807 431 b 689 317 735 431 689 381 b 735 226 689 274 707 244 b 678 122 707 210 678 182 b 806 0 678 50 721 0 l 832 0 b 960 122 917 0 960 50 b 903 226 960 182 931 210 z m 822 258 l 815 258 b 769 307 788 258 769 276 b 815 356 769 338 788 356 l 822 356 b 868 307 850 356 868 338 b 822 258 868 276 850 258 z m 811 78 b 763 131 782 78 763 94 b 811 186 763 165 782 186 l 826 186 b 875 131 856 186 875 165 b 826 78 875 94 856 78 z "},"⅜":{"ha":1072,"x_min":0,"x_max":0,"o":"m 301 757 b 360 853 343 778 360 810 b 243 972 360 913 322 972 l 208 972 b 86 857 132 972 86 924 l 86 839 b 107 818 86 825 93 818 l 149 818 b 169 839 163 818 169 825 l 169 849 b 224 893 169 878 190 893 b 278 840 258 893 278 874 b 226 793 278 810 264 793 l 204 793 b 185 772 192 793 185 786 l 185 742 b 204 721 185 728 192 721 l 226 721 b 281 674 267 721 281 704 b 224 621 281 640 261 621 b 167 665 188 621 167 636 l 167 675 b 146 696 167 689 160 696 l 104 696 b 83 675 90 696 83 689 l 83 657 b 208 542 83 590 129 542 l 243 542 b 368 661 331 542 368 601 b 301 757 368 704 346 736 z m 769 951 l 208 21 b 222 0 200 7 208 0 l 275 0 b 303 21 289 0 294 7 l 864 951 b 850 972 872 965 864 972 l 797 972 b 769 951 783 972 778 965 z m 932 226 b 978 317 960 244 978 274 b 860 431 978 381 936 431 l 836 431 b 718 317 764 431 718 381 b 764 226 718 274 736 244 b 707 122 736 210 707 182 b 835 0 707 50 750 0 l 861 0 b 989 122 946 0 989 50 b 932 226 989 182 960 210 z m 851 258 l 844 258 b 799 307 817 258 799 276 b 844 356 799 338 817 356 l 851 356 b 897 307 879 356 897 338 b 851 258 897 276 879 258 z m 840 78 b 792 131 811 78 792 94 b 840 186 792 165 811 186 l 856 186 b 904 131 885 186 904 165 b 856 78 904 94 885 78 z "},"⅝":{"ha":1075,"x_min":0,"x_max":0,"o":"m 238 824 b 169 799 215 824 188 818 l 169 892 l 332 892 b 353 913 346 892 353 899 l 353 951 b 332 972 353 965 346 972 l 110 972 b 89 951 96 972 89 965 l 89 757 b 110 736 89 743 96 736 l 168 736 b 221 754 181 749 201 754 b 281 682 268 754 281 726 b 224 621 281 640 261 621 b 167 665 188 621 167 636 l 167 675 b 146 696 167 689 160 696 l 104 696 b 83 675 90 696 83 689 l 83 657 b 208 542 83 590 129 542 l 243 542 b 368 682 331 542 368 601 b 238 824 368 769 325 824 z m 772 951 l 211 21 b 225 0 203 7 211 0 l 278 0 b 306 21 292 0 297 7 l 867 951 b 853 972 875 965 867 972 l 800 972 b 772 951 786 972 781 965 z m 935 226 b 981 317 963 244 981 274 b 863 431 981 381 939 431 l 839 431 b 721 317 767 431 721 381 b 767 226 721 274 739 244 b 710 122 739 210 710 182 b 838 0 710 50 753 0 l 864 0 b 992 122 949 0 992 50 b 935 226 992 182 963 210 z m 854 258 l 847 258 b 801 307 819 258 801 276 b 847 356 801 338 819 356 l 854 356 b 900 307 882 356 900 338 b 854 258 900 276 882 258 z m 843 78 b 794 131 814 78 794 94 b 843 186 794 165 814 186 l 858 186 b 907 131 888 186 907 165 b 858 78 907 94 888 78 z "},"⅞":{"ha":1060,"x_min":0,"x_max":0,"o":"m 353 908 l 353 951 b 332 972 353 965 346 972 l 104 972 b 83 951 90 972 83 965 l 83 910 b 104 889 83 896 90 889 l 260 889 l 104 561 b 117 542 100 551 104 542 l 175 542 b 197 561 186 542 193 551 l 347 885 b 353 908 353 896 353 903 z m 757 951 l 196 21 b 210 0 188 7 196 0 l 263 0 b 290 21 276 0 282 7 l 851 951 b 838 972 860 965 851 972 l 785 972 b 757 951 771 972 765 965 z m 919 226 b 965 317 947 244 965 274 b 847 431 965 381 924 431 l 824 431 b 706 317 751 431 706 381 b 751 226 706 274 724 244 b 694 122 724 210 694 182 b 822 0 694 50 738 0 l 849 0 b 976 122 933 0 976 50 b 919 226 976 182 947 210 z m 839 258 l 832 258 b 786 307 804 258 786 276 b 832 356 786 338 804 356 l 839 356 b 885 307 867 356 885 338 b 839 258 885 276 867 258 z m 828 78 b 779 131 799 78 779 94 b 828 186 779 165 799 186 l 843 186 b 892 131 872 186 892 165 b 843 78 892 94 872 78 z "},".":{"ha":281,"x_min":0,"x_max":0,"o":"m 69 0 l 211 0 b 232 21 225 0 232 7 l 232 163 b 211 183 232 176 225 183 l 69 183 b 49 163 56 183 49 176 l 49 21 b 69 0 49 7 56 0 z "},",":{"ha":324,"x_min":0,"x_max":0,"o":"m 254 183 l 139 183 b 118 163 125 183 118 176 l 118 -81 l 56 -81 b 35 -101 42 -81 35 -87 l 35 -208 b 56 -229 35 -222 42 -229 l 224 -229 b 275 -178 257 -229 275 -211 l 275 163 b 254 183 275 176 268 183 z "},":":{"ha":281,"x_min":0,"x_max":0,"o":"m 69 511 l 211 511 b 232 532 225 511 232 518 l 232 674 b 211 694 232 688 225 694 l 69 694 b 49 674 56 694 49 688 l 49 532 b 69 511 49 518 56 511 z m 69 0 l 211 0 b 232 21 225 0 232 7 l 232 163 b 211 183 232 176 225 183 l 69 183 b 49 163 56 183 49 176 l 49 21 b 69 0 49 7 56 0 z "}}}
